<svg width="24" height="24" viewBox="0 0 24 24" fill="none" xmlns="http://www.w3.org/2000/svg">
<path d="M12.7258 0.066482C13.5966 0.265928 14.5343 0.33241 15.405 0.598338C20.7632 2.19391 24.3131 7.24654 23.9782 12.831C23.5763 18.349 19.4237 22.8698 13.9315 23.8006C13.4626 23.867 13.0607 23.9335 12.5919 24C12.19 24 11.8551 24 11.4533 24C11.2523 23.9335 11.0514 23.867 10.8505 23.867C5.76012 23.2022 2.41121 20.4765 0.669782 15.7562C0.334891 14.892 0.200934 13.8947 0 12.964C0 12.2992 0 11.7008 0 11.036C0.0669781 10.8366 0.133956 10.7036 0.133956 10.5042C0.803738 5.78393 3.48286 2.52632 7.90342 0.797784C8.97507 0.398892 10.1137 0.265928 11.2523 -9.90661e-10C11.7212 0.066482 12.19 0.066482 12.7258 0.066482ZM22.5047 12.0332C22.5047 6.24931 17.8162 1.52909 11.9891 1.52909C6.22897 1.52909 1.40654 6.24931 1.40654 12.0332C1.40654 17.8172 6.16199 22.6039 11.9221 22.5374C17.7492 22.5374 22.5047 17.8172 22.5047 12.0332Z" fill="white"/>
<path d="M5.11003e-07 9.37396C5.11003e-07 6.24931 5.11003e-07 3.12465 5.11003e-07 -1.26804e-07C0.535826 -1.26804e-07 1.00467 -1.26804e-07 1.60748 -1.26804e-07C1.60748 1.13019 1.60748 2.26039 1.60748 3.52355C2.00934 3.45706 2.27726 3.39058 2.54517 3.3241C3.95171 3.05817 5.35825 3.59003 6.09501 4.7867C6.83177 5.98338 6.76479 7.51247 5.89408 8.57618C5.02336 9.70637 3.61682 10.0388 2.21028 9.63989C1.47352 9.44044 0.73676 9.44044 5.11003e-07 9.37396ZM3.28193 8.37673C4.2866 8.37673 5.15732 7.51247 5.15732 6.51524C5.15732 5.45152 4.2866 4.58726 3.21495 4.65374C2.1433 4.65374 1.33956 5.51801 1.33956 6.58172C1.40654 7.57895 2.21028 8.37673 3.28193 8.37673Z" transform="translate(12.5249 7.18005)" fill="white"/>
<path d="M5.01118 3.61252C5.01118 2.34937 5.01118 1.21917 5.01118 0.0889787C5.21212 0.0224967 5.34607 0.0224971 5.41305 0.0224971C6.68564 -0.0439849 6.68564 -0.0439854 6.68564 1.21917C6.68564 3.74549 6.68564 6.2718 6.68564 8.79812C6.68564 9.39646 6.55168 9.59591 5.94888 9.59591C5.21212 9.59591 4.47536 9.79535 3.7386 9.86183C2.39904 9.9948 1.05947 9.39646 0.456669 8.19978C-0.213112 7.00311 -0.146134 5.80643 0.657604 4.67624C1.52832 3.47956 2.73393 3.14715 4.14047 3.41308C4.40838 3.41308 4.60931 3.47956 5.01118 3.61252ZM3.33673 8.46571C4.3414 8.46571 5.21212 7.66793 5.2791 6.60421C5.34607 5.60699 4.47536 4.67624 3.47069 4.67624C2.39904 4.67624 1.52832 5.47402 1.46134 6.53773C1.46134 7.60144 2.26508 8.46571 3.33673 8.46571Z" transform="translate(4.83456 7.091)" fill="white"/>
</svg>
