<svg width="15" height="16" viewBox="0 0 15 16" fill="none" xmlns="http://www.w3.org/2000/svg">
<path d="M1.29332 6.68479C1.80832 6.68479 2.27387 6.37702 2.47574 5.901C3.29973 3.94357 5.24022 2.56476 7.49794 2.56476C8.74216 2.56476 9.8875 2.99154 10.8021 3.69736L10.0853 3.80816C9.84218 3.84509 9.64854 4.03796 9.61558 4.28417C9.58263 4.53039 9.71446 4.7643 9.94106 4.86689L13.888 6.63555C14.061 6.71352 14.2629 6.6971 14.4194 6.59451C14.5801 6.49192 14.6749 6.31546 14.6749 6.1267L14.6955 1.79328C14.6955 1.54706 14.5348 1.32957 14.2999 1.25571C14.061 1.18595 13.8056 1.27622 13.6696 1.48141L13.1258 2.29392C11.6797 0.878174 9.68974 0 7.49794 0C4.17728 0 1.32216 2.02308 0.102664 4.89151C-0.0662528 5.28956 -0.0250535 5.74506 0.213903 6.10618C0.452859 6.4673 0.860732 6.68479 1.29332 6.68479Z" transform="translate(0 16) scale(1 -1)" fill="white"/>
<path d="M14.4857 0.57861C14.2467 0.217491 13.843 1.25232e-07 13.4063 1.25232e-07C12.8913 1.25232e-07 12.4216 0.307771 12.2238 0.78379C11.3998 2.74122 9.45936 4.12003 7.20164 4.12003C5.95742 4.12003 4.81208 3.69325 3.89745 2.99154L4.61432 2.88074C4.8574 2.84381 5.05103 2.65094 5.08399 2.40472C5.11695 2.1585 4.98512 1.92049 4.75852 1.82201L0.811626 0.0533473C0.638589 -0.0246214 0.436713 -0.00820698 0.280155 0.0943834C0.119478 0.196974 0.0247196 0.373429 0.0247196 0.562195L7.85814e-09 4.89151C7.85814e-09 5.13773 0.160677 5.35522 0.395513 5.42908C0.630349 5.50295 0.889905 5.40857 1.02586 5.20339L1.56969 4.39087C3.01991 5.81482 5.00572 6.693 7.19752 6.693C10.5182 6.693 13.3774 4.66992 14.5969 1.80149C14.7658 1.39523 14.7246 0.939728 14.4857 0.57861Z" transform="translate(0.300415 6.693) scale(1 -1)" fill="white"/>
</svg>
