<svg width="182" height="135" viewBox="0 0 182 135" fill="none" xmlns="http://www.w3.org/2000/svg">
<path d="M228.981 59.209C236.957 63.7793 237.016 71.2207 229.099 75.791L132.27 131.572C124.353 136.143 111.415 136.143 103.439 131.572L6.01881 75.7324C-1.95679 71.1621 -2.01587 63.7207 5.90065 59.1504L102.73 3.42773C110.647 -1.14258 123.585 -1.14258 131.561 3.42773L228.981 59.209Z" transform="translate(235 135) rotate(180)" fill="#149CF9"/>
<mask id="mask0" mask-type="alpha" maskUnits="userSpaceOnUse" x="0" y="0" width="235" height="135">
<path d="M228.981 59.209C236.957 63.7793 237.016 71.2207 229.099 75.791L132.27 131.572C124.353 136.143 111.415 136.143 103.439 131.572L6.01881 75.7324C-1.95679 71.1621 -2.01587 63.7207 5.90065 59.1504L102.73 3.42773C110.647 -1.14258 123.585 -1.14258 131.561 3.42773L228.981 59.209Z" transform="translate(235 135) rotate(180)" fill="#149CF9"/>
</mask>
<g mask="url(#mask0)">
<path d="M238.226 0.466411C237.987 4.6058 234.396 7.11275 231.044 8.97839C228.889 10.2027 226.674 11.427 224.519 12.7097C220.868 14.8085 217.217 16.8491 213.506 18.9479C208.837 21.5715 204.228 24.195 199.56 26.8186C194.412 29.7337 189.264 32.6487 184.117 35.5638C178.969 38.4788 173.762 41.3939 168.614 44.3673C163.885 47.0491 159.157 49.731 154.368 52.4128C150.597 54.57 146.767 56.7271 142.996 58.826C140.601 60.1669 138.207 61.5078 135.813 62.8488C135.334 63.1403 134.795 63.4318 134.317 63.7233C131.683 65.2391 128.75 66.1136 125.757 66.6966C118.754 68.0376 110.793 67.1048 104.568 63.6067C102.892 62.6739 101.216 61.741 99.5403 60.7499C96.2483 58.8843 92.9562 57.0769 89.724 55.2113C85.2946 52.7043 80.8653 50.2557 76.436 47.7487C71.3482 44.892 66.3203 42.0352 61.2326 39.1785C56.0251 36.2634 50.7578 33.29 45.5503 30.375C40.6421 27.6348 35.734 24.8363 30.7659 22.0962C26.6359 19.7641 22.5058 17.4321 18.3159 15.1C15.4428 13.4676 12.5697 11.8352 9.6368 10.2027C8.49954 9.56141 7.30242 8.9201 6.16516 8.27878C3.11251 6.52974 0.0598559 3.73128 0.0598559 -8.89607e-07C0.0598559 5.13051 0.0598559 10.2027 -8.91912e-10 15.3332C-8.91912e-10 17.8985 -8.91912e-10 20.4637 -8.91912e-10 23.029C-8.91912e-10 23.9035 0 24.8363 0.299279 25.7109C1.01755 28.1595 2.99279 30.0835 5.14761 31.4827C6.82357 32.5321 8.55939 33.4649 10.2952 34.3978C14.126 36.5549 17.8969 38.712 21.7277 40.8109C27.1147 43.8426 32.5616 46.8742 37.9486 49.9642C44.1736 53.4623 50.3388 56.9603 56.5638 60.4584C62.6691 63.8982 68.8343 67.338 74.9396 70.7777C80.2069 73.7511 85.5341 76.7245 90.8014 79.6978C94.3927 81.6801 97.9242 83.7206 101.516 85.7029C104.209 87.2187 106.783 88.7345 109.776 89.609C115.522 91.3581 122.166 91.4747 127.972 89.9005C130.246 89.2592 132.461 88.443 134.496 87.277C136.89 85.9361 139.225 84.5951 141.619 83.2542C146.108 80.7472 150.597 78.182 155.027 75.675C160.833 72.4102 166.639 69.087 172.445 65.8221C178.67 62.2658 184.955 58.7677 191.18 55.2113C197.105 51.8881 203.031 48.5067 208.897 45.1835C213.566 42.5016 218.294 39.8781 222.963 37.1962C225.657 35.6804 228.35 34.1645 231.044 32.5904C231.702 32.1823 232.42 31.8325 233.079 31.4244C235.293 29.9669 237.269 27.9263 237.867 25.3611C238.047 24.6031 238.047 23.7869 238.047 23.029C238.047 16.9657 238.107 10.9606 238.107 4.89731C238.107 3.32317 238.107 1.74904 238.107 0.116604C238.226 0.233207 238.226 0.349808 238.226 0.466411Z" transform="translate(236.672 90.2684) rotate(180)" fill="#3B407F"/>
<g filter="url(#filter0_f)">
<path d="M201.979 48.0318C209.014 51.7393 209.066 57.776 202.083 61.4835L116.672 106.735C109.689 110.442 98.2764 110.442 91.2414 106.735L5.30905 61.436C-1.72604 57.7285 -1.77815 51.6918 5.20483 47.9843L90.616 2.78066C97.599 -0.926888 109.011 -0.926888 116.047 2.78066L201.979 48.0318Z" transform="translate(221.203 135) rotate(180)" fill="#149CF9"/>
</g>
</g>
<defs>
<filter id="filter0_f" x="3.91516" y="15.4847" width="227.288" height="129.515" filterUnits="userSpaceOnUse" color-interpolation-filters="sRGB">
<feFlood flood-opacity="0" result="BackgroundImageFix"/>
<feBlend mode="normal" in="SourceGraphic" in2="BackgroundImageFix" result="shape"/>
<feGaussianBlur stdDeviation="5" result="effect1_foregroundBlur"/>
</filter>
</defs>
</svg>
