<svg width="135" height="18" viewBox="0 0 135 18" fill="none" xmlns="http://www.w3.org/2000/svg">
<path fill-rule="evenodd" clip-rule="evenodd" d="M13.0093 13.6522C13.1865 13.6522 13.3435 13.7213 13.4804 13.8593L14.7608 15.2598C14.0521 16.1448 13.1784 16.8227 12.1396 17.2936C11.1089 17.7645 9.8687 18 8.41922 18C7.12271 18 5.95506 17.7767 4.91623 17.3302C3.88546 16.8836 3.0037 16.2625 2.27087 15.4668C1.53808 14.6712 0.974407 13.7213 0.579811 12.6171C0.193284 11.5128 0 10.3072 0 9C0 7.67659 0.209381 6.46684 0.628101 5.37076C1.04686 4.2666 1.6347 3.31663 2.3917 2.52098C3.15668 1.7253 4.06666 1.10825 5.12159 0.669817C6.17649 0.223286 7.34418 0 8.62454 0C9.89688 0 11.0243 0.211104 12.0067 0.633271C12.9972 1.05548 13.8387 1.60756 14.5313 2.28956L13.4442 3.81189C13.3797 3.90935 13.2952 3.99458 13.1905 4.06767C13.0939 4.14073 12.9569 4.17727 12.7798 4.17727C12.659 4.17727 12.5342 4.14477 12.4054 4.07986C12.2765 4.00676 12.1356 3.92153 11.9826 3.82407C11.8296 3.71852 11.6524 3.60487 11.4511 3.48309C11.2497 3.36131 11.0162 3.25171 10.7505 3.15425C10.4848 3.0487 10.1747 2.96347 9.82037 2.89851C9.47411 2.82546 9.07149 2.78891 8.61246 2.78891C7.83134 2.78891 7.11464 2.93097 6.46238 3.21516C5.81814 3.49119 5.26249 3.89716 4.79544 4.43302C4.32839 4.96074 3.96599 5.61028 3.70832 6.3816C3.45064 7.14479 3.32179 8.01757 3.32179 9C3.32179 9.99052 3.45867 10.8714 3.73248 11.6428C4.01432 12.4141 4.39282 13.0636 4.86794 13.5913C5.34302 14.1191 5.90272 14.525 6.54692 14.8092C7.19115 15.0853 7.88368 15.2233 8.62454 15.2233C9.06747 15.2233 9.46608 15.1989 9.82037 15.1502C10.1828 15.1015 10.5129 15.0244 10.8109 14.9188C11.1169 14.8132 11.4028 14.6793 11.6685 14.5169C11.9423 14.3464 12.2121 14.1394 12.4778 13.8958C12.5583 13.8227 12.6429 13.7659 12.7315 13.7253C12.8201 13.6766 12.9127 13.6522 13.0093 13.6522ZM33.2663 9C33.2663 10.2909 33.0529 11.4885 32.6261 12.5927C32.2074 13.6888 31.6115 14.6387 30.8384 15.4425C30.0653 16.2463 29.1352 16.8755 28.0481 17.3302C26.961 17.7767 25.753 18 24.4244 18C23.1037 18 21.8998 17.7767 20.8127 17.3302C19.7255 16.8755 18.7914 16.2463 18.0103 15.4425C17.2372 14.6387 16.6373 13.6888 16.2105 12.5927C15.7837 11.4885 15.5703 10.2909 15.5703 9C15.5703 7.70905 15.7837 6.51556 16.2105 5.41949C16.6373 4.31528 17.2372 3.36131 18.0103 2.55753C18.7914 1.75371 19.7255 1.12857 20.8127 0.682C21.8998 0.227333 23.1037 0 24.4244 0C25.3101 0 26.1436 0.105552 26.9247 0.316656C27.7058 0.519625 28.4226 0.811916 29.0748 1.19349C29.7271 1.56697 30.3109 2.02572 30.8263 2.56967C31.3498 3.10557 31.7927 3.70638 32.155 4.37211C32.5174 5.03788 32.7912 5.76047 32.9764 6.53993C33.1697 7.31934 33.2663 8.1394 33.2663 9ZM29.9445 9C29.9445 8.03384 29.8157 7.16915 29.558 6.40596C29.3003 5.63464 28.9339 4.98105 28.4588 4.4452C27.9837 3.90935 27.4039 3.49932 26.7194 3.21516C26.043 2.93097 25.2779 2.78891 24.4244 2.78891C23.5707 2.78891 22.8017 2.93097 22.1172 3.21516C21.4408 3.49932 20.861 3.90935 20.3778 4.4452C19.9027 4.98105 19.5363 5.63464 19.2786 6.40596C19.0209 7.16915 18.8921 8.03384 18.8921 9C18.8921 9.96616 19.0209 10.8349 19.2786 11.6062C19.5363 12.3694 19.9027 13.0189 20.3778 13.5548C20.861 14.0826 21.4408 14.4885 22.1172 14.7727C22.8017 15.0569 23.5707 15.1989 24.4244 15.1989C25.2779 15.1989 26.043 15.0569 26.7194 14.7727C27.4039 14.4885 27.9837 14.0826 28.4588 13.5548C28.9339 13.0189 29.3003 12.3694 29.558 11.6062C29.8157 10.8349 29.9445 9.96616 29.9445 9ZM36.1199 17.8051H39.3812V0.194875H36.1199V17.8051ZM58.0164 17.8051H56.3495C56.0918 17.8051 55.8744 17.7645 55.6972 17.6833C55.5281 17.5941 55.363 17.4479 55.202 17.2449L46.0821 5.50473C46.1305 6.04058 46.1546 6.53584 46.1546 6.99051V17.8051H43.2919V0.194875H44.995C45.1319 0.194875 45.2487 0.202969 45.3453 0.219198C45.45 0.227333 45.5386 0.251698 45.6111 0.292291C45.6916 0.32475 45.7681 0.377526 45.8406 0.450619C45.913 0.515578 45.9936 0.604859 46.0821 0.718546L55.2382 12.5075C55.214 12.2233 55.1939 11.9431 55.1778 11.6671C55.1617 11.3911 55.1536 11.1353 55.1536 10.8999V0.194875H58.0164V17.8051ZM70.893 3.77538C71.0058 3.6942 71.1105 3.56833 71.2071 3.39782L72.0164 1.85117C71.4044 1.26658 70.6635 0.811916 69.7938 0.487125C68.9241 0.162375 67.9739 0 66.9431 0C66.0251 0 65.2118 0.142099 64.5031 0.426255C63.7945 0.710411 63.1986 1.08794 62.7154 1.55887C62.2322 2.02977 61.8618 2.56967 61.6041 3.17862C61.3545 3.78757 61.2297 4.4127 61.2297 5.05411C61.2297 5.85793 61.3424 6.53584 61.5679 7.08796C61.8014 7.63195 62.1074 8.08662 62.4859 8.45196C62.8644 8.81731 63.2952 9.11365 63.7784 9.34098C64.2616 9.56835 64.7528 9.76319 65.252 9.92556C65.7513 10.0879 66.2425 10.2382 66.7257 10.3762C67.2089 10.5142 67.6397 10.6847 68.0182 10.8877C68.3967 11.0825 68.6986 11.3261 68.9241 11.6184C69.1576 11.9107 69.2744 12.2882 69.2744 12.751C69.2744 13.5792 69.0208 14.2165 68.5134 14.6631C68.0061 15.1015 67.2894 15.3207 66.3633 15.3207C65.7594 15.3207 65.24 15.2395 64.8051 15.0771C64.3783 14.9066 64.0039 14.7199 63.6817 14.5169C63.3596 14.3139 63.0818 14.1312 62.8483 13.9689C62.6147 13.7984 62.3973 13.7131 62.196 13.7131C62.0511 13.7131 61.9142 13.7537 61.7853 13.8349C61.6565 13.908 61.5518 14.0013 61.4713 14.115L60.517 15.6861C60.8552 16.0352 61.2418 16.3518 61.6766 16.636C62.1114 16.9202 62.5745 17.1637 63.0657 17.3667C63.565 17.5697 64.0844 17.7239 64.6239 17.8295C65.1635 17.9432 65.7111 18 66.2667 18C67.233 18 68.0907 17.8539 68.8396 17.5616C69.5885 17.2612 70.2206 16.8552 70.736 16.3437C71.2594 15.8241 71.654 15.2192 71.9198 14.5291C72.1936 13.8309 72.3305 13.0839 72.3305 12.2882C72.3305 11.5575 72.2137 10.9364 71.9801 10.4249C71.7547 9.91338 71.4527 9.48308 71.0742 9.13396C70.6957 8.77671 70.2649 8.48442 69.7817 8.25709C69.2986 8.02166 68.8033 7.81869 68.296 7.64818C67.7887 7.46954 67.2934 7.30312 66.8103 7.14883C66.3271 6.9946 65.8963 6.82004 65.5178 6.62516C65.1393 6.43033 64.8333 6.19486 64.5998 5.9188C64.3743 5.64278 64.2616 5.29771 64.2616 4.88364C64.2616 4.55885 64.3179 4.26251 64.4306 3.99458C64.5434 3.71852 64.7125 3.48309 64.938 3.28822C65.1715 3.09338 65.4574 2.94315 65.7956 2.83764C66.1338 2.72395 66.5284 2.66713 66.9794 2.66713C67.4787 2.66713 67.9095 2.73209 68.2718 2.86196C68.6423 2.98374 68.9644 3.12179 69.2382 3.27603C69.512 3.43032 69.7455 3.57241 69.9388 3.70229C70.1401 3.82407 70.3253 3.88498 70.4944 3.88498C70.6555 3.88498 70.7883 3.84844 70.893 3.77538ZM87.3649 2.88633H82.0984V17.8051H78.8491V2.88633H73.5825V0.194875H87.3649V2.88633ZM116.202 13.6522C116.379 13.6522 116.536 13.7213 116.673 13.8593L117.953 15.2598C117.244 16.1448 116.371 16.8227 115.332 17.2936C114.301 17.7645 113.061 18 111.611 18C110.315 18 109.147 17.7767 108.108 17.3302C107.078 16.8836 106.196 16.2625 105.463 15.4668C104.73 14.6712 104.167 13.7213 103.772 12.6171C103.386 11.5128 103.192 10.3072 103.192 9C103.192 7.67659 103.402 6.46684 103.82 5.37076C104.239 4.2666 104.827 3.31663 105.584 2.52098C106.349 1.7253 107.259 1.10825 108.314 0.669817C109.369 0.223286 110.536 0 111.817 0C113.089 0 114.217 0.211104 115.199 0.633271C116.189 1.05548 117.031 1.60756 117.724 2.28956L116.636 3.81189C116.572 3.90935 116.487 3.99458 116.383 4.06767C116.286 4.14073 116.149 4.17727 115.972 4.17727C115.851 4.17727 115.726 4.14477 115.598 4.07986C115.469 4.00676 115.328 3.92153 115.175 3.82407C115.022 3.71852 114.845 3.60487 114.643 3.48309C114.442 3.36131 114.208 3.25171 113.943 3.15425C113.677 3.0487 113.367 2.96347 113.013 2.89851C112.666 2.82546 112.264 2.78891 111.805 2.78891C111.024 2.78891 110.307 2.93097 109.655 3.21516C109.01 3.49119 108.455 3.89716 107.988 4.43302C107.521 4.96074 107.158 5.61028 106.901 6.3816C106.643 7.14479 106.514 8.01757 106.514 9C106.514 9.99052 106.651 10.8714 106.925 11.6428C107.207 12.4141 107.585 13.0636 108.06 13.5913C108.535 14.1191 109.095 14.525 109.739 14.8092C110.383 15.0853 111.076 15.2233 111.817 15.2233C112.26 15.2233 112.658 15.1989 113.013 15.1502C113.375 15.1015 113.705 15.0244 114.003 14.9188C114.309 14.8132 114.595 14.6793 114.861 14.5169C115.135 14.3464 115.404 14.1394 115.67 13.8958C115.751 13.8227 115.835 13.7659 115.924 13.7253C116.012 13.6766 116.105 13.6522 116.202 13.6522ZM124.189 7.57509H123.428V0.194875H120.179V17.8051H123.428V10.0595H124.455C124.833 10.0595 125.123 10.1042 125.325 10.1935C125.526 10.2828 125.703 10.4371 125.856 10.6563L130.796 17.1597C130.925 17.3708 131.082 17.5332 131.268 17.6468C131.461 17.7523 131.751 17.8051 132.137 17.8051H135L128.936 9.56022C128.743 9.27606 128.538 9.04873 128.32 8.87822C128.111 8.69957 127.873 8.56156 127.608 8.46415C127.978 8.27741 128.336 7.96075 128.683 7.51422L134.565 0.194875H131.763C131.425 0.194875 131.143 0.247651 130.917 0.353161C130.7 0.450619 130.49 0.629224 130.289 0.889057L125.47 7.03924C125.325 7.22598 125.151 7.36399 124.95 7.45331C124.749 7.5345 124.495 7.57509 124.189 7.57509Z" fill="white"/>
<path d="M99.3184 17.0623L98.0138 13.4696L94.3901 3.21516L89.4739 17.0623C89.4094 17.249 89.2846 17.4195 89.0994 17.5737C88.9142 17.728 88.6847 17.8051 88.4109 17.8051H85.8743L92.7473 0.194875H96.057L102.918 17.8051H100.406C100.124 17.8051 99.8942 17.7361 99.717 17.5981C99.5399 17.452 99.407 17.2734 99.3184 17.0623Z" fill="white"/>
</svg>
