<svg width="1338" height="577" viewBox="0 0 1338 577" fill="none" xmlns="http://www.w3.org/2000/svg">
<path d="M35.6221 0L35.7117 41.1675L0.134423 61.8639L0 20.6965L35.6221 0Z" transform="translate(1302.29 406.874)" fill="#656CBF" fill-opacity="0.2"/>
<path d="M21.7409 0L21.7956 25.042L0.0820412 37.6315L0 12.5896L21.7409 0Z" transform="translate(611.861 51.1567)" fill="#656CBF" fill-opacity="0.2"/>
<path d="M21.7409 0L21.7956 25.042L0.0820412 37.6315L0 12.5896L21.7409 0Z" transform="translate(1252.29)" fill="#656CBF" fill-opacity="0.2"/>
<path d="M35.6221 0L35.7117 41.1675L0.134423 61.8639L0 20.6965L35.6221 0Z" transform="translate(258.315 515.136)" fill="#656CBF" fill-opacity="0.2"/>
<path d="M35.6221 0L35.7117 41.1675L0.134423 61.8639L0 20.6965L35.6221 0Z" transform="translate(366.641 91.6062)" fill="#656CBF" fill-opacity="0.2"/>
<path d="M35.6221 0L35.7117 41.1675L0.134423 61.8639L0 20.6965L35.6221 0Z" transform="translate(0 60.6742)" fill="#656CBF" fill-opacity="0.2"/>
<path d="M35.6221 0L35.7117 41.1675L0.134423 61.8639L0 20.6965L35.6221 0Z" transform="translate(415.447 317.647)" fill="#656CBF" fill-opacity="0.2"/>
<path d="M21.7409 0L21.7956 25.042L0.0820412 37.6315L0 12.5896L21.7409 0Z" transform="translate(1049.93 385.46)" fill="#656CBF" fill-opacity="0.2"/>
<path d="M21.7409 0L21.7956 25.042L0.0820412 37.6315L0 12.5896L21.7409 0Z" transform="translate(418.351 438.245)" fill="#656CBF" fill-opacity="0.2"/>
<path d="M21.7409 0L21.7956 25.042L0.0820412 37.6315L0 12.5896L21.7409 0Z" transform="translate(484.464 180.614)" fill="#656CBF" fill-opacity="0.2"/>
<path d="M21.7409 0L21.7956 25.042L0.0820412 37.6315L0 12.5896L21.7409 0Z" transform="translate(260.696 161.798)" fill="#656CBF" fill-opacity="0.2"/>
<path d="M21.7409 0L21.7956 25.042L0.0820412 37.6315L0 12.5896L21.7409 0Z" transform="translate(593 348)" fill="#656CBF" fill-opacity="0.2"/>
<path d="M21.7409 0L21.7956 25.042L0.0820412 37.6315L0 12.5896L21.7409 0Z" transform="translate(980.215 164.616)" fill="#656CBF" fill-opacity="0.2"/>
<path d="M21.7409 0L21.7956 25.042L0.0820412 37.6315L0 12.5896L21.7409 0Z" transform="translate(7.14233 507.998)" fill="#656CBF" fill-opacity="0.2"/>
<path d="M21.7409 0L21.7956 25.042L0.0820412 37.6315L0 12.5896L21.7409 0Z" transform="translate(1076.12 44.4846)" fill="#656CBF" fill-opacity="0.2"/>
</svg>
