<svg width="14" height="20" viewBox="0 0 14 20" fill="none" xmlns="http://www.w3.org/2000/svg">
<path d="M13.8761 2.39274C13.3367 2.94432 12.8156 3.48351 12.2762 4.03509C10.8603 2.70262 9.18082 2.12624 7.25001 2.41753C5.80957 2.63444 4.61431 3.32857 3.68262 4.46272C1.75794 6.7992 1.89279 10.1707 3.95232 12.3398C6.06701 14.5647 9.77539 14.8808 12.2701 12.47C12.7973 13.0092 13.3244 13.5483 13.8515 14.0937C12.3804 15.7919 9.17469 17.1181 5.88312 16.1637C2.55478 15.2031 0.121348 12.0733 0.00488627 8.56551C-0.117705 4.93994 2.07667 1.67382 5.43567 0.471497C8.69659 -0.693644 12.0801 0.434311 13.8761 2.39274Z" fill="white"/>
<path d="M7.30699e-10 2.32408C7.30699e-10 1.54319 7.30699e-10 0.793287 7.30699e-10 0.0185927C0.122591 0.0123951 0.232923 0.0061968 0.343255 0.0061968C4.77492 0.0061968 9.20045 0.00619831 13.6321 7.56538e-07C13.9263 7.56538e-07 13.9938 0.0867662 13.9815 0.365656C13.9631 1.0102 13.9754 1.66095 13.9754 2.32408C9.29852 2.32408 4.66459 2.32408 7.30699e-10 2.32408Z" transform="translate(0.0171509 17.6759)" fill="white"/>
</svg>
