<svg width="130" height="75" viewBox="0 0 130 75" fill="none" xmlns="http://www.w3.org/2000/svg">
<path d="M126.062 32.6764C130.453 35.1987 130.486 39.3054 126.127 41.8277L72.8192 72.6124C68.4609 75.1347 61.3379 75.1347 56.9471 72.6124L3.31357 41.7954C-1.07728 39.2731 -1.10981 35.1663 3.24852 32.6441L56.5568 1.89171C60.9151 -0.630569 68.038 -0.630569 72.4289 1.89171L126.062 32.6764Z" transform="translate(129.376 74.5042) rotate(180)" fill="#149CF9"/>
<mask id="mask0" mask-type="alpha" maskUnits="userSpaceOnUse" x="0" y="0" width="130" height="75">
<path d="M126.062 32.6764C130.453 35.1987 130.486 39.3054 126.127 41.8277L72.8192 72.6124C68.4609 75.1347 61.3379 75.1347 56.9471 72.6124L3.31357 41.7954C-1.07728 39.2731 -1.10981 35.1663 3.24852 32.6441L56.5568 1.89171C60.9151 -0.630569 68.038 -0.630569 72.4289 1.89171L126.062 32.6764Z" transform="translate(129.376 74.5042) rotate(180)" fill="#149CF9"/>
</mask>
<g mask="url(#mask0)">
<path d="M131.152 0.257404C131.02 2.54186 129.043 3.9254 127.198 4.95502C126.012 5.6307 124.792 6.30638 123.606 7.01424C121.596 8.17256 119.586 9.29871 117.543 10.457C114.972 11.9049 112.435 13.3528 109.865 14.8007C107.031 16.4095 104.197 18.0182 101.363 19.627C98.5289 21.2358 95.662 22.8446 92.8281 24.4855C90.2248 25.9656 87.6216 27.4457 84.9853 28.9257C82.9093 30.1162 80.8003 31.3067 78.7243 32.465C77.4062 33.2051 76.0881 33.9451 74.77 34.6851C74.5063 34.846 74.2098 35.0069 73.9461 35.1678C72.4962 36.0043 70.8815 36.487 69.2339 36.8087C65.3784 37.5487 60.9957 37.0339 57.5686 35.1034C56.6459 34.5886 55.7232 34.0738 54.8005 33.5268C52.9881 32.4972 51.1757 31.4998 49.3963 30.4701C46.9578 29.0866 44.5193 27.7352 42.0808 26.3517C39.2798 24.7751 36.5117 23.1985 33.7107 21.6219C30.8438 20.0131 27.944 18.3722 25.0771 16.7634C22.375 15.2512 19.6728 13.7067 16.9377 12.1945C14.664 10.9075 12.3903 9.62046 10.0836 8.33344C8.50183 7.43253 6.92009 6.53162 5.3054 5.6307C4.6793 5.27677 4.02024 4.92284 3.39414 4.56891C1.71355 3.60365 0.0329528 2.05923 0.0329528 -4.90958e-07C0.0329528 2.83144 0.0329528 5.6307 -4.91029e-10 8.46214C-4.91029e-10 9.87786 -4.91029e-10 11.2936 -4.91029e-10 12.7093C-4.91029e-10 13.1919 0 13.7067 0.164764 14.1894C0.560198 15.5407 1.64764 16.6025 2.83394 17.3747C3.75662 17.9539 4.71225 18.4687 5.66789 18.9835C7.77687 20.174 9.85289 21.3645 11.9619 22.5228C14.9276 24.1959 17.9263 25.8691 20.8921 27.5744C24.3192 29.5049 27.7133 31.4354 31.1404 33.3659C34.5016 35.2643 37.8957 37.1626 41.2569 39.061C44.1568 40.7019 47.0896 42.3429 49.9894 43.9838C51.9666 45.0778 53.9108 46.2039 55.888 47.2979C57.3709 48.1345 58.7878 48.971 60.4355 49.4536C63.599 50.4189 67.2567 50.4833 70.4531 49.6145C71.7053 49.2606 72.9246 48.8101 74.045 48.1666C75.3631 47.4266 76.6483 46.6866 77.9664 45.9465C80.4378 44.563 82.9093 43.1473 85.3478 41.7637C88.5442 39.9619 91.7407 38.1279 94.9371 36.3261C98.3642 34.3634 101.824 32.4328 105.251 30.4701C108.514 28.6361 111.776 26.77 115.005 24.936C117.576 23.4559 120.179 22.008 122.749 20.5279C124.232 19.6914 125.715 18.8548 127.198 17.9861C127.56 17.7608 127.956 17.5678 128.318 17.3426C129.538 16.5382 130.625 15.412 130.955 13.9963C131.053 13.578 131.053 13.1276 131.053 12.7093C131.053 9.36306 131.086 6.04898 131.086 2.70274C131.086 1.834 131.086 0.965264 131.086 0.0643519C131.152 0.128703 131.152 0.193053 131.152 0.257404Z" transform="translate(130.297 49.8176) rotate(180)" fill="#3B407F"/>
<g filter="url(#filter0_f)">
<path d="M111.197 26.5079C115.07 28.554 115.098 31.8855 111.254 33.9317L64.2321 58.905C60.3877 60.9511 54.1047 60.9511 50.2317 58.905L2.92282 33.9054C-0.950247 31.8593 -0.978936 28.5278 2.86544 26.4817L49.8874 1.5346C53.7318 -0.511533 60.0147 -0.511533 63.8878 1.5346L111.197 26.5079Z" transform="translate(121.78 74.5042) rotate(180)" fill="#149CF9"/>
</g>
</g>
<defs>
<filter id="filter0_f" x="-2.3392" y="4.06459" width="134.119" height="80.4396" filterUnits="userSpaceOnUse" color-interpolation-filters="sRGB">
<feFlood flood-opacity="0" result="BackgroundImageFix"/>
<feBlend mode="normal" in="SourceGraphic" in2="BackgroundImageFix" result="shape"/>
<feGaussianBlur stdDeviation="5" result="effect1_foregroundBlur"/>
</filter>
</defs>
</svg>
