<svg width="234" height="288" viewBox="0 0 234 288" fill="none" xmlns="http://www.w3.org/2000/svg">
<path d="M226.414 57.2183C229.779 59.1236 233.079 62.1458 233.804 66.1535C234.464 69.8328 232.551 73.1835 229.911 75.5487C228.195 77.0598 226.216 78.111 224.236 79.2936C221.596 80.8047 219.023 82.3158 216.383 83.827C212.424 86.1265 208.53 88.3603 204.571 90.6598C199.754 93.4192 195.002 96.1786 190.185 99.0038C185.104 101.96 180.023 104.851 174.941 107.808C170.058 110.633 165.109 113.458 160.226 116.349C156.068 118.78 151.911 121.145 147.753 123.576C144.784 125.284 141.814 126.992 138.845 128.7C137.657 129.423 136.469 130.08 135.215 130.803C128.22 134.811 119.576 135.796 111.657 134.745C106.972 134.154 102.55 132.708 98.5248 130.343C96.5451 129.226 94.5654 128.043 92.5857 126.926C89.0882 124.89 85.5907 122.919 82.0933 120.882C77.5399 118.254 72.9866 115.626 68.4333 113.064C63.4181 110.173 58.4028 107.282 53.3876 104.391C48.3063 101.5 43.2911 98.6096 38.2099 95.653C33.7225 93.0907 29.1692 90.4627 24.6819 87.9004C21.1844 85.8637 17.6209 83.827 14.1235 81.8559C12.1438 80.739 10.1641 79.6221 8.25035 78.4395C4.48891 76.2714 0.661489 73.3149 0.0675787 68.7159C-0.592322 63.3941 3.69703 59.4521 7.85441 57.0212C9.63614 55.97 11.4179 54.9845 13.1996 53.9333C16.5651 51.9622 19.9306 50.0569 23.2301 48.0859C27.7174 45.5236 32.1388 42.9613 36.6261 40.3333C41.6413 37.4424 46.5906 34.5516 51.6058 31.6608C56.6871 28.7043 61.7683 25.8135 66.7836 22.8569C71.3369 20.2289 75.8902 17.6009 80.5095 14.9072C84.1389 12.8048 87.7684 10.7024 91.3979 8.59994C93.5095 7.35163 95.6212 6.16903 97.7329 4.92072C101.362 2.8183 105.19 1.37289 109.347 0.650189C117.728 -0.795221 127.164 0.0588846 134.687 4.32941C135.743 4.92072 136.799 5.57772 137.855 6.16903C140.692 7.81154 143.53 9.45405 146.368 11.0966C150.459 13.4618 154.55 15.827 158.642 18.1922C163.525 20.9516 168.342 23.7767 173.226 26.5362C178.307 29.4927 183.454 32.3835 188.535 35.34C193.353 38.0994 198.236 40.9246 203.053 43.684C207.144 46.0492 211.17 48.3487 215.261 50.7139C218.033 52.2907 220.804 53.9333 223.576 55.5101C224.5 56.1014 225.49 56.6927 226.414 57.2183Z" transform="translate(0 152)" fill="#2D325D"/>
<g filter="url(#filter0_d)">
<path d="M115.75 0.228191C115.619 2.64054 113.627 4.23791 111.7 5.34629C110.72 5.90048 109.74 6.48727 108.793 7.04145C107.095 8.01943 105.364 9.03 103.666 10.008C101.477 11.2794 99.289 12.5507 97.1007 13.8221C94.6512 15.2565 92.2016 16.6582 89.752 18.0926C87.3025 19.527 84.8529 20.9288 82.4033 22.3631C80.1824 23.6671 77.9615 24.9385 75.7405 26.2424C74.0095 27.253 72.2785 28.2636 70.5474 29.2742C69.535 29.861 68.4898 30.4478 67.4773 31.0672C65.5177 32.2081 63.3947 32.9579 61.1411 33.2839C57.1238 33.8381 52.7146 33.3817 49.1546 31.3279C48.4687 30.9367 47.8155 30.5455 47.1296 30.1544C45.6599 29.3068 44.1575 28.4592 42.6877 27.579C40.6301 26.4054 38.5725 25.1993 36.5148 24.0257C34.1306 22.6565 31.7137 21.2547 29.3294 19.8856C26.8472 18.4512 24.365 17.0168 21.9154 15.6151C19.5965 14.2785 17.2449 12.9419 14.926 11.6054C12.9664 10.497 11.0394 9.35601 9.07972 8.24763C7.77328 7.49785 6.43419 6.71547 5.12775 5.96568C4.40922 5.54189 3.69068 5.15069 3.0048 4.6943C1.43708 3.61852 0.0653217 1.98855 0.0653217 -7.95882e-06C0.0653217 2.21675 0.0653217 4.4661 0.0326609 6.68285C0.0326609 10.2362 9.73351e-10 13.7569 9.73351e-10 17.3102C9.73351e-10 18.0926 9.73351e-10 18.875 9.73351e-10 19.69C9.73351e-10 22.0371 1.79635 23.7975 3.72334 24.9059C4.6705 25.4601 5.61767 25.9816 6.53217 26.5358C8.85109 27.8724 11.1374 29.1764 13.4563 30.513C16.5591 32.3059 19.6292 34.0663 22.732 35.8592C26.0634 37.7826 29.3621 39.6734 32.6935 41.5967C35.633 43.2919 38.6051 44.9871 41.5446 46.7148C43.5369 47.8558 45.5619 49.0294 47.5542 50.1703C48.0115 50.4311 48.5014 50.7245 48.9586 50.9853C50.2977 51.7677 51.7348 52.3219 53.2372 52.6805C57.7771 53.7563 63.0028 53.3977 67.0854 51.0179C68.3592 50.2681 69.6329 49.5509 70.8741 48.8012C73.3889 47.3342 75.9038 45.8672 78.4187 44.4329C81.6195 42.5747 84.8202 40.7165 87.9883 38.891C91.2544 37.0002 94.5532 35.0769 97.8193 33.1861C100.595 31.5887 103.372 29.9588 106.148 28.3614C107.846 27.3834 109.545 26.3728 111.243 25.3949C111.504 25.2319 111.765 25.1015 112.059 24.9385C113.954 23.8301 115.685 22.1023 115.717 19.7878C115.75 17.3102 115.717 14.8001 115.75 12.3225C115.75 8.86702 115.783 5.44409 115.783 1.98856C115.783 1.36918 115.783 0.782375 115.783 0.162989C115.75 0.09779 115.75 0.162993 115.75 0.228191Z" transform="translate(58.6623 203.702)" fill="#3B407F"/>
</g>
<path d="M112.067 28.3906C113.732 29.336 115.366 30.8356 115.725 32.8241C116.051 34.6497 115.104 36.3123 113.798 37.4858C112.949 38.2356 111.969 38.7572 110.989 39.344C109.683 40.0938 108.409 40.8436 107.102 41.5933C105.143 42.7343 103.216 43.8427 101.256 44.9837C98.8718 46.3528 96.5202 47.722 94.136 49.1238C91.6211 50.5908 89.1062 52.0251 86.5913 53.4921C84.1744 54.8939 81.7248 56.2956 79.3079 57.73C77.2503 58.9362 75.1927 60.1097 73.135 61.3159C71.6653 62.1635 70.1956 63.0111 68.7258 63.8587C68.1379 64.2173 67.55 64.5433 66.9295 64.9018C63.4674 66.8904 59.1888 67.3794 55.2695 66.8578C52.9506 66.5644 50.7623 65.8472 48.77 64.6736C47.7902 64.1195 46.8104 63.5327 45.8306 62.9785C44.0995 61.9679 42.3685 60.9899 40.6375 59.9794C38.3839 58.6754 36.1303 57.3714 33.8767 56.1C31.3944 54.6657 28.9122 53.2313 26.43 51.7969C23.9151 50.3625 21.4329 48.9282 18.918 47.4612C16.6971 46.1898 14.4435 44.8859 12.2225 43.6145C10.4915 42.6039 8.72781 41.5933 6.99679 40.6154C6.01696 40.0612 5.03714 39.507 4.08997 38.9202C2.2283 37.8444 0.333971 36.3774 0.0400233 34.0955C-0.319246 31.455 1.80371 29.499 3.86134 28.2928C4.74319 27.7712 5.62503 27.2822 6.50687 26.7607C8.17258 25.7827 9.83828 24.8373 11.4713 23.8593C13.6923 22.5879 15.8805 21.3166 18.1015 20.0126C20.5837 18.5782 23.0333 17.1439 25.5155 15.7095C28.0304 14.2425 30.5453 12.8081 33.0275 11.3412C35.2811 10.0372 37.5347 8.73323 39.8209 7.39666C41.6173 6.35348 43.4136 5.3103 45.21 4.26712C46.2551 3.64774 47.3003 3.06096 48.3454 2.44157C50.1418 1.39839 52.0361 0.681208 54.0938 0.322615C58.2417 -0.39457 62.9122 0.0292134 66.6355 2.14817C67.1581 2.44156 67.6807 2.76756 68.2032 3.06096C69.6077 3.87594 71.0121 4.69092 72.4165 5.5059C74.4415 6.67948 76.4664 7.85305 78.4914 9.02663C80.9083 10.3958 83.2926 11.7976 85.7095 13.1667C88.2243 14.6337 90.7719 16.0681 93.2868 17.535C95.671 18.9042 98.0879 20.306 100.472 21.6752C102.497 22.8487 104.489 23.9897 106.514 25.1633C107.886 25.9457 109.258 26.7607 110.63 27.543C111.12 27.8364 111.61 28.0972 112.067 28.3906Z" transform="translate(58.6223 170.161)" fill="#444A9D"/>
<path d="M89.85 0.195598C89.752 2.02116 88.2496 3.29253 86.7472 4.14012C86.0287 4.56391 85.2775 4.98769 84.559 5.41148C83.2525 6.16126 81.9134 6.94365 80.607 7.69343C78.9086 8.67141 77.1776 9.682 75.4792 10.66C73.5849 11.7684 71.6579 12.8767 69.7636 13.9851C67.8366 15.0935 65.9423 16.2018 64.0153 17.3102C62.2842 18.3208 60.5532 19.3314 58.8222 20.342C57.4504 21.1244 56.1113 21.9067 54.7396 22.7217C53.9557 23.1781 53.1719 23.6345 52.3554 24.0909C50.7876 25.0037 49.1219 25.5579 47.3256 25.8187C44.2555 26.2098 40.8914 25.8512 38.1805 24.3191C37.6906 24.0583 37.2334 23.7649 36.7435 23.5041C35.6003 22.8521 34.4899 22.2001 33.3467 21.5481C31.7463 20.6354 30.1786 19.7226 28.5782 18.8098C26.7166 17.734 24.8549 16.6582 22.9932 15.5825C21.0662 14.4741 19.1066 13.3331 17.1796 12.2247C15.3506 11.1816 13.5216 10.1058 11.6926 9.0626C10.1575 8.18242 8.62247 7.30225 7.08741 6.42207C6.04226 5.83528 4.99711 5.21589 3.98462 4.62911C3.42939 4.30311 2.84149 4.00972 2.31892 3.65113C1.11047 2.80354 0.0326614 1.56477 0.0326614 0C0.0326614 1.76036 0.0326614 3.48812 0.0326614 5.24848C0.0326614 8.01942 0.0326606 10.7578 -2.49183e-07 13.5287C-2.49183e-07 14.1155 -2.49183e-07 14.7023 -2.49183e-07 15.2891C-2.49183e-07 17.1146 1.40442 18.4512 2.87415 19.3314C3.62535 19.7878 4.40921 20.2116 5.16041 20.6354C6.98942 21.6785 8.81843 22.7543 10.6474 23.7975C13.0643 25.1993 15.5139 26.601 17.9308 28.0028C20.511 29.5024 23.0912 30.9693 25.6714 32.4689C27.9577 33.7729 30.244 35.1095 32.4976 36.4134C34 37.2936 35.535 38.1738 37.0374 39.0214C37.364 39.217 37.6906 39.4126 38.0499 39.6082C39.193 40.2601 40.4668 40.7165 41.7732 40.9773C45.17 41.6945 49.0239 41.3359 52.0614 39.5756C53.0412 39.0214 54.021 38.4346 55.0009 37.8804C56.9605 36.7394 58.9528 35.5984 60.9125 34.4575C63.3947 33.0231 65.8769 31.5887 68.3592 30.1544C70.9067 28.6874 73.4869 27.1878 76.0345 25.7209C78.1901 24.4821 80.3457 23.2107 82.534 21.9719C83.8404 21.2222 85.1469 20.4724 86.4533 19.69C88.119 18.7446 89.8174 17.4732 89.85 15.3543C89.8827 13.4309 89.85 11.5076 89.85 9.6168C89.85 6.94365 89.85 4.23791 89.8827 1.56476C89.8827 1.07577 89.8827 0.586784 89.8827 0.097794C89.85 0.0651946 89.85 0.130399 89.85 0.195598Z" transform="translate(71.596 185.251)" fill="#149CF9"/>
<g filter="url(#filter1_f)">
<path d="M89.85 0.195598C89.752 2.02116 88.2496 3.29253 86.7472 4.14012C86.0287 4.56391 85.2775 4.98769 84.559 5.41148C83.2525 6.16126 81.9134 6.94365 80.607 7.69343C78.9086 8.67141 77.1776 9.682 75.4792 10.66C73.5849 11.7684 71.6579 12.8767 69.7636 13.9851C67.8366 15.0935 65.9423 16.2018 64.0153 17.3102C62.2842 18.3208 60.5532 19.3314 58.8222 20.342C57.4504 21.1244 56.1113 21.9067 54.7396 22.7217C53.9557 23.1781 53.1719 23.6345 52.3554 24.0909C50.7876 25.0037 49.1219 25.5579 47.3256 25.8187C44.2555 26.2098 40.8914 25.8512 38.1805 24.3191C37.6906 24.0583 37.2334 23.7649 36.7435 23.5041C35.6003 22.8521 34.4899 22.2001 33.3467 21.5481C31.7463 20.6354 30.1786 19.7226 28.5782 18.8098C26.7166 17.734 24.8549 16.6582 22.9932 15.5825C21.0662 14.4741 19.1066 13.3331 17.1796 12.2247C15.3506 11.1816 13.5216 10.1058 11.6926 9.0626C10.1575 8.18242 8.62247 7.30225 7.08741 6.42207C6.04226 5.83528 4.99711 5.21589 3.98462 4.62911C3.42939 4.30311 2.84149 4.00972 2.31892 3.65113C1.11047 2.80354 0.0326614 1.56477 0.0326614 0C0.0326614 1.76036 0.0326614 3.48812 0.0326614 5.24848C0.0326614 8.01942 0.0326606 10.7578 -2.49183e-07 13.5287C-2.49183e-07 14.1155 -2.49183e-07 14.7023 -2.49183e-07 15.2891C-2.49183e-07 17.1146 1.40442 18.4512 2.87415 19.3314C3.62535 19.7878 4.40921 20.2116 5.16041 20.6354C6.98942 21.6785 8.81843 22.7543 10.6474 23.7975C13.0643 25.1993 15.5139 26.601 17.9308 28.0028C20.511 29.5024 23.0912 30.9693 25.6714 32.4689C27.9577 33.7729 30.244 35.1095 32.4976 36.4134C34 37.2936 35.535 38.1738 37.0374 39.0214C37.364 39.217 37.6906 39.4126 38.0499 39.6082C39.193 40.2601 40.4668 40.7165 41.7732 40.9773C45.17 41.6945 49.0239 41.3359 52.0614 39.5756C53.0412 39.0214 54.021 38.4346 55.0009 37.8804C56.9605 36.7394 58.9528 35.5984 60.9125 34.4575C63.3947 33.0231 65.8769 31.5887 68.3592 30.1544C70.9067 28.6874 73.4869 27.1878 76.0345 25.7209C78.1901 24.4821 80.3457 23.2107 82.534 21.9719C83.8404 21.2222 85.1469 20.4724 86.4533 19.69C88.119 18.7446 89.8174 17.4732 89.85 15.3543C89.8827 13.4309 89.85 11.5076 89.85 9.6168C89.85 6.94365 89.85 4.23791 89.8827 1.56476C89.8827 1.07577 89.8827 0.586784 89.8827 0.097794C89.85 0.0651946 89.85 0.130399 89.85 0.195598Z" transform="translate(71.596 185.251)" fill="#149CF9"/>
</g>
<path d="M86.9777 22.0149C88.2842 22.7646 89.5253 23.9056 89.8192 25.4378C90.0805 26.807 89.362 28.1109 88.3822 29.0237C87.7289 29.6431 86.9451 30.0669 86.1612 30.4907C85.1487 31.0775 84.1689 31.6316 83.1564 32.2184C81.654 33.0986 80.119 33.9788 78.6166 34.859C76.7876 35.9347 74.9585 36.9779 73.1295 38.0537C71.1699 39.1947 69.2102 40.3357 67.2506 41.444C65.3563 42.5198 63.4946 43.6282 61.6003 44.704C59.9999 45.6493 58.3995 46.5621 56.7665 47.5075C55.6233 48.1595 54.4802 48.8115 53.3697 49.4961C52.9125 49.7569 52.4226 50.0503 51.9653 50.3111C49.3198 51.8432 46.021 52.2018 43.0162 51.8432C41.1872 51.615 39.4889 51.0608 37.8885 50.1481C37.1373 49.7243 36.3861 49.2679 35.6349 48.8441C34.2958 48.0617 32.9567 47.2793 31.5849 46.5295C29.8539 45.519 28.0902 44.541 26.3592 43.5304C24.4322 42.422 22.4725 41.3136 20.5456 40.1727C18.6186 39.0643 16.6589 37.9233 14.7319 36.8149C13.0009 35.8043 11.2372 34.7938 9.50619 33.8158C8.16709 33.0334 6.79534 32.251 5.45624 31.4687C4.70504 31.0449 3.92118 30.5885 3.16998 30.1647C1.7329 29.3497 0.295825 28.2087 0.0345381 26.481C-0.25941 24.4272 1.37363 22.8624 3.00668 21.9496C3.69255 21.5585 4.34577 21.1673 5.03165 20.7761C6.30542 20.0263 7.61186 19.2765 8.88563 18.5267C10.584 17.5487 12.2824 16.5382 14.0134 15.5602C15.9404 14.4518 17.8674 13.3434 19.7944 12.2025C21.7213 11.0615 23.681 9.95311 25.608 8.81213C27.3717 7.80155 29.1354 6.75837 30.899 5.74779C32.3035 4.9328 33.6752 4.15042 35.0796 3.33544C35.8962 2.84645 36.7127 2.39006 37.5292 1.90107C38.901 1.11869 40.3707 0.564501 41.9384 0.271107C45.1718 -0.315681 48.7972 0.0103165 51.704 1.64028C52.1286 1.86848 52.5205 2.12927 52.9451 2.35746C54.0229 2.97685 55.1334 3.59624 56.2112 4.24823C57.7789 5.16101 59.3467 6.07379 60.947 6.98657C62.8087 8.06234 64.6704 9.13812 66.532 10.2139C68.4917 11.3549 70.4513 12.4632 72.411 13.6042C74.2727 14.68 76.1017 15.7232 77.9633 16.799C79.5311 17.7117 81.0988 18.5919 82.6665 19.5047C83.7443 20.1241 84.8221 20.7435 85.8673 21.3629C86.2265 21.5911 86.5858 21.8193 86.9777 22.0149Z" transform="translate(71.5941 159.227)" fill="#DCDCDC"/>
<path d="M115.75 0.228199C115.619 2.64055 113.627 4.23791 111.7 5.34628C110.72 5.90047 109.74 6.48726 108.793 7.04145C107.095 8.01943 105.364 9.03001 103.666 10.008C101.477 11.2794 99.289 12.5507 97.1007 13.8221C94.6512 15.2565 92.2016 16.6582 89.752 18.0926C87.3025 19.527 84.8529 20.9287 82.4033 22.3631C80.1824 23.6671 77.9615 24.9385 75.7405 26.2424C74.0095 27.253 72.2785 28.2636 70.5474 29.2742C69.535 29.861 68.4898 30.4478 67.4773 31.0671C65.5177 32.2081 63.3947 32.9579 61.1411 33.2839C57.1238 33.8381 52.7146 33.3817 49.1546 31.3279C48.4687 30.9367 47.8155 30.5456 47.1296 30.1544C45.6599 29.3068 44.1575 28.4592 42.6877 27.579C40.6301 26.4054 38.5725 25.1993 36.5148 24.0257C34.1306 22.6565 31.7137 21.2547 29.3294 19.8856C26.8472 18.4512 24.365 17.0168 21.9154 15.6151C19.5965 14.2785 17.2449 12.9419 14.926 11.6054C12.9664 10.497 11.0394 9.356 9.07972 8.24762C7.77328 7.49784 6.43419 6.71545 5.12775 5.96567C4.40922 5.54188 3.69068 5.15069 3.0048 4.6943C1.43708 3.61852 0.0653217 1.98856 0.0653217 0C0.0653217 2.21675 0.0653217 4.46611 0.0326609 6.68286C0.0326609 10.2362 9.73351e-10 13.7569 9.73351e-10 17.3102C9.73351e-10 18.0926 9.73351e-10 18.875 9.73351e-10 19.69C9.73351e-10 22.0371 1.79635 23.7975 3.72334 24.9059C4.6705 25.4601 5.61767 25.9817 6.53217 26.5358C8.85109 27.8724 11.1374 29.1764 13.4563 30.5129C16.5591 32.3059 19.6292 34.0663 22.732 35.8592C26.0634 37.7826 29.3621 39.6734 32.6935 41.5967C35.633 43.2919 38.6051 44.987 41.5446 46.7148C43.5369 47.8558 45.5619 49.0294 47.5542 50.1703C48.0115 50.4311 48.5014 50.7245 48.9586 50.9853C50.2977 51.7677 51.7348 52.3219 53.2372 52.6805C57.7771 53.7563 63.0028 53.3977 67.0854 51.0179C68.3592 50.2681 69.6329 49.551 70.8741 48.8012C73.3889 47.3342 75.9038 45.8672 78.4187 44.4329C81.6195 42.5747 84.8202 40.7165 87.9883 38.891C91.2544 37.0002 94.5532 35.0769 97.8193 33.1861C100.595 31.5887 103.372 29.9588 106.148 28.3614C107.846 27.3834 109.545 26.3728 111.243 25.3949C111.504 25.2319 111.765 25.1015 112.059 24.9385C113.954 23.8301 115.685 22.1023 115.717 19.7878C115.75 17.3102 115.717 14.8001 115.75 12.3225C115.75 8.86701 115.783 5.44409 115.783 1.98856C115.783 1.36917 115.783 0.782383 115.783 0.162997C115.75 0.0977979 115.75 0.163001 115.75 0.228199Z" transform="translate(58.6623 165.855)" fill="#3B407F"/>
<path d="M112.06 28.4232C113.726 29.3686 115.359 30.8682 115.718 32.8567C116.045 34.6823 115.098 36.3449 113.791 37.5184C112.942 38.2682 111.962 38.7898 110.982 39.3766C109.676 40.1264 108.402 40.8762 107.096 41.6259C105.136 42.7669 103.209 43.8753 101.249 45.0163C98.8652 46.3854 96.5136 47.7546 94.1294 49.1564C91.6145 50.6233 89.0996 52.0577 86.5847 53.5247C84.1678 54.9265 81.7183 56.3282 79.3014 57.7626C77.2437 58.9688 75.1861 60.1424 73.1284 61.3485C71.6587 62.1961 70.189 63.0437 68.7192 63.8913C68.1313 64.2499 67.5434 64.5759 66.9229 64.9344C63.4608 66.923 59.1823 67.412 55.263 66.8904C52.944 66.597 50.7558 65.8798 48.7634 64.7063C47.7836 64.1521 46.8038 63.5653 45.824 63.0111C44.0929 62.0005 42.3619 61.0225 40.6309 60.0119C38.3773 58.708 36.1237 57.404 33.8701 56.1326C31.3879 54.6983 28.9056 53.2639 26.4234 51.8295C23.9085 50.3952 21.4263 48.9608 18.9114 47.4938C16.6905 46.2224 14.4369 44.9185 12.2159 43.6471C10.4849 42.6365 8.72124 41.6259 6.99021 40.648C6.01038 40.0938 5.03056 39.5396 4.08339 38.9528C2.22172 37.877 0.327395 36.4101 0.0334471 34.1281C-0.293161 31.455 1.82979 29.499 3.88743 28.2928C4.76927 27.7712 5.65111 27.2822 6.53296 26.7607C8.19866 25.7827 9.86437 24.8373 11.4974 23.8593C13.7183 22.5879 15.9066 21.3166 18.1276 20.0126C20.6098 18.5782 23.0594 17.1439 25.5416 15.7095C28.0565 14.2425 30.5714 12.8081 33.0536 11.3412C35.3072 10.0372 37.5608 8.73324 39.847 7.39667C41.6434 6.35349 43.4397 5.31031 45.2361 4.26713C46.2812 3.64774 47.3264 3.06095 48.3715 2.44157C50.1679 1.39839 52.0622 0.681204 54.1198 0.322611C58.2678 -0.394574 62.9383 0.0292194 66.6616 2.14817C67.1842 2.44157 67.7067 2.76756 68.2293 3.06095C69.6337 3.87593 71.0382 4.69092 72.4426 5.5059C74.4675 6.67948 76.4925 7.85306 78.5175 9.02663C80.9344 10.3958 83.3186 11.7976 85.7355 13.1667C88.2504 14.6337 90.798 16.0681 93.3129 17.535C95.6971 18.9042 98.114 20.306 100.498 21.6752C102.523 22.8487 104.516 23.9897 106.541 25.1633C107.912 25.9457 109.284 26.7607 110.656 27.543C111.113 27.869 111.603 28.1298 112.06 28.4232Z" transform="translate(58.6288 132.281)" fill="#444A9D"/>
<path d="M89.85 0.195596C89.752 2.02116 88.2496 3.29253 86.7472 4.14011C86.0287 4.56391 85.2775 4.98769 84.559 5.41149C83.2525 6.16127 81.9134 6.94365 80.607 7.69344C78.9086 8.67142 77.1776 9.682 75.4792 10.66C73.5849 11.7684 71.6579 12.8767 69.7636 13.9851C67.8366 15.0935 65.9423 16.2019 64.0153 17.3102C62.2842 18.3208 60.5532 19.3314 58.8222 20.342C57.4504 21.1243 56.1113 21.9067 54.7396 22.7217C53.9557 23.1781 53.1719 23.6345 52.3554 24.0909C50.7876 25.0037 49.1219 25.5579 47.3256 25.8187C44.2555 26.2098 40.8914 25.8513 38.1805 24.3191C37.6906 24.0583 37.2334 23.7649 36.7435 23.5041C35.6003 22.8521 34.4899 22.2001 33.3467 21.5481C31.7463 20.6354 30.1786 19.7226 28.5782 18.8098C26.7166 17.734 24.8549 16.6583 22.9932 15.5825C21.0662 14.4741 19.1066 13.3331 17.1796 12.2247C15.3506 11.1816 13.5216 10.1058 11.6926 9.06261C10.1575 8.18243 8.62247 7.30225 7.08741 6.42207C6.04226 5.83528 4.99711 5.21589 3.98462 4.6291C3.42939 4.30311 2.84149 4.00972 2.31892 3.65112C1.11047 2.80354 0.0326614 1.56476 0.0326614 -1.9897e-06C0.0326614 1.76036 0.0326614 3.48813 0.0326614 5.24849C0.0326614 8.01943 0.0326606 10.7578 -2.49183e-07 13.5287C-2.49183e-07 14.1155 -2.49183e-07 14.7023 -2.49183e-07 15.2891C-2.49183e-07 17.1146 1.40442 18.4512 2.87415 19.3314C3.62535 19.7878 4.40921 20.2116 5.16041 20.6354C6.98942 21.6785 8.81843 22.7543 10.6474 23.7975C13.0643 25.1993 15.5139 26.601 17.9308 28.0028C20.511 29.5024 23.0912 30.9693 25.6714 32.4689C27.9577 33.7729 30.244 35.1095 32.4976 36.4134C34 37.2936 35.535 38.1738 37.0374 39.0214C37.364 39.217 37.6906 39.4126 38.0499 39.6082C39.193 40.2602 40.4668 40.7165 41.7732 40.9773C45.17 41.6945 49.0239 41.3359 52.0614 39.5756C53.0412 39.0214 54.021 38.4346 55.0009 37.8804C56.9605 36.7394 58.9528 35.5984 60.9125 34.4575C63.3947 33.0231 65.8769 31.5887 68.3592 30.1544C70.9067 28.6874 73.4869 27.1878 76.0345 25.7209C78.1901 24.4821 80.3457 23.2107 82.534 21.9719C83.8404 21.2221 85.1469 20.4724 86.4533 19.69C88.119 18.7446 89.8174 17.4732 89.85 15.3543C89.8827 13.4309 89.85 11.5076 89.85 9.61679C89.85 6.94365 89.85 4.23791 89.8827 1.56477C89.8827 1.07578 89.8827 0.586792 89.8827 0.0978019C89.85 0.0978019 89.85 0.130397 89.85 0.195596Z" transform="translate(71.596 147.403)" fill="#149CF9"/>
<g filter="url(#filter2_f)">
<path d="M89.85 0.195596C89.752 2.02116 88.2496 3.29253 86.7472 4.14011C86.0287 4.56391 85.2775 4.98769 84.559 5.41149C83.2525 6.16127 81.9134 6.94365 80.607 7.69344C78.9086 8.67142 77.1776 9.682 75.4792 10.66C73.5849 11.7684 71.6579 12.8767 69.7636 13.9851C67.8366 15.0935 65.9423 16.2019 64.0153 17.3102C62.2842 18.3208 60.5532 19.3314 58.8222 20.342C57.4504 21.1243 56.1113 21.9067 54.7396 22.7217C53.9557 23.1781 53.1719 23.6345 52.3554 24.0909C50.7876 25.0037 49.1219 25.5579 47.3256 25.8187C44.2555 26.2098 40.8914 25.8513 38.1805 24.3191C37.6906 24.0583 37.2334 23.7649 36.7435 23.5041C35.6003 22.8521 34.4899 22.2001 33.3467 21.5481C31.7463 20.6354 30.1786 19.7226 28.5782 18.8098C26.7166 17.734 24.8549 16.6583 22.9932 15.5825C21.0662 14.4741 19.1066 13.3331 17.1796 12.2247C15.3506 11.1816 13.5216 10.1058 11.6926 9.06261C10.1575 8.18243 8.62247 7.30225 7.08741 6.42207C6.04226 5.83528 4.99711 5.21589 3.98462 4.6291C3.42939 4.30311 2.84149 4.00972 2.31892 3.65112C1.11047 2.80354 0.0326614 1.56476 0.0326614 -1.9897e-06C0.0326614 1.76036 0.0326614 3.48813 0.0326614 5.24849C0.0326614 8.01943 0.0326606 10.7578 -2.49183e-07 13.5287C-2.49183e-07 14.1155 -2.49183e-07 14.7023 -2.49183e-07 15.2891C-2.49183e-07 17.1146 1.40442 18.4512 2.87415 19.3314C3.62535 19.7878 4.40921 20.2116 5.16041 20.6354C6.98942 21.6785 8.81843 22.7543 10.6474 23.7975C13.0643 25.1993 15.5139 26.601 17.9308 28.0028C20.511 29.5024 23.0912 30.9693 25.6714 32.4689C27.9577 33.7729 30.244 35.1095 32.4976 36.4134C34 37.2936 35.535 38.1738 37.0374 39.0214C37.364 39.217 37.6906 39.4126 38.0499 39.6082C39.193 40.2602 40.4668 40.7165 41.7732 40.9773C45.17 41.6945 49.0239 41.3359 52.0614 39.5756C53.0412 39.0214 54.021 38.4346 55.0009 37.8804C56.9605 36.7394 58.9528 35.5984 60.9125 34.4575C63.3947 33.0231 65.8769 31.5887 68.3592 30.1544C70.9067 28.6874 73.4869 27.1878 76.0345 25.7209C78.1901 24.4821 80.3457 23.2107 82.534 21.9719C83.8404 21.2221 85.1469 20.4724 86.4533 19.69C88.119 18.7446 89.8174 17.4732 89.85 15.3543C89.8827 13.4309 89.85 11.5076 89.85 9.61679C89.85 6.94365 89.85 4.23791 89.8827 1.56477C89.8827 1.07578 89.8827 0.586792 89.8827 0.0978019C89.85 0.0978019 89.85 0.130397 89.85 0.195596Z" transform="translate(71.596 147.403)" fill="#149CF9"/>
</g>
<path d="M86.9777 22.0475C88.2842 22.7972 89.5253 23.9382 89.8192 25.4704C90.0805 26.8396 89.362 28.1435 88.3822 29.0563C87.7289 29.6757 86.9451 30.0995 86.1612 30.5233C85.1487 31.1101 84.1689 31.6642 83.1564 32.251C81.654 33.1312 80.119 34.0114 78.6166 34.8916C76.7876 35.9674 74.9585 37.0105 73.1295 38.0863C71.1699 39.2273 69.2102 40.3683 67.2506 41.4766C65.3563 42.5524 63.4946 43.6608 61.6003 44.7366C59.9999 45.6819 58.3995 46.5947 56.7665 47.5401C55.6233 48.1921 54.4802 48.8441 53.3697 49.5287C52.9125 49.7895 52.4226 50.0829 51.9653 50.3437C49.3198 51.8758 46.021 52.2344 43.0162 51.8758C41.1872 51.6476 39.4889 51.0934 37.8885 50.1807C37.1373 49.7569 36.3861 49.3005 35.6349 48.8767C34.2958 48.0943 32.9567 47.3119 31.5849 46.5621C29.8539 45.5516 28.0902 44.5736 26.3592 43.563C24.4322 42.4546 22.4725 41.3462 20.5456 40.2053C18.6186 39.0969 16.6589 37.9559 14.7319 36.8475C13.0009 35.837 11.2372 34.8264 9.50619 33.8484C8.16709 33.066 6.79534 32.2836 5.45624 31.5013C4.70504 31.0775 3.92118 30.6211 3.16998 30.1973C1.7329 29.3823 0.295825 28.2413 0.0345381 26.5136C-0.25941 24.4272 1.37363 22.895 3.00668 21.9496C3.69255 21.5585 4.34577 21.1673 5.03165 20.7761C6.30542 20.0263 7.61186 19.2765 8.88563 18.5267C10.584 17.5487 12.2824 16.5382 14.0134 15.5602C15.9404 14.4518 17.8674 13.3434 19.7944 12.2025C21.7213 11.0615 23.681 9.9531 25.608 8.81213C27.3717 7.80155 29.1354 6.75837 30.899 5.7478C32.3035 4.93281 33.6752 4.15042 35.0796 3.33544C35.8962 2.84645 36.7127 2.39006 37.5292 1.90107C38.901 1.11869 40.3707 0.564499 41.9384 0.271105C45.1718 -0.315683 48.7972 0.0103144 51.704 1.64028C52.1286 1.86848 52.5205 2.12926 52.9451 2.35746C54.0229 2.97685 55.1334 3.59624 56.2112 4.24823C57.7789 5.16101 59.3467 6.07379 60.947 6.98657C62.8087 8.06234 64.6704 9.13812 66.532 10.2139C68.4917 11.3549 70.4513 12.4632 72.411 13.6042C74.2727 14.68 76.1017 15.7232 77.9633 16.799C79.5311 17.7117 81.0988 18.5919 82.6665 19.5047C83.7443 20.1241 84.8221 20.7435 85.8673 21.3629C86.2265 21.5911 86.5858 21.8193 86.9777 22.0475Z" transform="translate(71.5941 121.379)" fill="#DCDCDC"/>
<path d="M115.75 0.228193C115.619 2.64054 113.627 4.23791 111.7 5.34629C110.72 5.90048 109.74 6.48726 108.793 7.04145C107.095 8.01943 105.364 9.03001 103.666 10.008C101.477 11.2794 99.289 12.5507 97.1007 13.8221C94.6512 15.2565 92.2016 16.6583 89.752 18.0926C87.3025 19.527 84.8529 20.9288 82.4033 22.3631C80.1824 23.6671 77.9615 24.9385 75.7405 26.2424C74.0095 27.253 72.2785 28.2636 70.5474 29.2742C69.535 29.861 68.4898 30.4478 67.4773 31.0671C65.5177 32.2081 63.3947 32.9579 61.1411 33.2839C57.1238 33.8381 52.7146 33.3817 49.1546 31.3279C48.4687 30.9367 47.8155 30.5456 47.1296 30.1544C45.6599 29.3068 44.1575 28.4592 42.6877 27.579C40.6301 26.4054 38.5725 25.1993 36.5148 24.0257C34.1306 22.6565 31.7137 21.2548 29.3294 19.8856C26.8472 18.4512 24.365 17.0168 21.9154 15.6151C19.5965 14.2785 17.2449 12.9419 14.926 11.6053C12.9664 10.497 11.0394 9.356 9.07972 8.24763C7.77328 7.49784 6.43419 6.71546 5.12775 5.96567C4.40922 5.54188 3.69068 5.15069 3.0048 4.6943C1.43708 3.61853 0.0653217 1.98856 0.0653217 3.97941e-06C0.0653217 2.21676 0.0653217 4.46611 0.0326609 6.68286C0.0326609 10.2362 9.73351e-10 13.7569 9.73351e-10 17.3102C9.73351e-10 18.0926 9.73351e-10 18.875 9.73351e-10 19.69C9.73351e-10 22.0371 1.79635 23.7975 3.72334 24.9059C4.6705 25.4601 5.61767 25.9817 6.53217 26.5358C8.85109 27.8724 11.1374 29.1764 13.4563 30.513C16.5591 32.3059 19.6292 34.0663 22.732 35.8592C26.0634 37.7826 29.3621 39.6734 32.6935 41.5967C35.633 43.2919 38.6051 44.987 41.5446 46.7148C43.5369 47.8558 45.5619 49.0294 47.5542 50.1703C48.0115 50.4311 48.5014 50.7245 48.9586 50.9853C50.2977 51.7677 51.7348 52.3219 53.2372 52.6805C57.7771 53.7563 63.0028 53.3977 67.0854 51.0179C68.3592 50.2681 69.6329 49.5509 70.8741 48.8012C73.3889 47.3342 75.9038 45.8672 78.4187 44.4329C81.6195 42.5747 84.8202 40.7165 87.9883 38.891C91.2544 37.0002 94.5532 35.0769 97.8193 33.1861C100.595 31.5887 103.372 29.9588 106.148 28.3614C107.846 27.3834 109.545 26.3728 111.243 25.3949C111.504 25.2319 111.765 25.1015 112.059 24.9385C113.954 23.8301 115.685 22.1023 115.717 19.7878C115.75 17.3102 115.717 14.8001 115.75 12.3225C115.75 8.86701 115.783 5.44408 115.783 1.98855C115.783 1.36917 115.783 0.782387 115.783 0.163001C115.75 0.0978019 115.75 0.162995 115.75 0.228193Z" transform="translate(59 129)" fill="#3B407F"/>
<path d="M112.067 28.3906C113.732 29.336 115.366 30.8356 115.725 32.8241C116.051 34.6497 115.104 36.3122 113.798 37.4858C112.949 38.2356 111.969 38.7572 110.989 39.344C109.683 40.0938 108.409 40.8436 107.102 41.5933C105.143 42.7343 103.216 43.8427 101.256 44.9837C98.8718 46.3528 96.5202 47.722 94.136 49.1238C91.6211 50.5907 89.1062 52.0251 86.5913 53.4921C84.1744 54.8939 81.7248 56.2956 79.3079 57.73C77.2503 58.9362 75.1927 60.1097 73.135 61.3159C71.6653 62.1635 70.1956 63.0111 68.7258 63.8587C68.1379 64.2173 67.55 64.5433 66.9295 64.9018C63.4674 66.8904 59.1888 67.3794 55.2695 66.8578C52.9506 66.5644 50.7623 65.8472 48.77 64.6737C47.7902 64.1195 46.8104 63.5327 45.8306 62.9785C44.0995 61.9679 42.3685 60.9899 40.6375 59.9793C38.3839 58.6754 36.1303 57.3714 33.8767 56.1C31.3944 54.6657 28.9122 53.2313 26.43 51.7969C23.9151 50.3626 21.4329 48.9282 18.918 47.4612C16.6971 46.1898 14.4435 44.8859 12.2225 43.6145C10.4915 42.6039 8.72781 41.5933 6.99679 40.6154C6.01696 40.0612 5.03714 39.507 4.08997 38.9202C2.2283 37.8444 0.333971 36.3774 0.0400233 34.0955C-0.319246 31.455 1.80371 29.499 3.86134 28.2928C4.74319 27.7712 5.62503 27.2822 6.50687 26.7607C8.17258 25.7827 9.83828 24.8373 11.4713 23.8593C13.6923 22.5879 15.8805 21.3166 18.1015 20.0126C20.5837 18.5782 23.0333 17.1439 25.5155 15.7095C28.0304 14.2425 30.5453 12.8081 33.0275 11.3412C35.2811 10.0372 37.5347 8.73323 39.8209 7.39666C41.6173 6.35348 43.4136 5.3103 45.21 4.26713C46.2551 3.64774 47.3003 3.06095 48.3454 2.44157C50.1418 1.39839 52.0361 0.681205 54.0938 0.322612C58.2417 -0.394573 62.9122 0.0292154 66.6355 2.14817C67.1581 2.44156 67.6807 2.76756 68.2032 3.06095C69.6077 3.87594 71.0121 4.69092 72.4165 5.5059C74.4415 6.67948 76.4664 7.85305 78.4914 9.02663C80.9083 10.3958 83.2926 11.7976 85.7095 13.1667C88.2243 14.6337 90.7719 16.0681 93.2868 17.535C95.671 18.9042 98.0879 20.306 100.472 21.6752C102.497 22.8487 104.489 23.9897 106.514 25.1633C107.886 25.9457 109.258 26.7607 110.63 27.543C111.12 27.8364 111.61 28.0972 112.067 28.3906Z" transform="translate(58.6223 97.0523)" fill="#444A9D"/>
<path d="M89.85 0.1956C89.752 2.02116 88.2496 3.29253 86.7472 4.14011C86.0287 4.5639 85.2775 4.9877 84.559 5.41149C83.2525 6.16127 81.9134 6.94366 80.607 7.69344C78.9086 8.67142 77.1776 9.68199 75.4792 10.66C73.5849 11.7683 71.6579 12.8767 69.7636 13.9851C67.8366 15.0935 65.9423 16.2019 64.0153 17.3102C62.2842 18.3208 60.5532 19.3314 58.8222 20.342C57.4504 21.1244 56.1113 21.9067 54.7396 22.7217C53.9557 23.1781 53.1719 23.6345 52.3554 24.0909C50.7876 25.0037 49.1219 25.5579 47.3256 25.8186C44.2555 26.2098 40.8914 25.8513 38.1805 24.3191C37.6906 24.0583 37.2334 23.7649 36.7435 23.5041C35.6003 22.8521 34.4899 22.2001 33.3467 21.5481C31.7463 20.6354 30.1786 19.7226 28.5782 18.8098C26.7166 17.734 24.8549 16.6582 22.9932 15.5825C21.0662 14.4741 19.1066 13.3331 17.1796 12.2247C15.3506 11.1816 13.5216 10.1058 11.6926 9.06261C10.1575 8.18242 8.62247 7.30224 7.08741 6.42206C6.04226 5.83527 4.99711 5.21589 3.98462 4.6291C3.42939 4.3031 2.84149 4.00971 2.31892 3.65112C1.11047 2.80354 0.0326614 1.56477 0.0326614 1.9897e-06C0.0326614 1.76036 0.0326614 3.48813 0.0326614 5.24849C0.0326614 8.01943 0.0326606 10.7578 -2.49183e-07 13.5287C-2.49183e-07 14.1155 -2.49183e-07 14.7023 -2.49183e-07 15.2891C-2.49183e-07 17.1146 1.40442 18.4512 2.87415 19.3314C3.62535 19.7878 4.40921 20.2116 5.16041 20.6354C6.98942 21.6785 8.81843 22.7543 10.6474 23.7975C13.0643 25.1993 15.5139 26.601 17.9308 28.0028C20.511 29.5024 23.0912 30.9693 25.6714 32.4689C27.9577 33.7729 30.244 35.1095 32.4976 36.4134C34 37.2936 35.535 38.1738 37.0374 39.0214C37.364 39.217 37.6906 39.4126 38.0499 39.6082C39.193 40.2602 40.4668 40.7165 41.7732 40.9773C45.17 41.6945 49.0239 41.3359 52.0614 39.5756C53.0412 39.0214 54.021 38.4346 55.0009 37.8804C56.9605 36.7394 58.9528 35.5984 60.9125 34.4575C63.3947 33.0231 65.8769 31.5887 68.3592 30.1544C70.9067 28.6874 73.4869 27.1878 76.0345 25.7209C78.1901 24.4821 80.3457 23.2107 82.534 21.9719C83.8404 21.2222 85.1469 20.4724 86.4533 19.69C88.119 18.7446 89.8174 17.4732 89.85 15.3543C89.8827 13.4309 89.85 11.5076 89.85 9.6168C89.85 6.94366 89.85 4.23791 89.8827 1.56476C89.8827 1.07578 89.8827 0.586786 89.8827 0.0977959C89.85 0.0651966 89.85 0.130401 89.85 0.1956Z" transform="translate(71.596 110.142)" fill="#149CF9"/>
<g filter="url(#filter3_f)">
<path d="M89.85 0.1956C89.752 2.02116 88.2496 3.29253 86.7472 4.14011C86.0287 4.5639 85.2775 4.9877 84.559 5.41149C83.2525 6.16127 81.9134 6.94366 80.607 7.69344C78.9086 8.67142 77.1776 9.68199 75.4792 10.66C73.5849 11.7683 71.6579 12.8767 69.7636 13.9851C67.8366 15.0935 65.9423 16.2019 64.0153 17.3102C62.2842 18.3208 60.5532 19.3314 58.8222 20.342C57.4504 21.1244 56.1113 21.9067 54.7396 22.7217C53.9557 23.1781 53.1719 23.6345 52.3554 24.0909C50.7876 25.0037 49.1219 25.5579 47.3256 25.8186C44.2555 26.2098 40.8914 25.8513 38.1805 24.3191C37.6906 24.0583 37.2334 23.7649 36.7435 23.5041C35.6003 22.8521 34.4899 22.2001 33.3467 21.5481C31.7463 20.6354 30.1786 19.7226 28.5782 18.8098C26.7166 17.734 24.8549 16.6582 22.9932 15.5825C21.0662 14.4741 19.1066 13.3331 17.1796 12.2247C15.3506 11.1816 13.5216 10.1058 11.6926 9.06261C10.1575 8.18242 8.62247 7.30224 7.08741 6.42206C6.04226 5.83527 4.99711 5.21589 3.98462 4.6291C3.42939 4.3031 2.84149 4.00971 2.31892 3.65112C1.11047 2.80354 0.0326614 1.56477 0.0326614 1.9897e-06C0.0326614 1.76036 0.0326614 3.48813 0.0326614 5.24849C0.0326614 8.01943 0.0326606 10.7578 -2.49183e-07 13.5287C-2.49183e-07 14.1155 -2.49183e-07 14.7023 -2.49183e-07 15.2891C-2.49183e-07 17.1146 1.40442 18.4512 2.87415 19.3314C3.62535 19.7878 4.40921 20.2116 5.16041 20.6354C6.98942 21.6785 8.81843 22.7543 10.6474 23.7975C13.0643 25.1993 15.5139 26.601 17.9308 28.0028C20.511 29.5024 23.0912 30.9693 25.6714 32.4689C27.9577 33.7729 30.244 35.1095 32.4976 36.4134C34 37.2936 35.535 38.1738 37.0374 39.0214C37.364 39.217 37.6906 39.4126 38.0499 39.6082C39.193 40.2602 40.4668 40.7165 41.7732 40.9773C45.17 41.6945 49.0239 41.3359 52.0614 39.5756C53.0412 39.0214 54.021 38.4346 55.0009 37.8804C56.9605 36.7394 58.9528 35.5984 60.9125 34.4575C63.3947 33.0231 65.8769 31.5887 68.3592 30.1544C70.9067 28.6874 73.4869 27.1878 76.0345 25.7209C78.1901 24.4821 80.3457 23.2107 82.534 21.9719C83.8404 21.2222 85.1469 20.4724 86.4533 19.69C88.119 18.7446 89.8174 17.4732 89.85 15.3543C89.8827 13.4309 89.85 11.5076 89.85 9.6168C89.85 6.94366 89.85 4.23791 89.8827 1.56476C89.8827 1.07578 89.8827 0.586786 89.8827 0.0977959C89.85 0.0651966 89.85 0.130401 89.85 0.1956Z" transform="translate(71.596 110.142)" fill="#149CF9"/>
</g>
<path d="M86.9777 22.0148C88.2842 22.7646 89.5253 23.9056 89.8192 25.4378C90.0805 26.8069 89.362 28.1109 88.3822 29.0237C87.7289 29.6431 86.9451 30.0669 86.1612 30.4907C85.1487 31.0775 84.1689 31.6316 83.1564 32.2184C81.654 33.0986 80.119 33.9788 78.6166 34.859C76.7876 35.9347 74.9585 36.9779 73.1295 38.0537C71.1699 39.1947 69.2102 40.3357 67.2506 41.444C65.3563 42.5198 63.4946 43.6282 61.6003 44.704C59.9999 45.6493 58.3995 46.5621 56.7665 47.5075C55.6233 48.1595 54.4802 48.8115 53.3697 49.4961C52.9125 49.7569 52.4226 50.0503 51.9653 50.311C49.3198 51.8432 46.021 52.2018 43.0162 51.8432C41.1872 51.615 39.4889 51.0608 37.8885 50.148C37.1373 49.7243 36.3861 49.2679 35.6349 48.8441C34.2958 48.0617 32.9567 47.2793 31.5849 46.5295C29.8539 45.519 28.0902 44.541 26.3592 43.5304C24.4322 42.422 22.4725 41.3136 20.5456 40.1727C18.6186 39.0643 16.6589 37.9233 14.7319 36.8149C13.0009 35.8044 11.2372 34.7938 9.50619 33.8158C8.16709 33.0334 6.79534 32.251 5.45624 31.4686C4.70504 31.0449 3.92118 30.5885 3.16998 30.1647C1.7329 29.3497 0.295825 28.2087 0.0345381 26.481C-0.25941 24.4272 1.37363 22.8624 3.00668 21.9496C3.69255 21.5585 4.34577 21.1673 5.03165 20.7761C6.30542 20.0263 7.61186 19.2765 8.88563 18.5267C10.584 17.5487 12.2824 16.5382 14.0134 15.5602C15.9404 14.4518 17.8674 13.3434 19.7944 12.2025C21.7213 11.0615 23.681 9.9531 25.608 8.81213C27.3717 7.80155 29.1354 6.75837 30.899 5.74779C32.3035 4.93281 33.6752 4.15042 35.0796 3.33544C35.8962 2.84645 36.7127 2.39006 37.5292 1.90107C38.901 1.11869 40.3707 0.564502 41.9384 0.271108C45.1718 -0.31568 48.7972 0.0103126 51.704 1.64028C52.1286 1.86847 52.5205 2.12927 52.9451 2.35746C54.0229 2.97685 55.1334 3.59624 56.2112 4.24822C57.7789 5.161 59.3467 6.07378 60.947 6.98656C62.8087 8.06234 64.6704 9.13812 66.532 10.2139C68.4917 11.3549 70.4513 12.4632 72.411 13.6042C74.2727 14.68 76.1017 15.7232 77.9633 16.799C79.5311 17.7117 81.0988 18.5919 82.6665 19.5047C83.7443 20.1241 84.8221 20.7435 85.8673 21.3629C86.2265 21.5585 86.5858 21.7867 86.9777 22.0148Z" transform="translate(71.5941 87.606)" fill="#DCDCDC"/>
<path d="M115.75 0.228193C115.619 2.64054 113.627 4.23791 111.7 5.34629C110.72 5.90048 109.74 6.48726 108.793 7.04145C107.095 8.01943 105.364 9.03001 103.666 10.008C101.477 11.2794 99.289 12.5507 97.1007 13.8221C94.6512 15.2565 92.2016 16.6583 89.752 18.0926C87.3025 19.527 84.8529 20.9288 82.4033 22.3631C80.1824 23.6671 77.9615 24.9385 75.7405 26.2424C74.0095 27.253 72.2785 28.2636 70.5474 29.2742C69.535 29.861 68.4898 30.4478 67.4773 31.0671C65.5177 32.2081 63.3947 32.9579 61.1411 33.2839C57.1238 33.8381 52.7146 33.3817 49.1546 31.3279C48.4687 30.9367 47.8155 30.5456 47.1296 30.1544C45.6599 29.3068 44.1575 28.4592 42.6877 27.579C40.6301 26.4054 38.5725 25.1993 36.5148 24.0257C34.1306 22.6565 31.7137 21.2548 29.3294 19.8856C26.8472 18.4512 24.365 17.0168 21.9154 15.6151C19.5965 14.2785 17.2449 12.9419 14.926 11.6053C12.9664 10.497 11.0394 9.356 9.07972 8.24763C7.77328 7.49784 6.43419 6.71546 5.12775 5.96567C4.40922 5.54188 3.69068 5.15069 3.0048 4.6943C1.43708 3.61853 0.0653217 1.98856 0.0653217 -9.94852e-07C0.0653217 2.21675 0.0653217 4.4661 0.0326609 6.68286C0.0326609 10.2362 9.73351e-10 13.7569 9.73351e-10 17.3102C9.73351e-10 18.0926 9.73351e-10 18.875 9.73351e-10 19.69C9.73351e-10 22.0371 1.79635 23.7975 3.72334 24.9059C4.6705 25.4601 5.61767 25.9817 6.53217 26.5358C8.85109 27.8724 11.1374 29.1764 13.4563 30.513C16.5591 32.3059 19.6292 34.0663 22.732 35.8592C26.0634 37.7826 29.3621 39.6734 32.6935 41.5967C35.633 43.2919 38.6051 44.987 41.5446 46.7148C43.5369 47.8558 45.5619 49.0294 47.5542 50.1703C48.0115 50.4311 48.5014 50.7245 48.9586 50.9853C50.2977 51.7677 51.7348 52.3219 53.2372 52.6805C57.7771 53.7563 63.0028 53.3977 67.0854 51.0179C68.3592 50.2681 69.6329 49.5509 70.8741 48.8012C73.3889 47.3342 75.9038 45.8672 78.4187 44.4329C81.6195 42.5747 84.8202 40.7165 87.9883 38.891C91.2544 37.0002 94.5532 35.0769 97.8193 33.1861C100.595 31.5887 103.372 29.9588 106.148 28.3614C107.846 27.3834 109.545 26.3728 111.243 25.3949C111.504 25.2319 111.765 25.1015 112.059 24.9385C113.954 23.8301 115.685 22.1023 115.717 19.7878C115.75 17.3102 115.717 14.8001 115.75 12.3225C115.75 8.86701 115.783 5.44409 115.783 1.98856C115.783 1.36917 115.783 0.782382 115.783 0.162996C115.75 0.0651976 115.75 0.130395 115.75 0.228193Z" transform="translate(58.6623 90.7784)" fill="#3B407F"/>
<path d="M112.067 28.3906C113.732 29.336 115.366 30.8356 115.725 32.8241C116.051 34.6497 115.104 36.3122 113.798 37.4858C112.949 38.2356 111.969 38.7572 110.989 39.344C109.683 40.0938 108.409 40.8436 107.102 41.5933C105.143 42.7343 103.216 43.8427 101.256 44.9837C98.8718 46.3528 96.5202 47.722 94.136 49.1238C91.6211 50.5908 89.1062 52.0251 86.5913 53.4921C84.1744 54.8939 81.7248 56.2956 79.3079 57.73C77.2503 58.9362 75.1927 60.1098 73.135 61.3159C71.6653 62.1635 70.1956 63.0111 68.7258 63.8587C68.1379 64.2173 67.55 64.5433 66.9295 64.9018C63.4674 66.8904 59.1888 67.3794 55.2695 66.8578C52.9506 66.5644 50.7623 65.8472 48.77 64.6737C47.7902 64.1195 46.8104 63.5327 45.8306 62.9785C44.0995 61.9679 42.3685 60.9899 40.6375 59.9794C38.3839 58.6754 36.1303 57.3714 33.8767 56.1C31.3944 54.6657 28.9122 53.2313 26.43 51.7969C23.9151 50.3626 21.4329 48.9282 18.918 47.4612C16.6971 46.1898 14.4435 44.8859 12.2225 43.6145C10.4915 42.6039 8.72781 41.5933 6.99679 40.6154C6.01696 40.0612 5.03714 39.507 4.08997 38.9202C2.2283 37.8444 0.333971 36.3774 0.0400233 34.0955C-0.319246 31.455 1.80371 29.499 3.86134 28.2928C4.74319 27.7712 5.62503 27.2822 6.50687 26.7607C8.17258 25.7827 9.83828 24.8373 11.4713 23.8593C13.6923 22.5879 15.8805 21.3166 18.1015 20.0126C20.5837 18.5782 23.0333 17.1439 25.5155 15.7095C28.0304 14.2425 30.5453 12.8081 33.0275 11.3412C35.2811 10.0372 37.5347 8.73324 39.8209 7.39666C41.6173 6.35349 43.4136 5.31031 45.21 4.26713C46.2551 3.64774 47.3003 3.06095 48.3454 2.44156C50.1418 1.39839 52.0361 0.681202 54.0938 0.322609C58.2417 -0.394576 62.9122 0.0292174 66.6355 2.14817C67.1581 2.44157 67.6807 2.76756 68.2032 3.06095C69.6077 3.87594 71.0121 4.69092 72.4165 5.5059C74.4415 6.67948 76.4664 7.85305 78.4914 9.02663C80.9083 10.3958 83.2926 11.7976 85.7095 13.1667C88.2243 14.6337 90.7719 16.0681 93.2868 17.535C95.671 18.9042 98.0879 20.306 100.472 21.6752C102.497 22.8487 104.489 23.9897 106.514 25.1633C107.886 25.9457 109.258 26.7607 110.63 27.543C111.12 27.8038 111.61 28.0972 112.067 28.3906Z" transform="translate(58.6223 60.6926)" fill="#444A9D"/>
<path d="M89.85 0.195598C89.752 2.02116 88.2496 3.29253 86.7472 4.14011C86.0287 4.5639 85.2775 4.9877 84.559 5.41149C83.2525 6.16127 81.9134 6.94366 80.607 7.69344C78.9086 8.67142 77.1776 9.68199 75.4792 10.66C73.5849 11.7683 71.6579 12.8767 69.7636 13.9851C67.8366 15.0935 65.9423 16.2019 64.0153 17.3102C62.2842 18.3208 60.5532 19.3314 58.8222 20.342C57.4504 21.1244 56.1113 21.9067 54.7396 22.7217C53.9557 23.1781 53.1719 23.6345 52.3554 24.0909C50.7876 25.0037 49.1219 25.5579 47.3256 25.8187C44.2555 26.2098 40.8914 25.8513 38.1805 24.3191C37.6906 24.0583 37.2334 23.7649 36.7435 23.5041C35.6003 22.8521 34.4899 22.2001 33.3467 21.5481C31.7463 20.6354 30.1786 19.7226 28.5782 18.8098C26.7166 17.734 24.8549 16.6582 22.9932 15.5825C21.0662 14.4741 19.1066 13.3331 17.1796 12.2247C15.3506 11.1816 13.5216 10.1058 11.6926 9.06261C10.1575 8.18243 8.62247 7.30224 7.08741 6.42206C6.04226 5.83528 4.99711 5.21589 3.98462 4.6291C3.42939 4.30311 2.84149 4.00971 2.31892 3.65112C1.11047 2.80354 0.0326614 1.56477 0.0326614 0C0.0326614 1.76036 0.0326614 3.48813 0.0326614 5.24849C0.0326614 8.01943 0.0326606 10.7578 -2.49183e-07 13.5287C-2.49183e-07 14.1155 -2.49183e-07 14.7023 -2.49183e-07 15.2891C-2.49183e-07 17.1146 1.40442 18.4512 2.87415 19.3314C3.62535 19.7878 4.40921 20.2116 5.16041 20.6354C6.98942 21.6785 8.81843 22.7543 10.6474 23.7975C13.0643 25.1993 15.5139 26.601 17.9308 28.0028C20.511 29.5024 23.0912 30.9693 25.6714 32.4689C27.9577 33.7729 30.244 35.1095 32.4976 36.4134C34 37.2936 35.535 38.1738 37.0374 39.0214C37.364 39.217 37.6906 39.4126 38.0499 39.6082C39.193 40.2601 40.4668 40.7165 41.7732 40.9773C45.17 41.6945 49.0239 41.3359 52.0614 39.5756C53.0412 39.0214 54.021 38.4346 55.0009 37.8804C56.9605 36.7394 58.9528 35.5984 60.9125 34.4575C63.3947 33.0231 65.8769 31.5887 68.3592 30.1544C70.9067 28.6874 73.4869 27.1878 76.0345 25.7209C78.1901 24.4821 80.3457 23.2107 82.534 21.9719C83.8404 21.2221 85.1469 20.4724 86.4533 19.69C88.119 18.7446 89.8174 17.4732 89.85 15.3543C89.8827 13.4309 89.85 11.5076 89.85 9.6168C89.85 6.94365 89.85 4.23791 89.8827 1.56477C89.8827 1.07578 89.8827 0.586789 89.8827 0.0977989C89.85 0.0977989 89.85 0.130399 89.85 0.195598Z" transform="translate(71.596 72.2946)" fill="#149CF9"/>
<g filter="url(#filter4_f)">
<path d="M89.85 0.195598C89.752 2.02116 88.2496 3.29253 86.7472 4.14011C86.0287 4.5639 85.2775 4.9877 84.559 5.41149C83.2525 6.16127 81.9134 6.94366 80.607 7.69344C78.9086 8.67142 77.1776 9.68199 75.4792 10.66C73.5849 11.7683 71.6579 12.8767 69.7636 13.9851C67.8366 15.0935 65.9423 16.2019 64.0153 17.3102C62.2842 18.3208 60.5532 19.3314 58.8222 20.342C57.4504 21.1244 56.1113 21.9067 54.7396 22.7217C53.9557 23.1781 53.1719 23.6345 52.3554 24.0909C50.7876 25.0037 49.1219 25.5579 47.3256 25.8187C44.2555 26.2098 40.8914 25.8513 38.1805 24.3191C37.6906 24.0583 37.2334 23.7649 36.7435 23.5041C35.6003 22.8521 34.4899 22.2001 33.3467 21.5481C31.7463 20.6354 30.1786 19.7226 28.5782 18.8098C26.7166 17.734 24.8549 16.6582 22.9932 15.5825C21.0662 14.4741 19.1066 13.3331 17.1796 12.2247C15.3506 11.1816 13.5216 10.1058 11.6926 9.06261C10.1575 8.18243 8.62247 7.30224 7.08741 6.42206C6.04226 5.83528 4.99711 5.21589 3.98462 4.6291C3.42939 4.30311 2.84149 4.00971 2.31892 3.65112C1.11047 2.80354 0.0326614 1.56477 0.0326614 0C0.0326614 1.76036 0.0326614 3.48813 0.0326614 5.24849C0.0326614 8.01943 0.0326606 10.7578 -2.49183e-07 13.5287C-2.49183e-07 14.1155 -2.49183e-07 14.7023 -2.49183e-07 15.2891C-2.49183e-07 17.1146 1.40442 18.4512 2.87415 19.3314C3.62535 19.7878 4.40921 20.2116 5.16041 20.6354C6.98942 21.6785 8.81843 22.7543 10.6474 23.7975C13.0643 25.1993 15.5139 26.601 17.9308 28.0028C20.511 29.5024 23.0912 30.9693 25.6714 32.4689C27.9577 33.7729 30.244 35.1095 32.4976 36.4134C34 37.2936 35.535 38.1738 37.0374 39.0214C37.364 39.217 37.6906 39.4126 38.0499 39.6082C39.193 40.2601 40.4668 40.7165 41.7732 40.9773C45.17 41.6945 49.0239 41.3359 52.0614 39.5756C53.0412 39.0214 54.021 38.4346 55.0009 37.8804C56.9605 36.7394 58.9528 35.5984 60.9125 34.4575C63.3947 33.0231 65.8769 31.5887 68.3592 30.1544C70.9067 28.6874 73.4869 27.1878 76.0345 25.7209C78.1901 24.4821 80.3457 23.2107 82.534 21.9719C83.8404 21.2221 85.1469 20.4724 86.4533 19.69C88.119 18.7446 89.8174 17.4732 89.85 15.3543C89.8827 13.4309 89.85 11.5076 89.85 9.6168C89.85 6.94365 89.85 4.23791 89.8827 1.56477C89.8827 1.07578 89.8827 0.586789 89.8827 0.0977989C89.85 0.0977989 89.85 0.130399 89.85 0.195598Z" transform="translate(71.596 72.2946)" fill="#149CF9"/>
</g>
<path d="M86.9777 22.0148C88.2842 22.7646 89.5253 23.9056 89.8192 25.4378C90.0805 26.8069 89.362 28.1109 88.3822 29.0237C87.7289 29.6431 86.9451 30.0669 86.1612 30.4907C85.1487 31.0775 84.1689 31.6316 83.1564 32.2184C81.654 33.0986 80.119 33.9788 78.6166 34.859C76.7876 35.9348 74.9585 36.9779 73.1295 38.0537C71.1699 39.1947 69.2102 40.3357 67.2506 41.444C65.3563 42.5198 63.4946 43.6282 61.6003 44.704C59.9999 45.6493 58.3995 46.5621 56.7665 47.5075C55.6233 48.1595 54.4802 48.8115 53.3697 49.4961C52.9125 49.7569 52.4226 50.0503 51.9653 50.3111C49.3198 51.8432 46.021 52.2018 43.0162 51.8432C41.1872 51.615 39.4889 51.0608 37.8885 50.1481C37.1373 49.7243 36.3861 49.2679 35.6349 48.8441C34.2958 48.0617 32.9567 47.2793 31.5849 46.5295C29.8539 45.519 28.0902 44.541 26.3592 43.5304C24.4322 42.422 22.4725 41.3136 20.5456 40.1727C18.6186 39.0643 16.6589 37.9233 14.7319 36.8149C13.0009 35.8044 11.2372 34.7938 9.50619 33.8158C8.16709 33.0334 6.79534 32.251 5.45624 31.4686C4.70504 31.0449 3.92118 30.5885 3.16998 30.1647C1.7329 29.3497 0.295825 28.2087 0.0345381 26.481C-0.25941 24.4272 1.37363 22.8624 3.00668 21.9496C3.69255 21.5585 4.34577 21.1673 5.03165 20.7761C6.30542 20.0263 7.61186 19.2765 8.88563 18.5267C10.584 17.5487 12.2824 16.5382 14.0134 15.5602C15.9404 14.4518 17.8674 13.3434 19.7944 12.2025C21.7213 11.0615 23.681 9.9531 25.608 8.81213C27.3717 7.80155 29.1354 6.75837 30.899 5.74779C32.3035 4.93281 33.6752 4.15042 35.0796 3.33544C35.8962 2.84645 36.7127 2.39006 37.5292 1.90107C38.901 1.11869 40.3707 0.5645 41.9384 0.271106C45.1718 -0.315682 48.7972 0.010313 51.704 1.64028C52.1286 1.86847 52.5205 2.12927 52.9451 2.35746C54.0229 2.97685 55.1334 3.59624 56.2112 4.24822C57.7789 5.161 59.3467 6.07379 60.947 6.98657C62.8087 8.06234 64.6704 9.13812 66.532 10.2139C68.4917 11.3549 70.4513 12.4633 72.411 13.6042C74.2727 14.68 76.1017 15.7232 77.9633 16.799C79.5311 17.7117 81.0988 18.5919 82.6665 19.5047C83.7443 20.1241 84.8221 20.7435 85.8673 21.3629C86.2265 21.5911 86.5858 21.8193 86.9777 22.0148Z" transform="translate(71.5941 49.7582)" fill="#DCDCDC"/>
<path d="M115.75 0.228195C115.619 2.64054 113.627 4.23791 111.7 5.34629C110.72 5.90047 109.74 6.48726 108.793 7.04145C107.095 8.01943 105.364 9.03001 103.666 10.008C101.477 11.2794 99.289 12.5507 97.1007 13.8221C94.6512 15.2565 92.2016 16.6582 89.752 18.0926C87.3025 19.527 84.8529 20.9288 82.4033 22.3631C80.1824 23.6671 77.9615 24.9385 75.7405 26.2424C74.0095 27.253 72.2785 28.2636 70.5474 29.2742C69.535 29.861 68.4898 30.4478 67.4773 31.0671C65.5177 32.2081 63.3947 32.9579 61.1411 33.2839C57.1238 33.8381 52.7146 33.3817 49.1546 31.3279C48.4687 30.9367 47.8155 30.5456 47.1296 30.1544C45.6599 29.3068 44.1575 28.4592 42.6877 27.579C40.6301 26.4054 38.5725 25.1993 36.5148 24.0257C34.1306 22.6565 31.7137 21.2548 29.3294 19.8856C26.8472 18.4512 24.365 17.0168 21.9154 15.6151C19.5965 14.2785 17.2449 12.9419 14.926 11.6054C12.9664 10.497 11.0394 9.356 9.07972 8.24763C7.77328 7.49784 6.43419 6.71546 5.12775 5.96567C4.40922 5.54188 3.69068 5.15069 3.0048 4.6943C1.43708 3.61852 0.0653217 1.98856 0.0653217 9.94852e-07C0.0653217 2.21675 0.0653217 4.46611 0.0326609 6.68286C0.0326609 10.2362 9.73351e-10 13.7569 9.73351e-10 17.3102C9.73351e-10 18.0926 9.73351e-10 18.875 9.73351e-10 19.69C9.73351e-10 22.0371 1.79635 23.7975 3.72334 24.9059C4.6705 25.4601 5.61767 25.9816 6.53217 26.5358C8.85109 27.8724 11.1374 29.1764 13.4563 30.513C16.5591 32.3059 19.6292 34.0663 22.732 35.8592C26.0634 37.7826 29.3621 39.6734 32.6935 41.5967C35.633 43.2919 38.6051 44.987 41.5446 46.7148C43.5369 47.8558 45.5619 49.0294 47.5542 50.1703C48.0115 50.4311 48.5014 50.7245 48.9586 50.9853C50.2977 51.7677 51.7348 52.3219 53.2372 52.6805C57.7771 53.7563 63.0028 53.3977 67.0854 51.0179C68.3592 50.2681 69.6329 49.5509 70.8741 48.8012C73.3889 47.3342 75.9038 45.8672 78.4187 44.4329C81.6195 42.5747 84.8202 40.7165 87.9883 38.891C91.2544 37.0002 94.5532 35.0769 97.8193 33.1861C100.595 31.5887 103.372 29.9588 106.148 28.3614C107.846 27.3834 109.545 26.3728 111.243 25.3949C111.504 25.2319 111.765 25.1015 112.059 24.9385C113.954 23.8301 115.685 22.1023 115.717 19.7878C115.75 17.3102 115.717 14.8001 115.75 12.3225C115.75 8.86701 115.783 5.44409 115.783 1.98856C115.783 1.36917 115.783 0.782384 115.783 0.162998C115.75 0.0651996 115.75 0.162997 115.75 0.228195Z" transform="translate(58.6623 51.1808)" fill="#3B407F"/>
<path d="M112.06 28.3906C113.726 29.336 115.359 30.8356 115.718 32.8241C116.045 34.6497 115.098 36.3123 113.791 37.4858C112.942 38.2356 111.962 38.7572 110.982 39.344C109.676 40.0938 108.402 40.8436 107.096 41.5933C105.136 42.7343 103.209 43.8427 101.249 44.9837C98.8652 46.3528 96.5136 47.722 94.1294 49.1238C91.6145 50.5907 89.0996 52.0251 86.5847 53.4921C84.1678 54.8939 81.7183 56.2956 79.3014 57.73C77.2437 58.9362 75.1861 60.1097 73.1284 61.3159C71.6587 62.1635 70.189 63.0111 68.7192 63.8587C68.1313 64.2173 67.5434 64.5433 66.9229 64.9018C63.4608 66.8904 59.1823 67.3794 55.263 66.8578C52.944 66.5644 50.7558 65.8472 48.7634 64.6737C47.7836 64.1195 46.8038 63.5327 45.824 62.9785C44.0929 61.9679 42.3619 60.9899 40.6309 59.9794C38.3773 58.6754 36.1237 57.3714 33.8701 56.1C31.3879 54.6657 28.9056 53.2313 26.4234 51.7969C23.9085 50.3626 21.4263 48.9282 18.9114 47.4612C16.6905 46.1898 14.4369 44.8859 12.2159 43.6145C10.4849 42.6039 8.72124 41.5933 6.99021 40.6154C6.01038 40.0612 5.03056 39.507 4.08339 38.9202C2.22172 37.8444 0.327395 36.3775 0.0334471 34.0955C-0.293161 31.455 1.82979 29.499 3.88743 28.2928C4.76927 27.7712 5.65111 27.2822 6.53296 26.7607C8.19866 25.7827 9.86437 24.8373 11.4974 23.8593C13.7183 22.5879 15.9066 21.3166 18.1276 20.0126C20.6098 18.5782 23.0594 17.1439 25.5416 15.7095C28.0565 14.2425 30.5714 12.8081 33.0536 11.3412C35.3072 10.0372 37.5608 8.73323 39.847 7.39666C41.6434 6.35348 43.4397 5.31031 45.2361 4.26713C46.2812 3.64774 47.3264 3.06095 48.3715 2.44157C50.1679 1.39839 52.0622 0.681204 54.1198 0.322611C58.2678 -0.394574 62.9383 0.0292174 66.6616 2.14817C67.1842 2.44157 67.7067 2.76756 68.2293 3.06095C69.6337 3.87594 71.0382 4.69092 72.4426 5.5059C74.4675 6.67948 76.4925 7.85305 78.5175 9.02663C80.9344 10.3958 83.3186 11.7976 85.7355 13.1667C88.2504 14.6337 90.798 16.0681 93.3129 17.535C95.6971 18.9042 98.114 20.306 100.498 21.6752C102.523 22.8487 104.516 23.9897 106.541 25.1633C107.912 25.9457 109.284 26.7607 110.656 27.543C111.113 27.8364 111.603 28.1298 112.06 28.3906Z" transform="translate(58.63 18.6069)" fill="#444A9D"/>
<g filter="url(#filter5_f)">
<path d="M112.06 28.3906C113.726 29.336 115.359 30.8356 115.718 32.8241C116.045 34.6497 115.098 36.3123 113.791 37.4858C112.942 38.2356 111.962 38.7572 110.982 39.344C109.676 40.0938 108.402 40.8436 107.096 41.5933C105.136 42.7343 103.209 43.8427 101.249 44.9837C98.8652 46.3528 96.5136 47.722 94.1294 49.1238C91.6145 50.5907 89.0996 52.0251 86.5847 53.4921C84.1678 54.8939 81.7183 56.2956 79.3014 57.73C77.2437 58.9362 75.1861 60.1097 73.1284 61.3159C71.6587 62.1635 70.189 63.0111 68.7192 63.8587C68.1313 64.2173 67.5434 64.5433 66.9229 64.9018C63.4608 66.8904 59.1823 67.3794 55.263 66.8578C52.944 66.5644 50.7558 65.8472 48.7634 64.6737C47.7836 64.1195 46.8038 63.5327 45.824 62.9785C44.0929 61.9679 42.3619 60.9899 40.6309 59.9794C38.3773 58.6754 36.1237 57.3714 33.8701 56.1C31.3879 54.6657 28.9056 53.2313 26.4234 51.7969C23.9085 50.3626 21.4263 48.9282 18.9114 47.4612C16.6905 46.1898 14.4369 44.8859 12.2159 43.6145C10.4849 42.6039 8.72124 41.5933 6.99021 40.6154C6.01038 40.0612 5.03056 39.507 4.08339 38.9202C2.22173 37.8444 0.327395 36.3775 0.0334471 34.0955C-0.293161 31.455 1.82979 29.499 3.88743 28.2928C4.76927 27.7712 5.65111 27.2822 6.53296 26.7607C8.19866 25.7827 9.86437 24.8373 11.4974 23.8593C13.7183 22.5879 15.9066 21.3166 18.1276 20.0126C20.6098 18.5782 23.0594 17.1439 25.5416 15.7095C28.0565 14.2425 30.5714 12.8081 33.0536 11.3412C35.3072 10.0372 37.5608 8.73323 39.847 7.39666C41.6434 6.35348 43.4397 5.31031 45.2361 4.26713C46.2812 3.64774 47.3264 3.06095 48.3715 2.44157C50.1679 1.39839 52.0622 0.681204 54.1198 0.322611C58.2678 -0.394574 62.9383 0.0292172 66.6616 2.14817C67.1842 2.44157 67.7068 2.76756 68.2293 3.06095C69.6337 3.87594 71.0382 4.69092 72.4426 5.5059C74.4675 6.67948 76.4925 7.85305 78.5175 9.02663C80.9344 10.3958 83.3186 11.7976 85.7355 13.1667C88.2504 14.6337 90.798 16.0681 93.3129 17.535C95.6971 18.9042 98.114 20.306 100.498 21.6752C102.523 22.8487 104.516 23.9897 106.541 25.1633C107.912 25.9457 109.284 26.7607 110.656 27.543C111.113 27.8364 111.603 28.1298 112.06 28.3906Z" transform="translate(58.63 20.6069)" fill="#575EC7" fill-opacity="0.5"/>
</g>
<path d="M63.0668 16.4274C65.2634 17.6955 65.2797 19.7601 63.0993 21.0281L36.4301 36.5045C34.2497 37.7725 30.6863 37.7725 28.4896 36.5045L1.65772 21.0118C-0.538946 19.7438 -0.555217 17.6792 1.62518 16.4112L28.2943 0.951019C30.4747 -0.317006 34.0382 -0.317006 36.2349 0.951019L63.0668 16.4274Z" transform="translate(148.724 70.4555) rotate(180)" fill="#149CF9"/>
<mask id="mask0" mask-type="alpha" maskUnits="userSpaceOnUse" x="84" y="33" width="65" height="38">
<path d="M63.0668 16.4274C65.2634 17.6955 65.2797 19.7601 63.0993 21.0281L36.4301 36.5045C34.2497 37.7725 30.6863 37.7725 28.4896 36.5045L1.65772 21.0118C-0.538946 19.7438 -0.555217 17.6792 1.62518 16.4112L28.2943 0.951019C30.4747 -0.317006 34.0382 -0.317006 36.2349 0.951019L63.0668 16.4274Z" transform="translate(148.724 70.4555) rotate(180)" fill="#149CF9"/>
</mask>
<g mask="url(#mask0)">
<path d="M65.6131 0.129405C65.5472 1.27787 64.558 1.97342 63.6348 2.49104C63.0413 2.83073 62.4314 3.17041 61.8379 3.52628C60.8323 4.1086 59.8266 4.67475 58.8045 5.25707C57.5186 5.98497 56.2492 6.71287 54.9633 7.44077C53.5456 8.24955 52.1278 9.05833 50.71 9.86711C49.2923 10.6759 47.858 11.4847 46.4402 12.3096C45.1379 13.0537 43.8355 13.7978 42.5166 14.5419C41.478 15.1403 40.423 15.7388 39.3843 16.3212C38.7249 16.6932 38.0655 17.0652 37.4061 17.4373C37.2742 17.5182 37.1258 17.599 36.9939 17.6799C36.2686 18.1005 35.4608 18.3431 34.6365 18.5049C32.7076 18.8769 30.515 18.6181 28.8005 17.6476C28.3389 17.3888 27.8773 17.1299 27.4157 16.855C26.509 16.3373 25.6023 15.8359 24.7121 15.3183C23.4921 14.6227 22.2722 13.9434 21.0522 13.2478C19.651 12.4552 18.2662 11.6626 16.8649 10.87C15.4306 10.0612 13.9799 9.23626 12.5456 8.42748C11.1938 7.66723 9.84197 6.8908 8.47365 6.13055C7.33614 5.48352 6.19863 4.8365 5.04463 4.18948C4.25331 3.73656 3.462 3.28364 2.6542 2.83073C2.34097 2.6528 2.01126 2.47486 1.69803 2.29693C0.857257 1.81167 0.0164857 1.03524 0.0164857 -2.4682e-07C0.0164857 1.42345 0.0164857 2.83073 -2.45653e-10 4.25418C-2.45653e-10 4.9659 -2.45653e-10 5.67763 -2.45653e-10 6.38936C-2.45653e-10 6.63199 0 6.8908 0.0824285 7.13343C0.280257 7.81281 0.824285 8.3466 1.41777 8.73482C1.87937 9.02598 2.35746 9.28479 2.83554 9.5436C3.89063 10.1421 4.92923 10.7406 5.98431 11.3229C7.46802 12.164 8.96822 13.0052 10.4519 13.8625C12.1664 14.833 13.8645 15.8035 15.579 16.7741C17.2605 17.7284 18.9586 18.6828 20.6401 19.6372C22.0908 20.4621 23.5581 21.2871 25.0088 22.112C25.998 22.662 26.9706 23.2281 27.9598 23.7781C28.7016 24.1987 29.4105 24.6192 30.2348 24.8619C31.8174 25.3471 33.6473 25.3795 35.2464 24.9427C35.8729 24.7648 36.4829 24.5384 37.0434 24.2148C37.7028 23.8428 38.3457 23.4708 39.0052 23.0987C40.2416 22.4032 41.478 21.6915 42.698 20.9959C44.2971 20.0901 45.8962 19.1681 47.4953 18.2622C49.2098 17.2755 50.9408 16.305 52.6553 15.3183C54.2874 14.3963 55.9195 13.4581 57.5351 12.5361C58.821 11.792 60.1234 11.0641 61.4093 10.32C62.1511 9.89946 62.893 9.47889 63.6348 9.04215C63.8162 8.92892 64.014 8.83187 64.1953 8.71864C64.8053 8.31425 65.3493 7.74811 65.5142 7.03638C65.5636 6.8261 65.5637 6.59964 65.5637 6.38936C65.5637 4.7071 65.5801 3.04101 65.5801 1.35875C65.5801 0.922008 65.5801 0.485268 65.5801 0.0323517C65.6131 0.0647028 65.6131 0.0970537 65.6131 0.129405Z" transform="translate(149.185 58.0448) rotate(180)" fill="#3B407F"/>
<g filter="url(#filter6_f)">
<path d="M55.6297 13.3263C57.5673 14.355 57.5817 16.0298 55.6584 17.0585L32.1342 29.6133C30.2109 30.642 27.0676 30.642 25.13 29.6133L1.46224 17.0453C-0.475391 16.0167 -0.489744 14.3418 1.43353 13.3131L24.9578 0.77149C26.881 -0.257163 30.0243 -0.257163 31.9619 0.77149L55.6297 13.3263Z" transform="translate(144.925 70.4555) rotate(180)" fill="#149CF9"/>
</g>
</g>
<defs>
<filter id="filter0_d" x="38.6623" y="183.702" width="155.783" height="93.2578" filterUnits="userSpaceOnUse" color-interpolation-filters="sRGB">
<feFlood flood-opacity="0" result="BackgroundImageFix"/>
<feColorMatrix in="SourceAlpha" type="matrix" values="0 0 0 0 0 0 0 0 0 0 0 0 0 0 0 0 0 0 255 0"/>
<feOffset/>
<feGaussianBlur stdDeviation="10"/>
<feColorMatrix type="matrix" values="0 0 0 0 0 0 0 0 0 0 0 0 0 0 0 0 0 0 0.25 0"/>
<feBlend mode="normal" in2="BackgroundImageFix" result="effect1_dropShadow"/>
<feBlend mode="normal" in="SourceGraphic" in2="effect1_dropShadow" result="shape"/>
</filter>
<filter id="filter1_f" x="51.596" y="165.251" width="129.883" height="81.3247" filterUnits="userSpaceOnUse" color-interpolation-filters="sRGB">
<feFlood flood-opacity="0" result="BackgroundImageFix"/>
<feBlend mode="normal" in="SourceGraphic" in2="BackgroundImageFix" result="shape"/>
<feGaussianBlur stdDeviation="10" result="effect1_foregroundBlur"/>
</filter>
<filter id="filter2_f" x="51.596" y="127.403" width="129.883" height="81.3247" filterUnits="userSpaceOnUse" color-interpolation-filters="sRGB">
<feFlood flood-opacity="0" result="BackgroundImageFix"/>
<feBlend mode="normal" in="SourceGraphic" in2="BackgroundImageFix" result="shape"/>
<feGaussianBlur stdDeviation="10" result="effect1_foregroundBlur"/>
</filter>
<filter id="filter3_f" x="51.596" y="90.1424" width="129.883" height="81.3247" filterUnits="userSpaceOnUse" color-interpolation-filters="sRGB">
<feFlood flood-opacity="0" result="BackgroundImageFix"/>
<feBlend mode="normal" in="SourceGraphic" in2="BackgroundImageFix" result="shape"/>
<feGaussianBlur stdDeviation="10" result="effect1_foregroundBlur"/>
</filter>
<filter id="filter4_f" x="41.596" y="42.2946" width="149.883" height="101.325" filterUnits="userSpaceOnUse" color-interpolation-filters="sRGB">
<feFlood flood-opacity="0" result="BackgroundImageFix"/>
<feBlend mode="normal" in="SourceGraphic" in2="BackgroundImageFix" result="shape"/>
<feGaussianBlur stdDeviation="15" result="effect1_foregroundBlur"/>
</filter>
<filter id="filter5_f" x="38.63" y="0.606934" width="155.783" height="107.052" filterUnits="userSpaceOnUse" color-interpolation-filters="sRGB">
<feFlood flood-opacity="0" result="BackgroundImageFix"/>
<feBlend mode="normal" in="SourceGraphic" in2="BackgroundImageFix" result="shape"/>
<feGaussianBlur stdDeviation="10" result="effect1_foregroundBlur"/>
</filter>
<filter id="filter6_f" x="77.8326" y="30.0706" width="77.0919" height="50.3848" filterUnits="userSpaceOnUse" color-interpolation-filters="sRGB">
<feFlood flood-opacity="0" result="BackgroundImageFix"/>
<feBlend mode="normal" in="SourceGraphic" in2="BackgroundImageFix" result="shape"/>
<feGaussianBlur stdDeviation="5" result="effect1_foregroundBlur"/>
</filter>
</defs>
</svg>
