<svg width="334" height="463" viewBox="0 0 334 463" fill="none" xmlns="http://www.w3.org/2000/svg">
<path d="M323.261 81.7185C328.066 84.4397 332.776 88.756 333.813 94.4797C334.755 99.7344 332.023 104.52 328.254 107.898C325.804 110.056 322.978 111.557 320.151 113.246C316.383 115.404 312.708 117.563 308.94 119.721C303.287 123.005 297.728 126.195 292.075 129.479C285.197 133.42 278.413 137.361 271.535 141.396C264.281 145.619 257.026 149.747 249.771 153.97C242.799 158.004 235.733 162.039 228.761 166.168C222.825 169.64 216.89 173.018 210.954 176.489C206.714 178.929 202.474 181.369 198.235 183.808C196.539 184.841 194.843 185.779 193.053 186.811C183.066 192.535 170.723 193.942 159.417 192.441C152.728 191.597 146.415 189.532 140.668 186.154C137.842 184.559 135.015 182.87 132.189 181.275C127.195 178.366 122.202 175.551 117.208 172.642C110.707 168.889 104.206 165.136 97.7052 161.476C90.5447 157.348 83.3842 153.219 76.2238 149.09C68.9691 144.962 61.8086 140.833 54.5539 136.611C48.1471 132.951 41.6461 129.198 35.2394 125.538C30.2459 122.63 25.1582 119.721 20.1647 116.906C17.3382 115.311 14.5117 113.715 11.7794 112.026C6.40902 108.93 0.944437 104.707 0.096485 98.1392C-0.845684 90.5388 5.27842 84.9088 11.2141 81.437C13.7579 79.9357 16.3018 78.5282 18.8457 77.0269C23.6507 74.2119 28.4558 71.4907 33.1666 68.6758C39.5734 65.0163 45.8859 61.3568 52.2927 57.6035C59.4531 53.4749 66.5194 49.3462 73.6799 45.2176C80.9346 40.9951 88.1893 36.8665 95.3498 32.644C101.851 28.8907 108.352 25.1374 114.947 21.2903C120.129 18.2876 125.311 15.285 130.493 12.2823C133.508 10.4995 136.523 8.81053 139.538 7.02771C144.719 4.02507 150.184 1.96075 156.12 0.928592C168.085 -1.13573 181.558 0.0840983 192.299 6.18322C193.806 7.02771 195.314 7.96604 196.821 8.81053C200.873 11.1564 204.924 13.5022 208.975 15.848C214.817 19.226 220.658 22.6039 226.5 25.9819C233.472 29.9229 240.35 33.9577 247.322 37.8987C254.576 42.1211 261.925 46.2498 269.18 50.4722C276.058 54.4132 283.03 58.448 289.908 62.389C295.749 65.767 301.496 69.0511 307.338 72.4291C311.295 74.6811 315.252 77.0269 319.209 79.2789C320.528 80.1234 321.941 80.9678 323.261 81.7185Z" transform="translate(0 270)" fill="#2D325D"/>
<g filter="url(#filter0_d)">
<path d="M192.349 0.379775C192.132 4.39461 188.822 7.05309 185.619 8.89775C183.991 9.82008 182.363 10.7967 180.789 11.719C177.967 13.3466 175.09 15.0285 172.268 16.6561C168.631 18.7721 164.995 20.888 161.359 23.0039C157.288 25.3911 153.217 27.7241 149.147 30.1113C145.076 32.4985 141.006 34.8314 136.935 37.2186C133.244 39.3888 129.554 41.5047 125.863 43.6749C122.986 45.3568 120.11 47.0387 117.233 48.7206C115.551 49.6972 113.814 50.6738 112.131 51.7046C108.875 53.6035 105.347 54.8514 101.602 55.3939C94.9264 56.3162 87.5993 55.5567 81.6834 52.1386C80.5436 51.4876 79.4581 50.8365 78.3183 50.1855C75.876 48.7748 73.3793 47.3642 70.937 45.8994C67.5177 43.9462 64.0984 41.9388 60.6791 39.9856C56.717 37.7069 52.7007 35.374 48.7386 33.0953C44.6138 30.7081 40.4889 28.3209 36.4183 25.9879C32.5648 23.7635 28.657 21.5391 24.8035 19.3146C21.547 17.47 18.3448 15.5711 15.0884 13.7264C12.9174 12.4786 10.6921 11.1765 8.52112 9.9286C7.32708 9.22329 6.13304 8.57222 4.99327 7.81266C2.38808 6.02226 0.108549 3.30952 0.108549 -1.32457e-05C0.108549 3.6893 0.108549 7.43286 0.0542747 11.1222C0.0542747 17.0359 1.61748e-09 22.8954 1.61748e-09 28.8092C1.61748e-09 30.1113 1.61748e-09 31.4134 1.61748e-09 32.7698C1.61748e-09 36.6761 2.98511 39.6058 6.18731 41.4505C7.76128 42.3728 9.33524 43.2409 10.8549 44.1632C14.7084 46.3877 18.5077 48.5578 22.3612 50.7823C27.5173 53.7663 32.6191 56.696 37.7752 59.68C43.3112 62.881 48.7929 66.0278 54.3289 69.2288C59.2137 72.0501 64.1526 74.8713 69.0374 77.7468C72.3481 79.6457 75.7132 81.5989 79.0239 83.4978C79.7837 83.9318 80.5979 84.4201 81.3577 84.8541C83.583 86.1562 85.9711 87.0786 88.4677 87.6754C96.0119 89.4658 104.696 88.869 111.48 84.9084C113.597 83.6605 115.714 82.4669 117.776 81.2191C121.955 78.7776 126.134 76.3362 130.313 73.949C135.632 70.8565 140.951 67.764 146.216 64.7257C151.643 61.5789 157.125 58.3779 162.553 55.2312C167.166 52.5727 171.779 49.8599 176.393 47.2015C179.215 45.5738 182.037 43.8919 184.859 42.2643C185.294 41.993 185.728 41.776 186.216 41.5047C189.364 39.6601 192.241 36.7846 192.295 32.9325C192.349 28.8092 192.295 24.6316 192.349 20.5082C192.349 14.7573 192.404 9.06052 192.404 3.30954C192.404 2.2787 192.404 1.3021 192.404 0.27126C192.349 0.16275 192.349 0.271266 192.349 0.379775Z" transform="translate(70.3073 328.915)" fill="#3B407F"/>
</g>
<path d="M186.229 47.2501C188.997 48.8235 191.71 51.3192 192.307 54.6287C192.85 57.667 191.276 60.434 189.105 62.3871C187.694 63.635 186.066 64.5031 184.438 65.4797C182.267 66.7275 180.15 67.9753 177.979 69.2232C174.722 71.1221 171.52 72.9668 168.264 74.8657C164.302 77.1444 160.394 79.4231 156.432 81.756C152.253 84.1975 148.074 86.5847 143.894 89.0261C139.878 91.3591 135.807 93.692 131.791 96.0792C128.372 98.0866 124.953 100.04 121.533 102.047C119.091 103.458 116.648 104.868 114.206 106.279C113.229 106.876 112.252 107.418 111.221 108.015C105.468 111.325 98.3579 112.139 91.845 111.27C87.9915 110.782 84.3551 109.589 81.0443 107.635C79.4161 106.713 77.7878 105.737 76.1596 104.814C73.283 103.132 70.4065 101.505 67.5299 99.8228C63.785 97.6526 60.04 95.4824 56.2951 93.3665C52.1702 90.9793 48.0453 88.5921 43.9204 86.2049C39.7413 83.8177 35.6164 81.4305 31.4373 78.989C27.7466 76.8731 24.0016 74.7029 20.311 72.587C17.4344 70.9051 14.5036 69.2232 11.627 67.5956C9.99877 66.6732 8.37053 65.7509 6.79657 64.7743C3.70291 62.9839 0.554981 60.5425 0.0665094 56.7446C-0.530512 52.35 2.99734 49.0948 6.41665 47.0873C7.88206 46.2193 9.34748 45.4054 10.8129 44.5374C13.5809 42.9097 16.3489 41.3364 19.0626 39.7087C22.7533 37.5928 26.3897 35.4768 30.0804 33.3067C34.2053 30.9195 38.2759 28.5323 42.4007 26.1451C46.5799 23.7036 50.759 21.3164 54.8839 18.875C58.6289 16.7048 62.3738 14.5346 66.173 12.3102C69.1581 10.574 72.1433 8.83786 75.1284 7.10171C76.8652 6.07088 78.602 5.09431 80.3387 4.06347C83.3238 2.32732 86.4718 1.13372 89.8911 0.536924C96.784 -0.656677 104.545 0.0486194 110.733 3.57517C111.601 4.06346 112.469 4.60601 113.338 5.0943C115.672 6.45067 118.005 7.80703 120.339 9.1634C123.704 11.1166 127.069 13.0697 130.434 15.0229C134.451 17.3016 138.413 19.6345 142.429 21.9132C146.608 24.3547 150.842 26.7419 155.021 29.1833C158.983 31.462 162.999 33.795 166.961 36.0737C170.326 38.0268 173.637 39.9258 177.002 41.8789C179.281 43.181 181.561 44.5374 183.841 45.8395C184.655 46.3278 185.469 46.7618 186.229 47.2501Z" transform="translate(70.2408 273.093)" fill="#444A9D"/>
<path d="M149.31 0.325531C149.147 3.36379 146.65 5.47972 144.153 6.89034C142.959 7.59565 141.711 8.30094 140.517 9.00624C138.346 10.2541 136.121 11.5562 133.95 12.8041C131.128 14.4317 128.251 16.1136 125.429 17.7413C122.281 19.5859 119.079 21.4306 115.931 23.2752C112.728 25.1199 109.581 26.9645 106.378 28.8092C103.502 30.4911 100.625 32.173 97.7486 33.8549C95.4691 35.157 93.2439 36.4591 90.9643 37.8154C89.6617 38.575 88.3591 39.3346 87.0023 40.0941C84.3971 41.6133 81.6291 42.5356 78.644 42.9696C73.5422 43.6207 67.9519 43.0239 63.4471 40.4739C62.6329 40.0399 61.8731 39.5516 61.059 39.1175C59.1594 38.0324 57.314 36.9473 55.4144 35.8623C52.755 34.3431 50.1498 32.824 47.4903 31.3049C44.3967 29.5145 41.303 27.7241 38.2094 25.9337C35.0071 24.089 31.7507 22.1901 28.5485 20.3455C25.5091 18.6093 22.4697 16.8189 19.4303 15.0828C16.8794 13.6179 14.3285 12.153 11.7776 10.6882C10.0408 9.71157 8.30402 8.68074 6.62151 7.70416C5.69884 7.16161 4.7219 6.67332 3.8535 6.07652C1.84534 4.6659 0.0542755 2.60422 0.0542755 0C0.0542755 2.92975 0.0542755 5.80523 0.0542755 8.73497C0.0542755 13.3466 0.0542742 17.904 -4.14083e-07 22.5156C-4.14083e-07 23.4922 -4.14083e-07 24.4688 -4.14083e-07 25.4454C-4.14083e-07 28.4837 2.33381 30.7081 4.77617 32.173C6.02449 32.9325 7.32708 33.6378 8.57539 34.3431C11.6148 36.0793 14.6542 37.8697 17.6935 39.6058C21.7099 41.9388 25.7805 44.2717 29.7968 46.6047C34.0845 49.1004 38.3722 51.5418 42.6599 54.0375C46.4591 56.2077 50.2583 58.4322 54.0033 60.6024C56.4999 62.0672 59.0508 63.5321 61.5475 64.9427C62.0902 65.2682 62.633 65.5938 63.23 65.9193C65.1296 67.0044 67.2463 67.764 69.4173 68.198C75.0618 69.3916 81.4663 68.7948 86.5138 65.8651C88.142 64.9427 89.7703 63.9661 91.3985 63.0438C94.655 61.1449 97.9658 59.246 101.222 57.3471C105.347 54.9599 109.472 52.5727 113.597 50.1855C117.83 47.744 122.118 45.2483 126.351 42.8069C129.934 40.7452 133.516 38.6293 137.152 36.5676C139.323 35.3197 141.494 34.0719 143.665 32.7698C146.433 31.1964 149.255 29.0804 149.31 25.5539C149.364 22.3529 149.31 19.1519 149.31 16.0051C149.31 11.5562 149.31 7.05309 149.364 2.60421C149.364 1.79039 149.364 0.976576 149.364 0.162757C149.31 0.108503 149.31 0.217022 149.31 0.325531Z" transform="translate(91.8 298.207)" fill="#149CF9"/>
<g filter="url(#filter1_f)">
<path d="M149.31 0.325531C149.147 3.36379 146.65 5.47972 144.153 6.89034C142.959 7.59565 141.711 8.30094 140.517 9.00624C138.346 10.2541 136.121 11.5562 133.95 12.8041C131.128 14.4317 128.251 16.1136 125.429 17.7413C122.281 19.5859 119.079 21.4306 115.931 23.2752C112.728 25.1199 109.581 26.9645 106.378 28.8092C103.502 30.4911 100.625 32.173 97.7486 33.8549C95.4691 35.157 93.2439 36.4591 90.9643 37.8154C89.6617 38.575 88.3591 39.3346 87.0023 40.0941C84.3971 41.6133 81.6291 42.5356 78.644 42.9696C73.5422 43.6207 67.9519 43.0239 63.4471 40.4739C62.6329 40.0399 61.8731 39.5516 61.059 39.1175C59.1594 38.0324 57.314 36.9473 55.4144 35.8623C52.755 34.3431 50.1498 32.824 47.4903 31.3049C44.3967 29.5145 41.303 27.7241 38.2094 25.9337C35.0071 24.089 31.7507 22.1901 28.5485 20.3455C25.5091 18.6093 22.4697 16.8189 19.4303 15.0828C16.8794 13.6179 14.3285 12.153 11.7776 10.6882C10.0408 9.71157 8.30402 8.68074 6.62151 7.70416C5.69884 7.16161 4.7219 6.67332 3.8535 6.07652C1.84534 4.6659 0.0542755 2.60422 0.0542755 0C0.0542755 2.92975 0.0542755 5.80523 0.0542755 8.73497C0.0542755 13.3466 0.0542742 17.904 -4.14083e-07 22.5156C-4.14083e-07 23.4922 -4.14083e-07 24.4688 -4.14083e-07 25.4454C-4.14083e-07 28.4837 2.33381 30.7081 4.77617 32.173C6.02449 32.9325 7.32708 33.6378 8.57539 34.3431C11.6148 36.0793 14.6542 37.8697 17.6935 39.6058C21.7099 41.9388 25.7805 44.2717 29.7968 46.6047C34.0845 49.1004 38.3722 51.5418 42.6599 54.0375C46.4591 56.2077 50.2583 58.4322 54.0033 60.6024C56.4999 62.0672 59.0508 63.5321 61.5475 64.9427C62.0902 65.2682 62.633 65.5938 63.23 65.9193C65.1296 67.0044 67.2463 67.764 69.4173 68.198C75.0618 69.3916 81.4663 68.7948 86.5138 65.8651C88.142 64.9427 89.7703 63.9661 91.3985 63.0438C94.655 61.1449 97.9658 59.246 101.222 57.3471C105.347 54.9599 109.472 52.5727 113.597 50.1855C117.83 47.744 122.118 45.2483 126.351 42.8069C129.934 40.7452 133.516 38.6293 137.152 36.5676C139.323 35.3197 141.494 34.0719 143.665 32.7698C146.433 31.1964 149.255 29.0804 149.31 25.5539C149.364 22.3529 149.31 19.1519 149.31 16.0051C149.31 11.5562 149.31 7.05309 149.364 2.60421C149.364 1.79039 149.364 0.976576 149.364 0.162757C149.31 0.108503 149.31 0.217022 149.31 0.325531Z" transform="translate(91.8 298.207)" fill="#149CF9"/>
</g>
<path d="M144.537 36.639C146.708 37.8869 148.77 39.7858 149.258 42.3357C149.693 44.6144 148.499 46.7846 146.87 48.3037C145.785 49.3346 144.482 50.0399 143.18 50.7452C141.497 51.7218 139.869 52.6441 138.186 53.6207C135.69 55.0856 133.139 56.5504 130.642 58.0153C127.603 59.8057 124.563 61.5419 121.524 63.3323C118.268 65.2312 115.011 67.1301 111.755 68.9747C108.607 70.7651 105.513 72.6098 102.365 74.4002C99.7057 75.9736 97.0462 77.4927 94.3325 79.0661C92.4329 80.1512 90.5332 81.2363 88.6879 82.3756C87.9281 82.8096 87.1139 83.2979 86.3541 83.732C81.9578 86.2819 76.4761 86.8787 71.4828 86.2819C68.4435 85.9022 65.6212 84.9798 62.9617 83.4607C61.7134 82.7554 60.4651 81.9958 59.2168 81.2905C56.9915 79.9884 54.7663 78.6863 52.4867 77.4384C49.6102 75.7566 46.6793 74.1289 43.8028 72.447C40.6006 70.6024 37.3441 68.7577 34.1419 66.8588C30.9397 65.0142 27.6832 63.1152 24.481 61.2706C21.6044 59.5887 18.6736 57.9068 15.797 56.2792C13.5718 54.9771 11.2922 53.6749 9.06699 52.3728C7.81867 51.6675 6.51608 50.908 5.26776 50.2026C2.87968 48.8463 0.491591 46.9474 0.0573942 44.0719C-0.431078 40.6539 2.28265 38.0496 4.99639 36.5305C6.13616 35.8794 7.22165 35.2284 8.36142 34.5773C10.4781 33.3295 12.6491 32.0816 14.7658 30.8338C17.5881 29.2061 20.4104 27.5242 23.2869 25.8966C26.4891 24.0519 29.6914 22.2073 32.8936 20.3084C36.0958 18.4095 39.3522 16.5648 42.5545 14.6659C45.4853 12.984 48.4161 11.2479 51.3469 9.56596C53.6808 8.2096 55.9603 6.90749 58.2941 5.55113C59.651 4.73731 61.0078 3.97775 62.3647 3.16393C64.6442 1.86182 67.0866 0.939491 69.6918 0.4512C75.065 -0.525383 81.0895 0.0171695 85.9199 2.7299C86.6255 3.10968 87.2768 3.54371 87.9823 3.92349C89.7734 4.95433 91.6187 5.98517 93.4098 7.07026C96.015 8.58939 98.6202 10.1085 101.28 11.6276C104.373 13.418 107.467 15.2084 110.561 16.9988C113.817 18.8978 117.074 20.7424 120.33 22.6413C123.424 24.4317 126.463 26.1679 129.557 27.9583C132.162 29.4774 134.767 30.9423 137.372 32.4614C139.163 33.4922 140.954 34.5231 142.691 35.5539C143.288 35.9337 143.885 36.3135 144.537 36.639Z" transform="translate(91.797 254.895)" fill="#DCDCDC"/>
<path d="M192.349 0.379789C192.132 4.39463 188.822 7.05309 185.619 8.89775C183.991 9.82007 182.363 10.7967 180.789 11.719C177.967 13.3466 175.09 15.0285 172.268 16.6562C168.631 18.7721 164.995 20.888 161.359 23.0039C157.288 25.3911 153.217 27.7241 149.147 30.1113C145.076 32.4985 141.006 34.8314 136.935 37.2186C133.244 39.3888 129.554 41.5047 125.863 43.6749C122.986 45.3568 120.11 47.0387 117.233 48.7206C115.551 49.6972 113.814 50.6738 112.131 51.7046C108.875 53.6035 105.347 54.8514 101.602 55.3939C94.9264 56.3162 87.5993 55.5567 81.6834 52.1386C80.5436 51.4876 79.4581 50.8365 78.3183 50.1855C75.876 48.7749 73.3793 47.3642 70.937 45.8993C67.5177 43.9462 64.0984 41.9388 60.6791 39.9856C56.717 37.7069 52.7007 35.374 48.7386 33.0953C44.6138 30.7081 40.4889 28.3209 36.4183 25.9879C32.5648 23.7635 28.657 21.5391 24.8035 19.3146C21.547 17.47 18.3448 15.5711 15.0884 13.7264C12.9174 12.4785 10.6921 11.1764 8.52112 9.92858C7.32708 9.22327 6.13304 8.57222 4.99327 7.81265C2.38808 6.02225 0.108549 3.30953 0.108549 0C0.108549 3.68931 0.108549 7.43288 0.0542747 11.1222C0.0542747 17.0359 1.61748e-09 22.8954 1.61748e-09 28.8092C1.61748e-09 30.1113 1.61748e-09 31.4134 1.61748e-09 32.7698C1.61748e-09 36.6761 2.98511 39.6058 6.18731 41.4505C7.76128 42.3728 9.33524 43.2409 10.8549 44.1632C14.7084 46.3877 18.5077 48.5578 22.3612 50.7823C27.5173 53.7663 32.6191 56.696 37.7752 59.68C43.3112 62.881 48.7929 66.0278 54.3289 69.2288C59.2137 72.05 64.1526 74.8713 69.0374 77.7468C72.3481 79.6457 75.7132 81.5989 79.0239 83.4978C79.7837 83.9318 80.5979 84.4201 81.3577 84.8542C83.583 86.1563 85.9711 87.0786 88.4677 87.6754C96.0119 89.4658 104.696 88.869 111.48 84.9084C113.597 83.6605 115.714 82.4669 117.776 81.2191C121.955 78.7776 126.134 76.3362 130.313 73.949C135.632 70.8565 140.951 67.7639 146.216 64.7257C151.643 61.5789 157.125 58.3779 162.553 55.2311C167.166 52.5727 171.779 49.8599 176.393 47.2015C179.215 45.5738 182.037 43.892 184.859 42.2643C185.294 41.993 185.728 41.776 186.216 41.5047C189.364 39.6601 192.241 36.7846 192.295 32.9325C192.349 28.8092 192.295 24.6316 192.349 20.5082C192.349 14.7572 192.404 9.06052 192.404 3.30953C192.404 2.2787 192.404 1.30211 192.404 0.271273C192.349 0.162764 192.349 0.271279 192.349 0.379789Z" transform="translate(70.3073 265.925)" fill="#3B407F"/>
<path d="M186.218 47.3044C188.986 48.8777 191.699 51.3734 192.296 54.683C192.839 57.7212 191.265 60.4882 189.094 62.4414C187.683 63.6892 186.055 64.5573 184.427 65.5339C182.256 66.7817 180.139 68.0296 177.968 69.2775C174.711 71.1764 171.509 73.021 168.253 74.9199C164.291 77.1986 160.383 79.4773 156.421 81.8103C152.242 84.2517 148.063 86.6389 143.883 89.0804C139.867 91.4133 135.797 93.7463 131.78 96.1335C128.361 98.1409 124.942 100.094 121.522 102.101C119.08 103.512 116.638 104.923 114.195 106.333C113.218 106.93 112.241 107.473 111.21 108.069C105.457 111.379 98.347 112.193 91.834 111.325C87.9805 110.836 84.3441 109.643 81.0334 107.69C79.4051 106.767 77.7769 105.791 76.1487 104.868C73.2721 103.187 70.3955 101.559 67.519 99.877C63.774 97.7068 60.0291 95.5367 56.2841 93.4207C52.1593 91.0335 48.0344 88.6463 43.9095 86.2591C39.7304 83.8719 35.6055 81.4847 31.4263 79.0433C27.7357 76.9274 23.9907 74.7572 20.3 72.6412C17.4235 70.9593 14.4926 69.2775 11.6161 67.6498C9.98784 66.7275 8.3596 65.8052 6.78564 64.8286C3.69198 63.0382 0.544053 60.5967 0.0555812 56.7989C-0.487165 52.35 3.04069 49.0947 6.45999 47.0873C7.92541 46.2193 9.39082 45.4054 10.8562 44.5374C13.6242 42.9097 16.3923 41.3364 19.106 39.7087C22.7967 37.5928 26.4331 35.4769 30.1237 33.3067C34.2486 30.9195 38.3192 28.5323 42.4441 26.1451C46.6232 23.7036 50.8024 21.3164 54.9273 18.875C58.6722 16.7048 62.4172 14.5346 66.2164 12.3102C69.2015 10.574 72.1866 8.83787 75.1717 7.10172C76.9085 6.07089 78.6453 5.0943 80.3821 4.06346C83.3672 2.32732 86.5151 1.13372 89.9344 0.536917C96.8273 -0.656683 104.589 0.0486295 110.776 3.57518C111.644 4.06347 112.513 4.60601 113.381 5.0943C115.715 6.45066 118.049 7.80703 120.382 9.16339C123.748 11.1166 127.113 13.0697 130.478 15.0229C134.494 17.3016 138.456 19.6345 142.472 21.9132C146.651 24.3547 150.885 26.7419 155.064 29.1833C159.026 31.462 163.042 33.795 167.004 36.0737C170.369 38.0268 173.68 39.9257 177.045 41.8789C179.325 43.181 181.604 44.5374 183.884 45.8395C184.644 46.382 185.458 46.8161 186.218 47.3044Z" transform="translate(70.2517 210.049)" fill="#444A9D"/>
<path d="M149.31 0.325527C149.147 3.36378 146.65 5.47971 144.153 6.89033C142.959 7.59564 141.711 8.30095 140.517 9.00626C138.346 10.2541 136.121 11.5562 133.95 12.8041C131.128 14.4317 128.251 16.1136 125.429 17.7412C122.281 19.5859 119.079 21.4305 115.931 23.2752C112.728 25.1199 109.581 26.9645 106.378 28.8092C103.502 30.4911 100.625 32.173 97.7486 33.8548C95.4691 35.157 93.2439 36.4591 90.9643 37.8154C89.6617 38.575 88.3591 39.3346 87.0023 40.0941C84.3971 41.6132 81.6291 42.5356 78.644 42.9696C73.5422 43.6207 67.9519 43.0239 63.4471 40.4739C62.6329 40.0399 61.8731 39.5516 61.059 39.1175C59.1594 38.0325 57.314 36.9474 55.4144 35.8623C52.755 34.3431 50.1498 32.824 47.4903 31.3049C44.3967 29.5145 41.303 27.7241 38.2094 25.9337C35.0071 24.089 31.7507 22.1901 28.5485 20.3455C25.5091 18.6093 22.4697 16.8189 19.4303 15.0828C16.8794 13.6179 14.3285 12.153 11.7776 10.6882C10.0408 9.71157 8.30402 8.68073 6.62151 7.70415C5.69884 7.16161 4.7219 6.67332 3.8535 6.07652C1.84534 4.6659 0.0542755 2.60422 0.0542755 -3.31144e-06C0.0542755 2.92974 0.0542755 5.80524 0.0542755 8.73499C0.0542755 13.3466 0.0542742 17.904 -4.14083e-07 22.5156C-4.14083e-07 23.4922 -4.14083e-07 24.4688 -4.14083e-07 25.4454C-4.14083e-07 28.4836 2.33381 30.7081 4.77617 32.173C6.02449 32.9325 7.32708 33.6378 8.57539 34.3431C11.6148 36.0793 14.6542 37.8697 17.6935 39.6058C21.7099 41.9388 25.7805 44.2717 29.7968 46.6047C34.0845 49.1004 38.3722 51.5418 42.6599 54.0375C46.4591 56.2077 50.2583 58.4322 54.0033 60.6024C56.4999 62.0672 59.0508 63.5321 61.5475 64.9427C62.0902 65.2682 62.633 65.5938 63.23 65.9193C65.1296 67.0044 67.2463 67.7639 69.4173 68.198C75.0618 69.3916 81.4663 68.7948 86.5138 65.865C88.142 64.9427 89.7703 63.9661 91.3985 63.0438C94.655 61.1449 97.9658 59.246 101.222 57.3471C105.347 54.9599 109.472 52.5727 113.597 50.1855C117.83 47.744 122.118 45.2483 126.351 42.8068C129.934 40.7452 133.516 38.6292 137.152 36.5676C139.323 35.3197 141.494 34.0719 143.665 32.7698C146.433 31.1964 149.255 29.0804 149.31 25.5539C149.364 22.3529 149.31 19.1519 149.31 16.0051C149.31 11.5562 149.31 7.0531 149.364 2.60423C149.364 1.79041 149.364 0.976589 149.364 0.16277C149.31 0.16277 149.31 0.217018 149.31 0.325527Z" transform="translate(91.8 235.217)" fill="#149CF9"/>
<g filter="url(#filter2_f)">
<path d="M149.31 0.325527C149.147 3.36378 146.65 5.47971 144.153 6.89033C142.959 7.59564 141.711 8.30095 140.517 9.00626C138.346 10.2541 136.121 11.5562 133.95 12.8041C131.128 14.4317 128.251 16.1136 125.429 17.7412C122.281 19.5859 119.079 21.4305 115.931 23.2752C112.728 25.1199 109.581 26.9645 106.378 28.8092C103.502 30.4911 100.625 32.173 97.7486 33.8548C95.4691 35.157 93.2439 36.4591 90.9643 37.8154C89.6617 38.575 88.3591 39.3346 87.0023 40.0941C84.3971 41.6132 81.6291 42.5356 78.644 42.9696C73.5422 43.6207 67.9519 43.0239 63.4471 40.4739C62.6329 40.0399 61.8731 39.5516 61.059 39.1175C59.1594 38.0325 57.314 36.9474 55.4144 35.8623C52.755 34.3431 50.1498 32.824 47.4903 31.3049C44.3967 29.5145 41.303 27.7241 38.2094 25.9337C35.0071 24.089 31.7507 22.1901 28.5485 20.3455C25.5091 18.6093 22.4697 16.8189 19.4303 15.0828C16.8794 13.6179 14.3285 12.153 11.7776 10.6882C10.0408 9.71157 8.30402 8.68073 6.62151 7.70415C5.69884 7.16161 4.7219 6.67332 3.8535 6.07652C1.84534 4.6659 0.0542755 2.60422 0.0542755 -3.31144e-06C0.0542755 2.92974 0.0542755 5.80524 0.0542755 8.73499C0.0542755 13.3466 0.0542742 17.904 -4.14083e-07 22.5156C-4.14083e-07 23.4922 -4.14083e-07 24.4688 -4.14083e-07 25.4454C-4.14083e-07 28.4836 2.33381 30.7081 4.77617 32.173C6.02449 32.9325 7.32708 33.6378 8.57539 34.3431C11.6148 36.0793 14.6542 37.8697 17.6935 39.6058C21.7099 41.9388 25.7805 44.2717 29.7968 46.6047C34.0845 49.1004 38.3722 51.5418 42.6599 54.0375C46.4591 56.2077 50.2583 58.4322 54.0033 60.6024C56.4999 62.0672 59.0508 63.5321 61.5475 64.9427C62.0902 65.2682 62.633 65.5938 63.23 65.9193C65.1296 67.0044 67.2463 67.7639 69.4173 68.198C75.0618 69.3916 81.4663 68.7948 86.5138 65.865C88.142 64.9427 89.7703 63.9661 91.3985 63.0438C94.655 61.1449 97.9658 59.246 101.222 57.3471C105.347 54.9599 109.472 52.5727 113.597 50.1855C117.83 47.744 122.118 45.2483 126.351 42.8068C129.934 40.7452 133.516 38.6292 137.152 36.5676C139.323 35.3197 141.494 34.0719 143.665 32.7698C146.433 31.1964 149.255 29.0804 149.31 25.5539C149.364 22.3529 149.31 19.1519 149.31 16.0051C149.31 11.5562 149.31 7.0531 149.364 2.60423C149.364 1.79041 149.364 0.976589 149.364 0.16277C149.31 0.16277 149.31 0.217018 149.31 0.325527Z" transform="translate(91.8 235.217)" fill="#149CF9"/>
</g>
<path d="M144.537 36.6933C146.708 37.9411 148.77 39.84 149.258 42.39C149.693 44.6687 148.499 46.8389 146.87 48.358C145.785 49.3888 144.482 50.0941 143.18 50.7994C141.497 51.776 139.869 52.6984 138.186 53.6749C135.69 55.1398 133.139 56.6047 130.642 58.0696C127.603 59.86 124.563 61.5961 121.524 63.3865C118.268 65.2854 115.011 67.1843 111.755 69.029C108.607 70.8194 105.513 72.664 102.365 74.4544C99.7057 76.0278 97.0462 77.5469 94.3325 79.1203C92.4329 80.2054 90.5332 81.2905 88.6879 82.4299C87.9281 82.8639 87.1139 83.3522 86.3541 83.7862C81.9578 86.3362 76.4761 86.933 71.4828 86.3362C68.4435 85.9564 65.6212 85.0341 62.9617 83.515C61.7134 82.8096 60.4651 82.0501 59.2168 81.3448C56.9915 80.0427 54.7663 78.7405 52.4867 77.4927C49.6102 75.8108 46.6793 74.1832 43.8028 72.5013C40.6006 70.6566 37.3441 68.812 34.1419 66.913C30.9397 65.0684 27.6832 63.1695 24.481 61.3248C21.6044 59.6429 18.6736 57.961 15.797 56.3334C13.5718 55.0313 11.2922 53.7292 9.06699 52.4271C7.81867 51.7218 6.51608 50.9622 5.26776 50.2569C2.87968 48.9005 0.491591 47.0016 0.0573942 44.1261C-0.431078 40.6538 2.28265 38.1039 4.99639 36.5305C6.13616 35.8794 7.22165 35.2284 8.36142 34.5773C10.4781 33.3295 12.6491 32.0816 14.7658 30.8338C17.5881 29.2061 20.4104 27.5242 23.2869 25.8966C26.4891 24.0519 29.6914 22.2073 32.8936 20.3084C36.0958 18.4095 39.3522 16.5648 42.5545 14.6659C45.4853 12.984 48.4161 11.2479 51.3469 9.56598C53.6808 8.20961 55.9603 6.90749 58.2941 5.55112C59.651 4.7373 61.0078 3.97774 62.3647 3.16392C64.6442 1.86181 67.0866 0.939487 69.6918 0.451196C75.065 -0.525386 81.0895 0.0171662 85.9199 2.72989C86.6255 3.10968 87.2768 3.5437 87.9823 3.92349C89.7734 4.95432 91.6187 5.98517 93.4098 7.07026C96.015 8.58939 98.6202 10.1085 101.28 11.6276C104.373 13.418 107.467 15.2084 110.561 16.9988C113.817 18.8978 117.074 20.7424 120.33 22.6413C123.424 24.4317 126.463 26.1679 129.557 27.9583C132.162 29.4774 134.767 30.9423 137.372 32.4614C139.163 33.4922 140.954 34.5231 142.691 35.5539C143.288 35.9337 143.885 36.3135 144.537 36.6933Z" transform="translate(91.797 191.905)" fill="#DCDCDC"/>
<path d="M192.349 0.379779C192.132 4.39462 188.822 7.0531 185.619 8.89775C183.991 9.82008 182.363 10.7967 180.789 11.719C177.967 13.3466 175.09 15.0285 172.268 16.6561C168.631 18.7721 164.995 20.888 161.359 23.0039C157.288 25.3911 153.217 27.7241 149.147 30.1113C145.076 32.4985 141.006 34.8314 136.935 37.2186C133.244 39.3888 129.554 41.5048 125.863 43.6749C122.986 45.3568 120.11 47.0387 117.233 48.7206C115.551 49.6972 113.814 50.6738 112.131 51.7046C108.875 53.6035 105.347 54.8514 101.602 55.3939C94.9264 56.3162 87.5993 55.5567 81.6834 52.1386C80.5436 51.4876 79.4581 50.8365 78.3183 50.1855C75.876 48.7749 73.3793 47.3642 70.937 45.8994C67.5177 43.9462 64.0984 41.9388 60.6791 39.9856C56.717 37.7069 52.7007 35.374 48.7386 33.0953C44.6138 30.7081 40.4889 28.3209 36.4183 25.9879C32.5648 23.7635 28.657 21.5391 24.8035 19.3146C21.547 17.47 18.3448 15.5711 15.0884 13.7264C12.9174 12.4785 10.6921 11.1764 8.52112 9.92859C7.32708 9.22328 6.13304 8.57222 4.99327 7.81266C2.38808 6.02226 0.108549 3.30954 0.108549 6.62287e-06C0.108549 3.68932 0.108549 7.43288 0.0542747 11.1222C0.0542747 17.0359 1.61748e-09 22.8954 1.61748e-09 28.8092C1.61748e-09 30.1113 1.61748e-09 31.4134 1.61748e-09 32.7698C1.61748e-09 36.6761 2.98511 39.6058 6.18731 41.4505C7.76128 42.3728 9.33524 43.2409 10.8549 44.1632C14.7084 46.3877 18.5077 48.5578 22.3612 50.7823C27.5173 53.7663 32.6191 56.696 37.7752 59.68C43.3112 62.8811 48.7929 66.0278 54.3289 69.2288C59.2137 72.0501 64.1526 74.8713 69.0374 77.7468C72.3481 79.6457 75.7132 81.5989 79.0239 83.4978C79.7837 83.9318 80.5979 84.4201 81.3577 84.8541C83.583 86.1563 85.9711 87.0786 88.4677 87.6754C96.0119 89.4658 104.696 88.869 111.48 84.9084C113.597 83.6606 115.714 82.4669 117.776 81.2191C121.955 78.7776 126.134 76.3362 130.313 73.949C135.632 70.8565 140.951 67.764 146.216 64.7257C151.643 61.5789 157.125 58.3779 162.553 55.2312C167.166 52.5727 171.779 49.86 176.393 47.2015C179.215 45.5738 182.037 43.8919 184.859 42.2643C185.294 41.993 185.728 41.776 186.216 41.5048C189.364 39.6601 192.241 36.7846 192.295 32.9325C192.349 28.8092 192.295 24.6316 192.349 20.5082C192.349 14.7572 192.404 9.06051 192.404 3.30952C192.404 2.27869 192.404 1.30212 192.404 0.271279C192.349 0.16277 192.349 0.27127 192.349 0.379779Z" transform="translate(70.3073 203.912)" fill="#3B407F"/>
<path d="M186.229 47.2501C188.997 48.8235 191.71 51.3192 192.307 54.6287C192.85 57.667 191.276 60.434 189.105 62.3871C187.694 63.635 186.066 64.5031 184.438 65.4796C182.267 66.7275 180.15 67.9753 177.979 69.2232C174.722 71.1221 171.52 72.9668 168.264 74.8657C164.302 77.1444 160.394 79.4231 156.432 81.756C152.253 84.1975 148.074 86.5847 143.894 89.0261C139.878 91.3591 135.807 93.692 131.791 96.0792C128.372 98.0866 124.953 100.04 121.533 102.047C119.091 103.458 116.648 104.868 114.206 106.279C113.229 106.876 112.252 107.418 111.221 108.015C105.468 111.325 98.3579 112.139 91.845 111.27C87.9915 110.782 84.3551 109.589 81.0443 107.635C79.4161 106.713 77.7878 105.737 76.1596 104.814C73.283 103.132 70.4065 101.505 67.5299 99.8228C63.785 97.6526 60.04 95.4824 56.2951 93.3665C52.1702 90.9793 48.0453 88.5921 43.9204 86.2049C39.7413 83.8177 35.6164 81.4305 31.4373 78.989C27.7466 76.8731 24.0016 74.7029 20.311 72.587C17.4344 70.9051 14.5036 69.2232 11.627 67.5956C9.99877 66.6732 8.37053 65.7509 6.79657 64.7743C3.70291 62.9839 0.554981 60.5425 0.0665094 56.7447C-0.530512 52.35 2.99734 49.0948 6.41665 47.0873C7.88206 46.2193 9.34748 45.4054 10.8129 44.5374C13.5809 42.9097 16.3489 41.3364 19.0626 39.7087C22.7533 37.5928 26.3897 35.4769 30.0804 33.3067C34.2053 30.9195 38.2759 28.5323 42.4007 26.1451C46.5799 23.7036 50.759 21.3164 54.8839 18.875C58.6289 16.7048 62.3738 14.5346 66.173 12.3102C69.1581 10.574 72.1433 8.83786 75.1284 7.10172C76.8652 6.07088 78.602 5.0943 80.3387 4.06347C83.3238 2.32732 86.4718 1.13372 89.8911 0.536919C96.784 -0.656682 104.545 0.0486227 110.733 3.57517C111.601 4.06346 112.469 4.60601 113.338 5.0943C115.672 6.45066 118.005 7.80703 120.339 9.16339C123.704 11.1166 127.069 13.0697 130.434 15.0229C134.451 17.3016 138.413 19.6345 142.429 21.9132C146.608 24.3547 150.842 26.7419 155.021 29.1833C158.983 31.462 162.999 33.795 166.961 36.0737C170.326 38.0268 173.637 39.9257 177.002 41.8789C179.281 43.181 181.561 44.5374 183.841 45.8395C184.655 46.3278 185.469 46.7618 186.229 47.2501Z" transform="translate(70.2408 148.09)" fill="#444A9D"/>
<path d="M149.31 0.325534C149.147 3.36379 146.65 5.4797 144.153 6.89032C142.959 7.59563 141.711 8.30096 140.517 9.00626C138.346 10.2541 136.121 11.5562 133.95 12.8041C131.128 14.4317 128.251 16.1136 125.429 17.7412C122.281 19.5859 119.079 21.4306 115.931 23.2752C112.728 25.1199 109.581 26.9645 106.378 28.8092C103.502 30.4911 100.625 32.173 97.7486 33.8549C95.4691 35.157 93.2439 36.4591 90.9643 37.8154C89.6617 38.575 88.3591 39.3346 87.0023 40.0941C84.3971 41.6133 81.6291 42.5356 78.644 42.9696C73.5422 43.6207 67.9519 43.0239 63.4471 40.4739C62.6329 40.0399 61.8731 39.5516 61.059 39.1175C59.1594 38.0325 57.314 36.9474 55.4144 35.8623C52.755 34.3432 50.1498 32.824 47.4903 31.3049C44.3967 29.5145 41.303 27.7241 38.2094 25.9337C35.0071 24.089 31.7507 22.1901 28.5485 20.3455C25.5091 18.6093 22.4697 16.8189 19.4303 15.0828C16.8794 13.6179 14.3285 12.153 11.7776 10.6881C10.0408 9.71156 8.30402 8.68072 6.62151 7.70414C5.69884 7.1616 4.7219 6.67331 3.8535 6.0765C1.84534 4.66589 0.0542755 2.60422 0.0542755 3.31144e-06C0.0542755 2.92975 0.0542755 5.80525 0.0542755 8.73499C0.0542755 13.3466 0.0542742 17.904 -4.14083e-07 22.5156C-4.14083e-07 23.4922 -4.14083e-07 24.4688 -4.14083e-07 25.4454C-4.14083e-07 28.4836 2.33381 30.7081 4.77617 32.173C6.02449 32.9325 7.32708 33.6378 8.57539 34.3431C11.6148 36.0793 14.6542 37.8697 17.6935 39.6058C21.7099 41.9388 25.7805 44.2717 29.7968 46.6047C34.0845 49.1004 38.3722 51.5418 42.6599 54.0376C46.4591 56.2077 50.2583 58.4322 54.0033 60.6023C56.4999 62.0672 59.0508 63.5321 61.5475 64.9427C62.0902 65.2682 62.633 65.5938 63.23 65.9193C65.1296 67.0044 67.2463 67.7639 69.4173 68.198C75.0618 69.3916 81.4663 68.7948 86.5138 65.865C88.142 64.9427 89.7703 63.9661 91.3985 63.0438C94.655 61.1449 97.9658 59.246 101.222 57.3471C105.347 54.9599 109.472 52.5727 113.597 50.1855C117.83 47.744 122.118 45.2483 126.351 42.8069C129.934 40.7452 133.516 38.6293 137.152 36.5676C139.323 35.3197 141.494 34.0719 143.665 32.7698C146.433 31.1964 149.255 29.0805 149.31 25.5539C149.364 22.3529 149.31 19.1519 149.31 16.0051C149.31 11.5562 149.31 7.05309 149.364 2.60422C149.364 1.7904 149.364 0.976579 149.364 0.16276C149.31 0.108506 149.31 0.217025 149.31 0.325534Z" transform="translate(91.8 173.204)" fill="#149CF9"/>
<g filter="url(#filter3_f)">
<path d="M149.31 0.325534C149.147 3.36379 146.65 5.4797 144.153 6.89032C142.959 7.59563 141.711 8.30096 140.517 9.00626C138.346 10.2541 136.121 11.5562 133.95 12.8041C131.128 14.4317 128.251 16.1136 125.429 17.7412C122.281 19.5859 119.079 21.4306 115.931 23.2752C112.728 25.1199 109.581 26.9645 106.378 28.8092C103.502 30.4911 100.625 32.173 97.7486 33.8549C95.4691 35.157 93.2439 36.4591 90.9643 37.8154C89.6617 38.575 88.3591 39.3346 87.0023 40.0941C84.3971 41.6133 81.6291 42.5356 78.644 42.9696C73.5422 43.6207 67.9519 43.0239 63.4471 40.4739C62.6329 40.0399 61.8731 39.5516 61.059 39.1175C59.1594 38.0325 57.314 36.9474 55.4144 35.8623C52.755 34.3432 50.1498 32.824 47.4903 31.3049C44.3967 29.5145 41.303 27.7241 38.2094 25.9337C35.0071 24.089 31.7507 22.1901 28.5485 20.3455C25.5091 18.6093 22.4697 16.8189 19.4303 15.0828C16.8794 13.6179 14.3285 12.153 11.7776 10.6881C10.0408 9.71156 8.30402 8.68072 6.62151 7.70414C5.69884 7.1616 4.7219 6.67331 3.8535 6.0765C1.84534 4.66589 0.0542755 2.60422 0.0542755 3.31144e-06C0.0542755 2.92975 0.0542755 5.80525 0.0542755 8.73499C0.0542755 13.3466 0.0542742 17.904 -4.14083e-07 22.5156C-4.14083e-07 23.4922 -4.14083e-07 24.4688 -4.14083e-07 25.4454C-4.14083e-07 28.4836 2.33381 30.7081 4.77617 32.173C6.02449 32.9325 7.32708 33.6378 8.57539 34.3431C11.6148 36.0793 14.6542 37.8697 17.6935 39.6058C21.7099 41.9388 25.7805 44.2717 29.7968 46.6047C34.0845 49.1004 38.3722 51.5418 42.6599 54.0376C46.4591 56.2077 50.2583 58.4322 54.0033 60.6023C56.4999 62.0672 59.0508 63.5321 61.5475 64.9427C62.0902 65.2682 62.633 65.5938 63.23 65.9193C65.1296 67.0044 67.2463 67.7639 69.4173 68.198C75.0618 69.3916 81.4663 68.7948 86.5138 65.865C88.142 64.9427 89.7703 63.9661 91.3985 63.0438C94.655 61.1449 97.9658 59.246 101.222 57.3471C105.347 54.9599 109.472 52.5727 113.597 50.1855C117.83 47.744 122.118 45.2483 126.351 42.8069C129.934 40.7452 133.516 38.6293 137.152 36.5676C139.323 35.3197 141.494 34.0719 143.665 32.7698C146.433 31.1964 149.255 29.0805 149.31 25.5539C149.364 22.3529 149.31 19.1519 149.31 16.0051C149.31 11.5562 149.31 7.05309 149.364 2.60422C149.364 1.7904 149.364 0.976579 149.364 0.16276C149.31 0.108506 149.31 0.217025 149.31 0.325534Z" transform="translate(91.8 173.204)" fill="#149CF9"/>
</g>
<path d="M144.537 36.639C146.708 37.8869 148.77 39.7858 149.258 42.3357C149.693 44.6144 148.499 46.7846 146.87 48.3037C145.785 49.3346 144.482 50.0399 143.18 50.7452C141.497 51.7218 139.869 52.6441 138.186 53.6207C135.69 55.0855 133.139 56.5504 130.642 58.0153C127.603 59.8057 124.563 61.5419 121.524 63.3323C118.268 65.2312 115.011 67.1301 111.755 68.9747C108.607 70.7651 105.513 72.6098 102.365 74.4002C99.7057 75.9736 97.0462 77.4927 94.3325 79.0661C92.4329 80.1512 90.5332 81.2362 88.6879 82.3756C87.9281 82.8096 87.1139 83.2979 86.3541 83.732C81.9578 86.2819 76.4761 86.8787 71.4828 86.2819C68.4435 85.9021 65.6212 84.9798 62.9617 83.4607C61.7134 82.7554 60.4651 81.9958 59.2168 81.2905C56.9915 79.9884 54.7663 78.6863 52.4867 77.4384C49.6102 75.7565 46.6793 74.1289 43.8028 72.447C40.6006 70.6024 37.3441 68.7577 34.1419 66.8588C30.9397 65.0141 27.6832 63.1152 24.481 61.2706C21.6044 59.5887 18.6736 57.9068 15.797 56.2792C13.5718 54.977 11.2922 53.6749 9.06699 52.3728C7.81867 51.6675 6.51608 50.9079 5.26776 50.2026C2.87968 48.8463 0.491591 46.9474 0.0573942 44.0719C-0.431078 40.6538 2.28265 38.0496 4.99639 36.5305C6.13616 35.8794 7.22165 35.2284 8.36142 34.5773C10.4781 33.3295 12.6491 32.0816 14.7658 30.8338C17.5881 29.2061 20.4104 27.5242 23.2869 25.8966C26.4891 24.0519 29.6914 22.2073 32.8936 20.3084C36.0958 18.4095 39.3522 16.5648 42.5545 14.6659C45.4853 12.984 48.4161 11.2479 51.3469 9.56597C53.6808 8.20961 55.9603 6.90749 58.2941 5.55113C59.651 4.73731 61.0078 3.97775 62.3647 3.16393C64.6442 1.86182 67.0866 0.939492 69.6918 0.451201C75.065 -0.525381 81.0895 0.0171631 85.9199 2.72989C86.6255 3.10967 87.2768 3.54371 87.9823 3.92349C89.7734 4.95433 91.6187 5.98517 93.4098 7.07026C96.015 8.58939 98.6202 10.1085 101.28 11.6276C104.373 13.418 107.467 15.2084 110.561 16.9988C113.817 18.8978 117.074 20.7424 120.33 22.6413C123.424 24.4317 126.463 26.1679 129.557 27.9583C132.162 29.4774 134.767 30.9423 137.372 32.4614C139.163 33.4922 140.954 34.5231 142.691 35.5539C143.288 35.8794 143.885 36.2592 144.537 36.639Z" transform="translate(91.797 135.697)" fill="#DCDCDC"/>
<path d="M192.349 0.379779C192.132 4.39462 188.822 7.0531 185.619 8.89775C183.991 9.82008 182.363 10.7967 180.789 11.719C177.967 13.3466 175.09 15.0285 172.268 16.6561C168.631 18.7721 164.995 20.888 161.359 23.0039C157.288 25.3911 153.217 27.7241 149.147 30.1113C145.076 32.4985 141.006 34.8314 136.935 37.2186C133.244 39.3888 129.554 41.5048 125.863 43.6749C122.986 45.3568 120.11 47.0387 117.233 48.7206C115.551 49.6972 113.814 50.6738 112.131 51.7046C108.875 53.6035 105.347 54.8514 101.602 55.3939C94.9264 56.3162 87.5993 55.5567 81.6834 52.1386C80.5436 51.4876 79.4581 50.8365 78.3183 50.1855C75.876 48.7749 73.3793 47.3642 70.937 45.8994C67.5177 43.9462 64.0984 41.9388 60.6791 39.9856C56.717 37.7069 52.7007 35.374 48.7386 33.0953C44.6138 30.7081 40.4889 28.3209 36.4183 25.9879C32.5648 23.7635 28.657 21.5391 24.8035 19.3146C21.547 17.47 18.3448 15.5711 15.0884 13.7264C12.9174 12.4785 10.6921 11.1764 8.52112 9.92859C7.32708 9.22328 6.13304 8.57222 4.99327 7.81266C2.38808 6.02226 0.108549 3.30953 0.108549 -1.65572e-06C0.108549 3.68931 0.108549 7.43287 0.0542747 11.1222C0.0542747 17.0359 1.61748e-09 22.8954 1.61748e-09 28.8092C1.61748e-09 30.1113 1.61748e-09 31.4134 1.61748e-09 32.7698C1.61748e-09 36.6761 2.98511 39.6058 6.18731 41.4505C7.76128 42.3728 9.33524 43.2409 10.8549 44.1632C14.7084 46.3877 18.5077 48.5578 22.3612 50.7823C27.5173 53.7663 32.6191 56.696 37.7752 59.68C43.3112 62.8811 48.7929 66.0278 54.3289 69.2288C59.2137 72.0501 64.1526 74.8713 69.0374 77.7468C72.3481 79.6457 75.7132 81.5989 79.0239 83.4978C79.7837 83.9318 80.5979 84.4201 81.3577 84.8541C83.583 86.1563 85.9711 87.0786 88.4677 87.6754C96.0119 89.4658 104.696 88.869 111.48 84.9084C113.597 83.6606 115.714 82.4669 117.776 81.2191C121.955 78.7776 126.134 76.3362 130.313 73.949C135.632 70.8565 140.951 67.764 146.216 64.7257C151.643 61.5789 157.125 58.3779 162.553 55.2312C167.166 52.5727 171.779 49.86 176.393 47.2015C179.215 45.5738 182.037 43.8919 184.859 42.2643C185.294 41.993 185.728 41.776 186.216 41.5048C189.364 39.6601 192.241 36.7846 192.295 32.9325C192.349 28.8092 192.295 24.6316 192.349 20.5082C192.349 14.7572 192.404 9.06051 192.404 3.30953C192.404 2.27869 192.404 1.30211 192.404 0.271271C192.349 0.108507 192.349 0.217015 192.349 0.379779Z" transform="translate(70.3073 140.977)" fill="#3B407F"/>
<path d="M186.229 47.2501C188.997 48.8235 191.71 51.3192 192.307 54.6287C192.85 57.667 191.276 60.434 189.105 62.3871C187.694 63.635 186.066 64.5031 184.438 65.4796C182.267 66.7275 180.15 67.9753 177.979 69.2232C174.722 71.1221 171.52 72.9668 168.264 74.8657C164.302 77.1444 160.394 79.4231 156.432 81.756C152.253 84.1975 148.074 86.5847 143.894 89.0261C139.878 91.3591 135.807 93.692 131.791 96.0792C128.372 98.0866 124.953 100.04 121.533 102.047C119.091 103.458 116.648 104.868 114.206 106.279C113.229 106.876 112.252 107.418 111.221 108.015C105.468 111.325 98.3579 112.139 91.845 111.271C87.9915 110.782 84.3551 109.589 81.0443 107.635C79.4161 106.713 77.7878 105.737 76.1596 104.814C73.283 103.132 70.4065 101.505 67.5299 99.8228C63.785 97.6526 60.04 95.4824 56.2951 93.3665C52.1702 90.9793 48.0453 88.5921 43.9204 86.2049C39.7413 83.8177 35.6164 81.4305 31.4373 78.989C27.7466 76.8731 24.0016 74.7029 20.311 72.587C17.4344 70.9051 14.5036 69.2232 11.627 67.5956C9.99877 66.6732 8.37053 65.7509 6.79657 64.7743C3.70291 62.9839 0.554981 60.5425 0.0665094 56.7447C-0.530512 52.35 2.99734 49.0948 6.41665 47.0873C7.88206 46.2193 9.34748 45.4054 10.8129 44.5374C13.5809 42.9097 16.3489 41.3364 19.0626 39.7087C22.7533 37.5928 26.3897 35.4769 30.0804 33.3067C34.2053 30.9195 38.2759 28.5323 42.4007 26.1451C46.5799 23.7036 50.759 21.3164 54.8839 18.875C58.6289 16.7048 62.3738 14.5346 66.173 12.3102C69.1581 10.574 72.1433 8.83787 75.1284 7.10172C76.8652 6.07088 78.602 5.0943 80.3387 4.06346C83.3238 2.32731 86.4718 1.13371 89.8911 0.536914C96.784 -0.656687 104.545 0.0486261 110.733 3.57517C111.601 4.06346 112.469 4.60601 113.338 5.0943C115.672 6.45067 118.005 7.80703 120.339 9.1634C123.704 11.1166 127.069 13.0697 130.434 15.0229C134.451 17.3016 138.413 19.6345 142.429 21.9132C146.608 24.3547 150.842 26.7419 155.021 29.1833C158.983 31.462 162.999 33.795 166.961 36.0737C170.326 38.0268 173.637 39.9257 177.002 41.8789C179.281 43.181 181.561 44.5374 183.841 45.8395C184.655 46.2735 185.469 46.7618 186.229 47.2501Z" transform="translate(70.2408 90.9059)" fill="#444A9D"/>
<path d="M149.31 0.325531C149.147 3.36379 146.65 5.47971 144.153 6.89033C142.959 7.59564 141.711 8.30095 140.517 9.00626C138.346 10.2541 136.121 11.5562 133.95 12.8041C131.128 14.4317 128.251 16.1136 125.429 17.7412C122.281 19.5859 119.079 21.4306 115.931 23.2752C112.728 25.1199 109.581 26.9645 106.378 28.8092C103.502 30.4911 100.625 32.173 97.7486 33.8548C95.4691 35.157 93.2439 36.4591 90.9643 37.8154C89.6617 38.575 88.3591 39.3346 87.0023 40.0941C84.3971 41.6133 81.6291 42.5356 78.644 42.9696C73.5422 43.6207 67.9519 43.0239 63.4471 40.4739C62.6329 40.0399 61.8731 39.5516 61.059 39.1175C59.1594 38.0325 57.314 36.9474 55.4144 35.8623C52.755 34.3431 50.1498 32.824 47.4903 31.3049C44.3967 29.5145 41.303 27.7241 38.2094 25.9337C35.0071 24.089 31.7507 22.1901 28.5485 20.3455C25.5091 18.6093 22.4697 16.8189 19.4303 15.0828C16.8794 13.6179 14.3285 12.153 11.7776 10.6881C10.0408 9.71157 8.30402 8.68073 6.62151 7.70415C5.69884 7.1616 4.7219 6.67331 3.8535 6.07651C1.84534 4.66589 0.0542755 2.60422 0.0542755 0C0.0542755 2.92975 0.0542755 5.80524 0.0542755 8.73499C0.0542755 13.3466 0.0542742 17.904 -4.14083e-07 22.5156C-4.14083e-07 23.4922 -4.14083e-07 24.4688 -4.14083e-07 25.4454C-4.14083e-07 28.4836 2.33381 30.7081 4.77617 32.173C6.02449 32.9325 7.32708 33.6378 8.57539 34.3431C11.6148 36.0793 14.6542 37.8697 17.6935 39.6058C21.7099 41.9388 25.7805 44.2717 29.7968 46.6047C34.0845 49.1004 38.3722 51.5418 42.6599 54.0376C46.4591 56.2077 50.2583 58.4322 54.0033 60.6024C56.4999 62.0672 59.0508 63.5321 61.5475 64.9427C62.0902 65.2682 62.633 65.5938 63.23 65.9193C65.1296 67.0044 67.2463 67.764 69.4173 68.198C75.0618 69.3916 81.4663 68.7948 86.5138 65.865C88.142 64.9427 89.7703 63.9661 91.3985 63.0438C94.655 61.1449 97.9658 59.246 101.222 57.3471C105.347 54.9599 109.472 52.5727 113.597 50.1855C117.83 47.744 122.118 45.2483 126.351 42.8069C129.934 40.7452 133.516 38.6292 137.152 36.5676C139.323 35.3197 141.494 34.0719 143.665 32.7698C146.433 31.1964 149.255 29.0805 149.31 25.5539C149.364 22.3529 149.31 19.1519 149.31 16.0051C149.31 11.5562 149.31 7.0531 149.364 2.60422C149.364 1.7904 149.364 0.976584 149.364 0.162765C149.31 0.162765 149.31 0.217022 149.31 0.325531Z" transform="translate(91.8 110.215)" fill="#149CF9"/>
<g filter="url(#filter4_f)">
<path d="M149.31 0.325531C149.147 3.36379 146.65 5.47971 144.153 6.89033C142.959 7.59564 141.711 8.30095 140.517 9.00626C138.346 10.2541 136.121 11.5562 133.95 12.8041C131.128 14.4317 128.251 16.1136 125.429 17.7412C122.281 19.5859 119.079 21.4306 115.931 23.2752C112.728 25.1199 109.581 26.9645 106.378 28.8092C103.502 30.4911 100.625 32.173 97.7486 33.8548C95.4691 35.157 93.2439 36.4591 90.9643 37.8154C89.6617 38.575 88.3591 39.3346 87.0023 40.0941C84.3971 41.6133 81.6291 42.5356 78.644 42.9696C73.5422 43.6207 67.9519 43.0239 63.4471 40.4739C62.6329 40.0399 61.8731 39.5516 61.059 39.1175C59.1594 38.0325 57.314 36.9474 55.4144 35.8623C52.755 34.3431 50.1498 32.824 47.4903 31.3049C44.3967 29.5145 41.303 27.7241 38.2094 25.9337C35.0071 24.089 31.7507 22.1901 28.5485 20.3455C25.5091 18.6093 22.4697 16.8189 19.4303 15.0828C16.8794 13.6179 14.3285 12.153 11.7776 10.6881C10.0408 9.71157 8.30402 8.68073 6.62151 7.70415C5.69884 7.1616 4.7219 6.67331 3.8535 6.07651C1.84534 4.66589 0.0542755 2.60422 0.0542755 0C0.0542755 2.92975 0.0542755 5.80524 0.0542755 8.73499C0.0542755 13.3466 0.0542742 17.904 -4.14083e-07 22.5156C-4.14083e-07 23.4922 -4.14083e-07 24.4688 -4.14083e-07 25.4454C-4.14083e-07 28.4836 2.33381 30.7081 4.77617 32.173C6.02449 32.9325 7.32708 33.6378 8.57539 34.3431C11.6148 36.0793 14.6542 37.8697 17.6935 39.6058C21.7099 41.9388 25.7805 44.2717 29.7968 46.6047C34.0845 49.1004 38.3722 51.5418 42.6599 54.0376C46.4591 56.2077 50.2583 58.4322 54.0033 60.6024C56.4999 62.0672 59.0508 63.5321 61.5475 64.9427C62.0902 65.2682 62.633 65.5938 63.23 65.9193C65.1296 67.0044 67.2463 67.764 69.4173 68.198C75.0618 69.3916 81.4663 68.7948 86.5138 65.865C88.142 64.9427 89.7703 63.9661 91.3985 63.0438C94.655 61.1449 97.9658 59.246 101.222 57.3471C105.347 54.9599 109.472 52.5727 113.597 50.1855C117.83 47.744 122.118 45.2483 126.351 42.8069C129.934 40.7452 133.516 38.6292 137.152 36.5676C139.323 35.3197 141.494 34.0719 143.665 32.7698C146.433 31.1964 149.255 29.0805 149.31 25.5539C149.364 22.3529 149.31 19.1519 149.31 16.0051C149.31 11.5562 149.31 7.0531 149.364 2.60422C149.364 1.7904 149.364 0.976584 149.364 0.162765C149.31 0.162765 149.31 0.217022 149.31 0.325531Z" transform="translate(91.8 110.215)" fill="#149CF9"/>
</g>
<path d="M144.537 36.639C146.708 37.8869 148.77 39.7858 149.258 42.3357C149.693 44.6144 148.499 46.7846 146.87 48.3037C145.785 49.3346 144.482 50.0399 143.18 50.7452C141.497 51.7218 139.869 52.6441 138.186 53.6207C135.69 55.0856 133.139 56.5504 130.642 58.0153C127.603 59.8057 124.563 61.5419 121.524 63.3323C118.268 65.2312 115.011 67.1301 111.755 68.9747C108.607 70.7651 105.513 72.6098 102.365 74.4002C99.7057 75.9736 97.0462 77.4927 94.3325 79.0661C92.4329 80.1512 90.5332 81.2363 88.6879 82.3756C87.9281 82.8096 87.1139 83.2979 86.3541 83.732C81.9578 86.2819 76.4761 86.8787 71.4828 86.2819C68.4435 85.9021 65.6212 84.9798 62.9617 83.4607C61.7134 82.7554 60.4651 81.9958 59.2168 81.2905C56.9915 79.9884 54.7663 78.6863 52.4867 77.4384C49.6102 75.7565 46.6793 74.1289 43.8028 72.447C40.6006 70.6024 37.3441 68.7577 34.1419 66.8588C30.9397 65.0141 27.6832 63.1152 24.481 61.2706C21.6044 59.5887 18.6736 57.9068 15.797 56.2792C13.5718 54.977 11.2922 53.6749 9.06699 52.3728C7.81867 51.6675 6.51608 50.9079 5.26776 50.2026C2.87968 48.8463 0.491591 46.9474 0.0573942 44.0719C-0.431078 40.6538 2.28265 38.0496 4.99639 36.5305C6.13616 35.8794 7.22165 35.2284 8.36142 34.5773C10.4781 33.3295 12.6491 32.0816 14.7658 30.8338C17.5881 29.2061 20.4104 27.5242 23.2869 25.8966C26.4891 24.0519 29.6914 22.2073 32.8936 20.3084C36.0958 18.4095 39.3522 16.5648 42.5545 14.6659C45.4853 12.984 48.4161 11.2479 51.3469 9.56597C53.6808 8.2096 55.9603 6.90749 58.2941 5.55113C59.651 4.73731 61.0078 3.97775 62.3647 3.16393C64.6442 1.86182 67.0866 0.939489 69.6918 0.451198C75.065 -0.525384 81.0895 0.0171638 85.9199 2.72989C86.6255 3.10967 87.2768 3.54371 87.9823 3.92349C89.7734 4.95433 91.6187 5.98517 93.4098 7.07026C96.015 8.58939 98.6202 10.1085 101.28 11.6276C104.373 13.418 107.467 15.2084 110.561 16.9988C113.817 18.8978 117.074 20.7424 120.33 22.6413C123.424 24.4317 126.463 26.1679 129.557 27.9583C132.162 29.4774 134.767 30.9423 137.372 32.4614C139.163 33.4922 140.954 34.5231 142.691 35.5539C143.288 35.9337 143.885 36.3135 144.537 36.639Z" transform="translate(91.797 72.7078)" fill="#DCDCDC"/>
<path d="M192.349 0.379782C192.132 4.39462 188.822 7.05309 185.619 8.89775C183.991 9.82008 182.363 10.7967 180.789 11.719C177.967 13.3466 175.09 15.0285 172.268 16.6562C168.631 18.7721 164.995 20.888 161.359 23.0039C157.288 25.3911 153.217 27.7241 149.147 30.1113C145.076 32.4985 141.006 34.8314 136.935 37.2186C133.244 39.3888 129.554 41.5047 125.863 43.6749C122.986 45.3568 120.11 47.0387 117.233 48.7206C115.551 49.6972 113.814 50.6738 112.131 51.7046C108.875 53.6035 105.347 54.8514 101.602 55.3939C94.9264 56.3162 87.5993 55.5567 81.6834 52.1386C80.5436 51.4876 79.4581 50.8365 78.3183 50.1855C75.876 48.7749 73.3793 47.3642 70.937 45.8994C67.5177 43.9462 64.0984 41.9388 60.6791 39.9856C56.717 37.7069 52.7007 35.374 48.7386 33.0953C44.6138 30.7081 40.4889 28.3209 36.4183 25.9879C32.5648 23.7635 28.657 21.5391 24.8035 19.3146C21.547 17.47 18.3448 15.5711 15.0884 13.7264C12.9174 12.4786 10.6921 11.1764 8.52112 9.92859C7.32708 9.22328 6.13304 8.57222 4.99327 7.81266C2.38808 6.02226 0.108549 3.30953 0.108549 1.65572e-06C0.108549 3.68931 0.108549 7.43288 0.0542747 11.1222C0.0542747 17.0359 1.61748e-09 22.8954 1.61748e-09 28.8092C1.61748e-09 30.1113 1.61748e-09 31.4134 1.61748e-09 32.7698C1.61748e-09 36.6761 2.98511 39.6058 6.18731 41.4505C7.76128 42.3728 9.33524 43.2409 10.8549 44.1632C14.7084 46.3877 18.5077 48.5578 22.3612 50.7823C27.5173 53.7663 32.6191 56.696 37.7752 59.68C43.3112 62.881 48.7929 66.0278 54.3289 69.2288C59.2137 72.0501 64.1526 74.8713 69.0374 77.7468C72.3481 79.6457 75.7132 81.5989 79.0239 83.4978C79.7837 83.9318 80.5979 84.4201 81.3577 84.8541C83.583 86.1563 85.9711 87.0786 88.4677 87.6754C96.0119 89.4658 104.696 88.869 111.48 84.9084C113.597 83.6605 115.714 82.4669 117.776 81.2191C121.955 78.7776 126.134 76.3362 130.313 73.949C135.632 70.8565 140.951 67.764 146.216 64.7257C151.643 61.5789 157.125 58.3779 162.553 55.2312C167.166 52.5727 171.779 49.8599 176.393 47.2015C179.215 45.5738 182.037 43.8919 184.859 42.2643C185.294 41.993 185.728 41.776 186.216 41.5047C189.364 39.6601 192.241 36.7846 192.295 32.9325C192.349 28.8092 192.295 24.6316 192.349 20.5082C192.349 14.7572 192.404 9.06051 192.404 3.30953C192.404 2.27869 192.404 1.30211 192.404 0.271274C192.349 0.108511 192.349 0.271273 192.349 0.379782Z" transform="translate(70.3073 76.7398)" fill="#3B407F"/>
<path d="M186.218 47.2501C188.986 48.8235 191.699 51.3192 192.296 54.6287C192.839 57.667 191.265 60.434 189.094 62.3871C187.683 63.635 186.055 64.5031 184.427 65.4796C182.256 66.7275 180.139 67.9753 177.968 69.2232C174.711 71.1221 171.509 72.9668 168.253 74.8657C164.291 77.1444 160.383 79.4231 156.421 81.756C152.242 84.1975 148.063 86.5847 143.883 89.0261C139.867 91.3591 135.797 93.692 131.78 96.0792C128.361 98.0866 124.942 100.04 121.522 102.047C119.08 103.458 116.638 104.868 114.195 106.279C113.218 106.876 112.241 107.418 111.21 108.015C105.457 111.325 98.347 112.139 91.834 111.27C87.9805 110.782 84.3441 109.589 81.0334 107.635C79.4051 106.713 77.7769 105.737 76.1487 104.814C73.2721 103.132 70.3955 101.505 67.519 99.8228C63.774 97.6526 60.0291 95.4824 56.2841 93.3665C52.1593 90.9793 48.0344 88.5921 43.9095 86.2049C39.7304 83.8177 35.6055 81.4305 31.4263 78.989C27.7357 76.8731 23.9907 74.7029 20.3 72.587C17.4235 70.9051 14.4926 69.2232 11.6161 67.5956C9.98784 66.6732 8.3596 65.7509 6.78564 64.7743C3.69198 62.9839 0.544053 60.5425 0.0555812 56.7447C-0.487165 52.35 3.04069 49.0948 6.45999 47.0873C7.92541 46.2193 9.39082 45.4054 10.8562 44.5374C13.6242 42.9097 16.3923 41.3364 19.106 39.7087C22.7967 37.5928 26.4331 35.4769 30.1237 33.3067C34.2486 30.9195 38.3192 28.5323 42.4441 26.1451C46.6232 23.7036 50.8024 21.3164 54.9273 18.875C58.6722 16.7048 62.4172 14.5346 66.2164 12.3102C69.2015 10.574 72.1866 8.83787 75.1717 7.10172C76.9085 6.07088 78.6453 5.0943 80.3821 4.06346C83.3672 2.32732 86.5151 1.13372 89.9344 0.536917C96.8273 -0.656683 104.589 0.0486261 110.776 3.57517C111.644 4.06346 112.513 4.60601 113.381 5.0943C115.715 6.45067 118.049 7.80703 120.382 9.16339C123.748 11.1166 127.113 13.0697 130.478 15.0229C134.494 17.3016 138.456 19.6345 142.472 21.9132C146.651 24.3547 150.885 26.7419 155.064 29.1833C159.026 31.462 163.042 33.795 167.004 36.0737C170.369 38.0268 173.68 39.9257 177.045 41.8789C179.325 43.181 181.604 44.5374 183.884 45.8395C184.644 46.3278 185.458 46.8161 186.218 47.2501Z" transform="translate(70.253 20.8632)" fill="#444A9D"/>
<path d="M86.7205 22.8064C89.7411 24.5668 89.7635 27.4332 86.7653 29.1936L50.0936 50.6797C47.0954 52.4401 42.1954 52.4401 39.1749 50.6797L2.27946 29.171C-0.741083 27.4106 -0.763457 24.5443 2.23472 22.7839L38.9064 1.32031C41.9046 -0.440104 46.8046 -0.440104 49.8251 1.32031L86.7205 22.8064Z" transform="translate(211 102) rotate(180)" fill="#149CF9"/>
<mask id="mask0" mask-type="alpha" maskUnits="userSpaceOnUse" x="122" y="50" width="89" height="53">
<path d="M86.7205 22.8064C89.7411 24.5668 89.7635 27.4332 86.7653 29.1936L50.0936 50.6797C47.0954 52.4401 42.1954 52.4401 39.1749 50.6797L2.27946 29.171C-0.741083 27.4106 -0.763457 24.5443 2.23472 22.7839L38.9064 1.32031C41.9046 -0.440104 46.8046 -0.440104 49.8251 1.32031L86.7205 22.8064Z" transform="translate(211 102) rotate(180)" fill="#149CF9"/>
</mask>
<g mask="url(#mask0)">
<path d="M90.2219 0.179655C90.1312 1.77409 88.7711 2.73973 87.5017 3.45834C86.6856 3.92994 85.8468 4.40153 85.0308 4.89558C83.648 5.70402 82.2652 6.49001 80.8597 7.29846C79.0915 8.30901 77.346 9.31957 75.5779 10.3301C73.6283 11.453 71.6788 12.5758 69.7293 13.6986C67.7798 14.8215 65.8076 15.9443 63.8581 17.0896C62.0672 18.1226 60.2764 19.1556 58.4629 20.1886C57.0348 21.0195 55.584 21.8505 54.1558 22.6589C53.2491 23.1754 52.3423 23.6919 51.4356 24.2084C51.2542 24.3207 51.0502 24.433 50.8688 24.5453C49.8714 25.1291 48.7606 25.466 47.6272 25.6906C44.9749 26.2071 41.96 25.8478 39.6024 24.5003C38.9677 24.141 38.333 23.7817 37.6983 23.4C36.4515 22.6814 35.2047 21.9852 33.9806 21.2666C32.3031 20.3009 30.6256 19.3577 28.9481 18.3921C27.0212 17.2917 25.1171 16.1913 23.1902 15.091C21.218 13.9681 19.2232 12.8228 17.251 11.7C15.3921 10.6445 13.5333 9.56659 11.6518 8.51112C10.0876 7.61285 8.52348 6.71458 6.93666 5.81631C5.84856 5.18752 4.76045 4.55873 3.64968 3.92994C3.21897 3.68291 2.7656 3.43589 2.33489 3.18886C1.17878 2.51516 0.0226688 1.43723 0.0226688 -3.42663e-07C0.0226688 1.9762 0.0226688 3.92994 -3.37788e-10 5.90613C-3.37788e-10 6.89423 -3.37788e-10 7.88233 -3.37788e-10 8.87043C-3.37788e-10 9.20728 0 9.56659 0.113344 9.90344C0.38537 10.8466 1.13344 11.5877 1.94952 12.1267C2.58425 12.5309 3.24164 12.8902 3.89904 13.2495C5.34984 14.0804 6.77798 14.9113 8.22878 15.7197C10.269 16.8875 12.3318 18.0553 14.372 19.2455C16.7296 20.5929 19.0645 21.9403 21.422 23.2877C23.7343 24.6126 26.0691 25.9376 28.3814 27.2625C30.3762 28.4078 32.3937 29.5531 34.3886 30.6984C35.7487 31.462 37.0862 32.2479 38.4463 33.0115C39.4664 33.5953 40.4412 34.1792 41.5746 34.5161C43.7508 35.1898 46.2671 35.2347 48.4659 34.6284C49.3274 34.3813 50.1661 34.0669 50.9368 33.6178C51.8436 33.1013 52.7277 32.5848 53.6344 32.0683C55.3346 31.1026 57.0348 30.1145 58.7123 29.1489C60.9111 27.8913 63.11 26.6113 65.3089 25.3537C67.6664 23.9838 70.0467 22.6364 72.4042 21.2666C74.6484 19.9865 76.8926 18.684 79.1142 17.404C80.8824 16.371 82.6732 15.3604 84.4414 14.3274C85.4615 13.7436 86.4816 13.1597 87.5017 12.5533C87.751 12.3961 88.023 12.2614 88.2724 12.1042C89.1111 11.5428 89.8592 10.7568 90.0859 9.7687C90.1539 9.47676 90.1539 9.16237 90.1539 8.87043C90.1539 6.53493 90.1766 4.22188 90.1766 1.88637C90.1766 1.28004 90.1766 0.673704 90.1766 0.0449143C90.2219 0.0898278 90.2219 0.134741 90.2219 0.179655Z" transform="translate(211.633 84.77) rotate(180)" fill="#3B407F"/>
<g filter="url(#filter5_f)">
<path d="M76.4941 18.5011C79.1585 19.9292 79.1782 22.2545 76.5336 23.6825L44.1864 41.1126C41.5418 42.5407 37.2196 42.5407 34.5552 41.1126L2.01066 23.6642C-0.653691 22.2361 -0.673427 19.9109 1.97119 18.4828L34.3184 1.07107C36.963 -0.357023 41.2852 -0.357023 43.9495 1.07107L76.4941 18.5011Z" transform="translate(205.775 102) rotate(180)" fill="#0097FF"/>
</g>
</g>
<g filter="url(#filter6_f)">
<path d="M186.218 47.2501C188.986 48.8235 191.699 51.3192 192.296 54.6287C192.839 57.667 191.265 60.434 189.094 62.3871C187.683 63.635 186.055 64.5031 184.427 65.4796C182.256 66.7275 180.139 67.9753 177.968 69.2232C174.711 71.1221 171.509 72.9668 168.253 74.8657C164.291 77.1444 160.383 79.4231 156.421 81.756C152.242 84.1975 148.063 86.5847 143.883 89.0261C139.867 91.3591 135.797 93.692 131.78 96.0792C128.361 98.0866 124.942 100.04 121.522 102.047C119.08 103.458 116.638 104.868 114.195 106.279C113.218 106.876 112.241 107.418 111.21 108.015C105.457 111.325 98.347 112.139 91.834 111.27C87.9805 110.782 84.3441 109.589 81.0334 107.635C79.4051 106.713 77.7769 105.737 76.1487 104.814C73.2721 103.132 70.3955 101.505 67.519 99.8228C63.774 97.6526 60.0291 95.4824 56.2841 93.3665C52.1593 90.9793 48.0344 88.5921 43.9095 86.2049C39.7304 83.8177 35.6055 81.4305 31.4263 78.989C27.7357 76.8731 23.9907 74.7029 20.3 72.587C17.4235 70.9051 14.4926 69.2232 11.6161 67.5956C9.98784 66.6732 8.3596 65.7509 6.78564 64.7743C3.69198 62.9839 0.544053 60.5425 0.0555812 56.7447C-0.487165 52.35 3.04069 49.0948 6.45999 47.0873C7.92541 46.2193 9.39082 45.4054 10.8562 44.5374C13.6242 42.9097 16.3923 41.3364 19.106 39.7087C22.7967 37.5928 26.4331 35.4769 30.1237 33.3067C34.2486 30.9195 38.3192 28.5323 42.4441 26.1451C46.6232 23.7036 50.8024 21.3164 54.9273 18.875C58.6722 16.7048 62.4172 14.5346 66.2164 12.3102C69.2015 10.574 72.1866 8.83787 75.1717 7.10172C76.9085 6.07088 78.6453 5.0943 80.3821 4.06346C83.3672 2.32732 86.5151 1.13372 89.9344 0.536917C96.8273 -0.656683 104.589 0.0486261 110.776 3.57517C111.644 4.06346 112.513 4.60601 113.381 5.0943C115.715 6.45067 118.049 7.80703 120.382 9.16339C123.748 11.1166 127.113 13.0697 130.478 15.0229C134.494 17.3016 138.456 19.6345 142.472 21.9132C146.651 24.3547 150.885 26.7419 155.064 29.1833C159.026 31.462 163.042 33.795 167.004 36.0737C170.369 38.0268 173.68 39.9257 177.045 41.8789C179.325 43.181 181.604 44.5374 183.884 45.8395C184.644 46.3278 185.458 46.8161 186.218 47.2501Z" transform="translate(70.2531 20.8632)" fill="#575EC7" fill-opacity="0.5"/>
</g>
<defs>
<filter id="filter0_d" x="50.3073" y="308.915" width="232.404" height="128.636" filterUnits="userSpaceOnUse" color-interpolation-filters="sRGB">
<feFlood flood-opacity="0" result="BackgroundImageFix"/>
<feColorMatrix in="SourceAlpha" type="matrix" values="0 0 0 0 0 0 0 0 0 0 0 0 0 0 0 0 0 0 255 0"/>
<feOffset/>
<feGaussianBlur stdDeviation="10"/>
<feColorMatrix type="matrix" values="0 0 0 0 0 0 0 0 0 0 0 0 0 0 0 0 0 0 0.25 0"/>
<feBlend mode="normal" in2="BackgroundImageFix" result="effect1_dropShadow"/>
<feBlend mode="normal" in="SourceGraphic" in2="effect1_dropShadow" result="shape"/>
</filter>
<filter id="filter1_f" x="71.8" y="278.207" width="189.364" height="108.776" filterUnits="userSpaceOnUse" color-interpolation-filters="sRGB">
<feFlood flood-opacity="0" result="BackgroundImageFix"/>
<feBlend mode="normal" in="SourceGraphic" in2="BackgroundImageFix" result="shape"/>
<feGaussianBlur stdDeviation="10" result="effect1_foregroundBlur"/>
</filter>
<filter id="filter2_f" x="71.8" y="215.217" width="189.364" height="108.776" filterUnits="userSpaceOnUse" color-interpolation-filters="sRGB">
<feFlood flood-opacity="0" result="BackgroundImageFix"/>
<feBlend mode="normal" in="SourceGraphic" in2="BackgroundImageFix" result="shape"/>
<feGaussianBlur stdDeviation="10" result="effect1_foregroundBlur"/>
</filter>
<filter id="filter3_f" x="71.8" y="153.204" width="189.364" height="108.776" filterUnits="userSpaceOnUse" color-interpolation-filters="sRGB">
<feFlood flood-opacity="0" result="BackgroundImageFix"/>
<feBlend mode="normal" in="SourceGraphic" in2="BackgroundImageFix" result="shape"/>
<feGaussianBlur stdDeviation="10" result="effect1_foregroundBlur"/>
</filter>
<filter id="filter4_f" x="61.8" y="80.2148" width="209.364" height="128.776" filterUnits="userSpaceOnUse" color-interpolation-filters="sRGB">
<feFlood flood-opacity="0" result="BackgroundImageFix"/>
<feBlend mode="normal" in="SourceGraphic" in2="BackgroundImageFix" result="shape"/>
<feGaussianBlur stdDeviation="15" result="effect1_foregroundBlur"/>
</filter>
<filter id="filter5_f" x="117.27" y="49.8163" width="98.5048" height="62.1837" filterUnits="userSpaceOnUse" color-interpolation-filters="sRGB">
<feFlood flood-opacity="0" result="BackgroundImageFix"/>
<feBlend mode="normal" in="SourceGraphic" in2="BackgroundImageFix" result="shape"/>
<feGaussianBlur stdDeviation="5" result="effect1_foregroundBlur"/>
</filter>
<filter id="filter6_f" x="50.2531" y="0.86322" width="232.404" height="151.594" filterUnits="userSpaceOnUse" color-interpolation-filters="sRGB">
<feFlood flood-opacity="0" result="BackgroundImageFix"/>
<feBlend mode="normal" in="SourceGraphic" in2="BackgroundImageFix" result="shape"/>
<feGaussianBlur stdDeviation="10" result="effect1_foregroundBlur"/>
</filter>
</defs>
</svg>
